<?xml version="1.0" encoding="utf-8" standalone="no"?>
<!DOCTYPE svg PUBLIC "-//W3C//DTD SVG 1.1//EN"
  "http://www.w3.org/Graphics/SVG/1.1/DTD/svg11.dtd">
<!-- Created with matplotlib (http://matplotlib.org/) -->
<svg height="345pt" version="1.1" viewBox="0 0 460 345" width="460pt" xmlns="http://www.w3.org/2000/svg" xmlns:xlink="http://www.w3.org/1999/xlink">
 <defs>
  <style type="text/css">
*{stroke-linecap:butt;stroke-linejoin:round;}
  </style>
 </defs>
 <g id="figure_1">
  <g id="patch_1">
   <path d="M 0 345.6 
L 460.8 345.6 
L 460.8 0 
L 0 0 
z
" style="fill:#ffffff;"/>
  </g>
  <g id="axes_1">
   <g id="patch_2">
    <path d="M 57.6 307.584 
L 414.72 307.584 
L 414.72 41.472 
L 57.6 41.472 
z
" style="fill:#ffffff;"/>
   </g>
   <g id="matplotlib.axis_1">
    <g id="xtick_1">
     <g id="line2d_1">
      <defs>
       <path d="M 0 0 
L 0 3.5 
" id="m3eb22c68f9" style="stroke:#000000;stroke-width:0.8;"/>
      </defs>
      <g>
       <use style="stroke:#000000;stroke-width:0.8;" x="91.054307" xlink:href="#m3eb22c68f9" y="307.584"/>
      </g>
     </g>
     <g id="text_1">
      <!-- 2011 -->
      <defs>
       <path d="M 19.1875 8.296875 
L 53.609375 8.296875 
L 53.609375 0 
L 7.328125 0 
L 7.328125 8.296875 
Q 12.9375 14.109375 22.625 23.890625 
Q 32.328125 33.6875 34.8125 36.53125 
Q 39.546875 41.84375 41.421875 45.53125 
Q 43.3125 49.21875 43.3125 52.78125 
Q 43.3125 58.59375 39.234375 62.25 
Q 35.15625 65.921875 28.609375 65.921875 
Q 23.96875 65.921875 18.8125 64.3125 
Q 13.671875 62.703125 7.8125 59.421875 
L 7.8125 69.390625 
Q 13.765625 71.78125 18.9375 73 
Q 24.125 74.21875 28.421875 74.21875 
Q 39.75 74.21875 46.484375 68.546875 
Q 53.21875 62.890625 53.21875 53.421875 
Q 53.21875 48.921875 51.53125 44.890625 
Q 49.859375 40.875 45.40625 35.40625 
Q 44.1875 33.984375 37.640625 27.21875 
Q 31.109375 20.453125 19.1875 8.296875 
z
" id="DejaVuSans-32"/>
       <path d="M 31.78125 66.40625 
Q 24.171875 66.40625 20.328125 58.90625 
Q 16.5 51.421875 16.5 36.375 
Q 16.5 21.390625 20.328125 13.890625 
Q 24.171875 6.390625 31.78125 6.390625 
Q 39.453125 6.390625 43.28125 13.890625 
Q 47.125 21.390625 47.125 36.375 
Q 47.125 51.421875 43.28125 58.90625 
Q 39.453125 66.40625 31.78125 66.40625 
z
M 31.78125 74.21875 
Q 44.046875 74.21875 50.515625 64.515625 
Q 56.984375 54.828125 56.984375 36.375 
Q 56.984375 17.96875 50.515625 8.265625 
Q 44.046875 -1.421875 31.78125 -1.421875 
Q 19.53125 -1.421875 13.0625 8.265625 
Q 6.59375 17.96875 6.59375 36.375 
Q 6.59375 54.828125 13.0625 64.515625 
Q 19.53125 74.21875 31.78125 74.21875 
z
" id="DejaVuSans-30"/>
       <path d="M 12.40625 8.296875 
L 28.515625 8.296875 
L 28.515625 63.921875 
L 10.984375 60.40625 
L 10.984375 69.390625 
L 28.421875 72.90625 
L 38.28125 72.90625 
L 38.28125 8.296875 
L 54.390625 8.296875 
L 54.390625 0 
L 12.40625 0 
z
" id="DejaVuSans-31"/>
      </defs>
      <g transform="translate(78.329307 322.182437)scale(0.1 -0.1)">
       <use xlink:href="#DejaVuSans-32"/>
       <use x="63.623047" xlink:href="#DejaVuSans-30"/>
       <use x="127.246094" xlink:href="#DejaVuSans-31"/>
       <use x="190.869141" xlink:href="#DejaVuSans-31"/>
      </g>
     </g>
    </g>
    <g id="xtick_2">
     <g id="line2d_2">
      <g>
       <use style="stroke:#000000;stroke-width:0.8;" x="131.608348" xlink:href="#m3eb22c68f9" y="307.584"/>
      </g>
     </g>
     <g id="text_2">
      <!-- 2012 -->
      <g transform="translate(118.883348 322.182437)scale(0.1 -0.1)">
       <use xlink:href="#DejaVuSans-32"/>
       <use x="63.623047" xlink:href="#DejaVuSans-30"/>
       <use x="127.246094" xlink:href="#DejaVuSans-31"/>
       <use x="190.869141" xlink:href="#DejaVuSans-32"/>
      </g>
     </g>
    </g>
    <g id="xtick_3">
     <g id="line2d_3">
      <g>
       <use style="stroke:#000000;stroke-width:0.8;" x="172.273496" xlink:href="#m3eb22c68f9" y="307.584"/>
      </g>
     </g>
     <g id="text_3">
      <!-- 2013 -->
      <defs>
       <path d="M 40.578125 39.3125 
Q 47.65625 37.796875 51.625 33 
Q 55.609375 28.21875 55.609375 21.1875 
Q 55.609375 10.40625 48.1875 4.484375 
Q 40.765625 -1.421875 27.09375 -1.421875 
Q 22.515625 -1.421875 17.65625 -0.515625 
Q 12.796875 0.390625 7.625 2.203125 
L 7.625 11.71875 
Q 11.71875 9.328125 16.59375 8.109375 
Q 21.484375 6.890625 26.8125 6.890625 
Q 36.078125 6.890625 40.9375 10.546875 
Q 45.796875 14.203125 45.796875 21.1875 
Q 45.796875 27.640625 41.28125 31.265625 
Q 36.765625 34.90625 28.71875 34.90625 
L 20.21875 34.90625 
L 20.21875 43.015625 
L 29.109375 43.015625 
Q 36.375 43.015625 40.234375 45.921875 
Q 44.09375 48.828125 44.09375 54.296875 
Q 44.09375 59.90625 40.109375 62.90625 
Q 36.140625 65.921875 28.71875 65.921875 
Q 24.65625 65.921875 20.015625 65.03125 
Q 15.375 64.15625 9.8125 62.3125 
L 9.8125 71.09375 
Q 15.4375 72.65625 20.34375 73.4375 
Q 25.25 74.21875 29.59375 74.21875 
Q 40.828125 74.21875 47.359375 69.109375 
Q 53.90625 64.015625 53.90625 55.328125 
Q 53.90625 49.265625 50.4375 45.09375 
Q 46.96875 40.921875 40.578125 39.3125 
z
" id="DejaVuSans-33"/>
      </defs>
      <g transform="translate(159.548496 322.182437)scale(0.1 -0.1)">
       <use xlink:href="#DejaVuSans-32"/>
       <use x="63.623047" xlink:href="#DejaVuSans-30"/>
       <use x="127.246094" xlink:href="#DejaVuSans-31"/>
       <use x="190.869141" xlink:href="#DejaVuSans-33"/>
      </g>
     </g>
    </g>
    <g id="xtick_4">
     <g id="line2d_4">
      <g>
       <use style="stroke:#000000;stroke-width:0.8;" x="212.827538" xlink:href="#m3eb22c68f9" y="307.584"/>
      </g>
     </g>
     <g id="text_4">
      <!-- 2014 -->
      <defs>
       <path d="M 37.796875 64.3125 
L 12.890625 25.390625 
L 37.796875 25.390625 
z
M 35.203125 72.90625 
L 47.609375 72.90625 
L 47.609375 25.390625 
L 58.015625 25.390625 
L 58.015625 17.1875 
L 47.609375 17.1875 
L 47.609375 0 
L 37.796875 0 
L 37.796875 17.1875 
L 4.890625 17.1875 
L 4.890625 26.703125 
z
" id="DejaVuSans-34"/>
      </defs>
      <g transform="translate(200.102538 322.182437)scale(0.1 -0.1)">
       <use xlink:href="#DejaVuSans-32"/>
       <use x="63.623047" xlink:href="#DejaVuSans-30"/>
       <use x="127.246094" xlink:href="#DejaVuSans-31"/>
       <use x="190.869141" xlink:href="#DejaVuSans-34"/>
      </g>
     </g>
    </g>
    <g id="xtick_5">
     <g id="line2d_5">
      <g>
       <use style="stroke:#000000;stroke-width:0.8;" x="253.381579" xlink:href="#m3eb22c68f9" y="307.584"/>
      </g>
     </g>
     <g id="text_5">
      <!-- 2015 -->
      <defs>
       <path d="M 10.796875 72.90625 
L 49.515625 72.90625 
L 49.515625 64.59375 
L 19.828125 64.59375 
L 19.828125 46.734375 
Q 21.96875 47.46875 24.109375 47.828125 
Q 26.265625 48.1875 28.421875 48.1875 
Q 40.625 48.1875 47.75 41.5 
Q 54.890625 34.8125 54.890625 23.390625 
Q 54.890625 11.625 47.5625 5.09375 
Q 40.234375 -1.421875 26.90625 -1.421875 
Q 22.3125 -1.421875 17.546875 -0.640625 
Q 12.796875 0.140625 7.71875 1.703125 
L 7.71875 11.625 
Q 12.109375 9.234375 16.796875 8.0625 
Q 21.484375 6.890625 26.703125 6.890625 
Q 35.15625 6.890625 40.078125 11.328125 
Q 45.015625 15.765625 45.015625 23.390625 
Q 45.015625 31 40.078125 35.4375 
Q 35.15625 39.890625 26.703125 39.890625 
Q 22.75 39.890625 18.8125 39.015625 
Q 14.890625 38.140625 10.796875 36.28125 
z
" id="DejaVuSans-35"/>
      </defs>
      <g transform="translate(240.656579 322.182437)scale(0.1 -0.1)">
       <use xlink:href="#DejaVuSans-32"/>
       <use x="63.623047" xlink:href="#DejaVuSans-30"/>
       <use x="127.246094" xlink:href="#DejaVuSans-31"/>
       <use x="190.869141" xlink:href="#DejaVuSans-35"/>
      </g>
     </g>
    </g>
    <g id="xtick_6">
     <g id="line2d_6">
      <g>
       <use style="stroke:#000000;stroke-width:0.8;" x="293.935621" xlink:href="#m3eb22c68f9" y="307.584"/>
      </g>
     </g>
     <g id="text_6">
      <!-- 2016 -->
      <defs>
       <path d="M 33.015625 40.375 
Q 26.375 40.375 22.484375 35.828125 
Q 18.609375 31.296875 18.609375 23.390625 
Q 18.609375 15.53125 22.484375 10.953125 
Q 26.375 6.390625 33.015625 6.390625 
Q 39.65625 6.390625 43.53125 10.953125 
Q 47.40625 15.53125 47.40625 23.390625 
Q 47.40625 31.296875 43.53125 35.828125 
Q 39.65625 40.375 33.015625 40.375 
z
M 52.59375 71.296875 
L 52.59375 62.3125 
Q 48.875 64.0625 45.09375 64.984375 
Q 41.3125 65.921875 37.59375 65.921875 
Q 27.828125 65.921875 22.671875 59.328125 
Q 17.53125 52.734375 16.796875 39.40625 
Q 19.671875 43.65625 24.015625 45.921875 
Q 28.375 48.1875 33.59375 48.1875 
Q 44.578125 48.1875 50.953125 41.515625 
Q 57.328125 34.859375 57.328125 23.390625 
Q 57.328125 12.15625 50.6875 5.359375 
Q 44.046875 -1.421875 33.015625 -1.421875 
Q 20.359375 -1.421875 13.671875 8.265625 
Q 6.984375 17.96875 6.984375 36.375 
Q 6.984375 53.65625 15.1875 63.9375 
Q 23.390625 74.21875 37.203125 74.21875 
Q 40.921875 74.21875 44.703125 73.484375 
Q 48.484375 72.75 52.59375 71.296875 
z
" id="DejaVuSans-36"/>
      </defs>
      <g transform="translate(281.210621 322.182437)scale(0.1 -0.1)">
       <use xlink:href="#DejaVuSans-32"/>
       <use x="63.623047" xlink:href="#DejaVuSans-30"/>
       <use x="127.246094" xlink:href="#DejaVuSans-31"/>
       <use x="190.869141" xlink:href="#DejaVuSans-36"/>
      </g>
     </g>
    </g>
    <g id="xtick_7">
     <g id="line2d_7">
      <g>
       <use style="stroke:#000000;stroke-width:0.8;" x="334.600769" xlink:href="#m3eb22c68f9" y="307.584"/>
      </g>
     </g>
     <g id="text_7">
      <!-- 2017 -->
      <defs>
       <path d="M 8.203125 72.90625 
L 55.078125 72.90625 
L 55.078125 68.703125 
L 28.609375 0 
L 18.3125 0 
L 43.21875 64.59375 
L 8.203125 64.59375 
z
" id="DejaVuSans-37"/>
      </defs>
      <g transform="translate(321.875769 322.182437)scale(0.1 -0.1)">
       <use xlink:href="#DejaVuSans-32"/>
       <use x="63.623047" xlink:href="#DejaVuSans-30"/>
       <use x="127.246094" xlink:href="#DejaVuSans-31"/>
       <use x="190.869141" xlink:href="#DejaVuSans-37"/>
      </g>
     </g>
    </g>
    <g id="xtick_8">
     <g id="line2d_8">
      <g>
       <use style="stroke:#000000;stroke-width:0.8;" x="375.154811" xlink:href="#m3eb22c68f9" y="307.584"/>
      </g>
     </g>
     <g id="text_8">
      <!-- 2018 -->
      <defs>
       <path d="M 31.78125 34.625 
Q 24.75 34.625 20.71875 30.859375 
Q 16.703125 27.09375 16.703125 20.515625 
Q 16.703125 13.921875 20.71875 10.15625 
Q 24.75 6.390625 31.78125 6.390625 
Q 38.8125 6.390625 42.859375 10.171875 
Q 46.921875 13.96875 46.921875 20.515625 
Q 46.921875 27.09375 42.890625 30.859375 
Q 38.875 34.625 31.78125 34.625 
z
M 21.921875 38.8125 
Q 15.578125 40.375 12.03125 44.71875 
Q 8.5 49.078125 8.5 55.328125 
Q 8.5 64.0625 14.71875 69.140625 
Q 20.953125 74.21875 31.78125 74.21875 
Q 42.671875 74.21875 48.875 69.140625 
Q 55.078125 64.0625 55.078125 55.328125 
Q 55.078125 49.078125 51.53125 44.71875 
Q 48 40.375 41.703125 38.8125 
Q 48.828125 37.15625 52.796875 32.3125 
Q 56.78125 27.484375 56.78125 20.515625 
Q 56.78125 9.90625 50.3125 4.234375 
Q 43.84375 -1.421875 31.78125 -1.421875 
Q 19.734375 -1.421875 13.25 4.234375 
Q 6.78125 9.90625 6.78125 20.515625 
Q 6.78125 27.484375 10.78125 32.3125 
Q 14.796875 37.15625 21.921875 38.8125 
z
M 18.3125 54.390625 
Q 18.3125 48.734375 21.84375 45.5625 
Q 25.390625 42.390625 31.78125 42.390625 
Q 38.140625 42.390625 41.71875 45.5625 
Q 45.3125 48.734375 45.3125 54.390625 
Q 45.3125 60.0625 41.71875 63.234375 
Q 38.140625 66.40625 31.78125 66.40625 
Q 25.390625 66.40625 21.84375 63.234375 
Q 18.3125 60.0625 18.3125 54.390625 
z
" id="DejaVuSans-38"/>
      </defs>
      <g transform="translate(362.429811 322.182437)scale(0.1 -0.1)">
       <use xlink:href="#DejaVuSans-32"/>
       <use x="63.623047" xlink:href="#DejaVuSans-30"/>
       <use x="127.246094" xlink:href="#DejaVuSans-31"/>
       <use x="190.869141" xlink:href="#DejaVuSans-38"/>
      </g>
     </g>
    </g>
    <g id="text_9">
     <!-- Time (Days) -->
     <defs>
      <path d="M -0.296875 72.90625 
L 61.375 72.90625 
L 61.375 64.59375 
L 35.5 64.59375 
L 35.5 0 
L 25.59375 0 
L 25.59375 64.59375 
L -0.296875 64.59375 
z
" id="DejaVuSans-54"/>
      <path d="M 9.421875 54.6875 
L 18.40625 54.6875 
L 18.40625 0 
L 9.421875 0 
z
M 9.421875 75.984375 
L 18.40625 75.984375 
L 18.40625 64.59375 
L 9.421875 64.59375 
z
" id="DejaVuSans-69"/>
      <path d="M 52 44.1875 
Q 55.375 50.25 60.0625 53.125 
Q 64.75 56 71.09375 56 
Q 79.640625 56 84.28125 50.015625 
Q 88.921875 44.046875 88.921875 33.015625 
L 88.921875 0 
L 79.890625 0 
L 79.890625 32.71875 
Q 79.890625 40.578125 77.09375 44.375 
Q 74.3125 48.1875 68.609375 48.1875 
Q 61.625 48.1875 57.5625 43.546875 
Q 53.515625 38.921875 53.515625 30.90625 
L 53.515625 0 
L 44.484375 0 
L 44.484375 32.71875 
Q 44.484375 40.625 41.703125 44.40625 
Q 38.921875 48.1875 33.109375 48.1875 
Q 26.21875 48.1875 22.15625 43.53125 
Q 18.109375 38.875 18.109375 30.90625 
L 18.109375 0 
L 9.078125 0 
L 9.078125 54.6875 
L 18.109375 54.6875 
L 18.109375 46.1875 
Q 21.1875 51.21875 25.484375 53.609375 
Q 29.78125 56 35.6875 56 
Q 41.65625 56 45.828125 52.96875 
Q 50 49.953125 52 44.1875 
z
" id="DejaVuSans-6d"/>
      <path d="M 56.203125 29.59375 
L 56.203125 25.203125 
L 14.890625 25.203125 
Q 15.484375 15.921875 20.484375 11.0625 
Q 25.484375 6.203125 34.421875 6.203125 
Q 39.59375 6.203125 44.453125 7.46875 
Q 49.3125 8.734375 54.109375 11.28125 
L 54.109375 2.78125 
Q 49.265625 0.734375 44.1875 -0.34375 
Q 39.109375 -1.421875 33.890625 -1.421875 
Q 20.796875 -1.421875 13.15625 6.1875 
Q 5.515625 13.8125 5.515625 26.8125 
Q 5.515625 40.234375 12.765625 48.109375 
Q 20.015625 56 32.328125 56 
Q 43.359375 56 49.78125 48.890625 
Q 56.203125 41.796875 56.203125 29.59375 
z
M 47.21875 32.234375 
Q 47.125 39.59375 43.09375 43.984375 
Q 39.0625 48.390625 32.421875 48.390625 
Q 24.90625 48.390625 20.390625 44.140625 
Q 15.875 39.890625 15.1875 32.171875 
z
" id="DejaVuSans-65"/>
      <path id="DejaVuSans-20"/>
      <path d="M 31 75.875 
Q 24.46875 64.65625 21.28125 53.65625 
Q 18.109375 42.671875 18.109375 31.390625 
Q 18.109375 20.125 21.3125 9.0625 
Q 24.515625 -2 31 -13.1875 
L 23.1875 -13.1875 
Q 15.875 -1.703125 12.234375 9.375 
Q 8.59375 20.453125 8.59375 31.390625 
Q 8.59375 42.28125 12.203125 53.3125 
Q 15.828125 64.359375 23.1875 75.875 
z
" id="DejaVuSans-28"/>
      <path d="M 19.671875 64.796875 
L 19.671875 8.109375 
L 31.59375 8.109375 
Q 46.6875 8.109375 53.6875 14.9375 
Q 60.6875 21.78125 60.6875 36.53125 
Q 60.6875 51.171875 53.6875 57.984375 
Q 46.6875 64.796875 31.59375 64.796875 
z
M 9.8125 72.90625 
L 30.078125 72.90625 
Q 51.265625 72.90625 61.171875 64.09375 
Q 71.09375 55.28125 71.09375 36.53125 
Q 71.09375 17.671875 61.125 8.828125 
Q 51.171875 0 30.078125 0 
L 9.8125 0 
z
" id="DejaVuSans-44"/>
      <path d="M 34.28125 27.484375 
Q 23.390625 27.484375 19.1875 25 
Q 14.984375 22.515625 14.984375 16.5 
Q 14.984375 11.71875 18.140625 8.90625 
Q 21.296875 6.109375 26.703125 6.109375 
Q 34.1875 6.109375 38.703125 11.40625 
Q 43.21875 16.703125 43.21875 25.484375 
L 43.21875 27.484375 
z
M 52.203125 31.203125 
L 52.203125 0 
L 43.21875 0 
L 43.21875 8.296875 
Q 40.140625 3.328125 35.546875 0.953125 
Q 30.953125 -1.421875 24.3125 -1.421875 
Q 15.921875 -1.421875 10.953125 3.296875 
Q 6 8.015625 6 15.921875 
Q 6 25.140625 12.171875 29.828125 
Q 18.359375 34.515625 30.609375 34.515625 
L 43.21875 34.515625 
L 43.21875 35.40625 
Q 43.21875 41.609375 39.140625 45 
Q 35.0625 48.390625 27.6875 48.390625 
Q 23 48.390625 18.546875 47.265625 
Q 14.109375 46.140625 10.015625 43.890625 
L 10.015625 52.203125 
Q 14.9375 54.109375 19.578125 55.046875 
Q 24.21875 56 28.609375 56 
Q 40.484375 56 46.34375 49.84375 
Q 52.203125 43.703125 52.203125 31.203125 
z
" id="DejaVuSans-61"/>
      <path d="M 32.171875 -5.078125 
Q 28.375 -14.84375 24.75 -17.8125 
Q 21.140625 -20.796875 15.09375 -20.796875 
L 7.90625 -20.796875 
L 7.90625 -13.28125 
L 13.1875 -13.28125 
Q 16.890625 -13.28125 18.9375 -11.515625 
Q 21 -9.765625 23.484375 -3.21875 
L 25.09375 0.875 
L 2.984375 54.6875 
L 12.5 54.6875 
L 29.59375 11.921875 
L 46.6875 54.6875 
L 56.203125 54.6875 
z
" id="DejaVuSans-79"/>
      <path d="M 44.28125 53.078125 
L 44.28125 44.578125 
Q 40.484375 46.53125 36.375 47.5 
Q 32.28125 48.484375 27.875 48.484375 
Q 21.1875 48.484375 17.84375 46.4375 
Q 14.5 44.390625 14.5 40.28125 
Q 14.5 37.15625 16.890625 35.375 
Q 19.28125 33.59375 26.515625 31.984375 
L 29.59375 31.296875 
Q 39.15625 29.25 43.1875 25.515625 
Q 47.21875 21.78125 47.21875 15.09375 
Q 47.21875 7.46875 41.1875 3.015625 
Q 35.15625 -1.421875 24.609375 -1.421875 
Q 20.21875 -1.421875 15.453125 -0.5625 
Q 10.6875 0.296875 5.421875 2 
L 5.421875 11.28125 
Q 10.40625 8.6875 15.234375 7.390625 
Q 20.0625 6.109375 24.8125 6.109375 
Q 31.15625 6.109375 34.5625 8.28125 
Q 37.984375 10.453125 37.984375 14.40625 
Q 37.984375 18.0625 35.515625 20.015625 
Q 33.0625 21.96875 24.703125 23.78125 
L 21.578125 24.515625 
Q 13.234375 26.265625 9.515625 29.90625 
Q 5.8125 33.546875 5.8125 39.890625 
Q 5.8125 47.609375 11.28125 51.796875 
Q 16.75 56 26.8125 56 
Q 31.78125 56 36.171875 55.265625 
Q 40.578125 54.546875 44.28125 53.078125 
z
" id="DejaVuSans-73"/>
      <path d="M 8.015625 75.875 
L 15.828125 75.875 
Q 23.140625 64.359375 26.78125 53.3125 
Q 30.421875 42.28125 30.421875 31.390625 
Q 30.421875 20.453125 26.78125 9.375 
Q 23.140625 -1.703125 15.828125 -13.1875 
L 8.015625 -13.1875 
Q 14.5 -2 17.703125 9.0625 
Q 20.90625 20.125 20.90625 31.390625 
Q 20.90625 42.671875 17.703125 53.65625 
Q 14.5 64.65625 8.015625 75.875 
z
" id="DejaVuSans-29"/>
     </defs>
     <g transform="translate(205.80375 335.860562)scale(0.1 -0.1)">
      <use xlink:href="#DejaVuSans-54"/>
      <use x="61.037109" xlink:href="#DejaVuSans-69"/>
      <use x="88.820312" xlink:href="#DejaVuSans-6d"/>
      <use x="186.232422" xlink:href="#DejaVuSans-65"/>
      <use x="247.755859" xlink:href="#DejaVuSans-20"/>
      <use x="279.542969" xlink:href="#DejaVuSans-28"/>
      <use x="318.556641" xlink:href="#DejaVuSans-44"/>
      <use x="395.558594" xlink:href="#DejaVuSans-61"/>
      <use x="456.837891" xlink:href="#DejaVuSans-79"/>
      <use x="516.017578" xlink:href="#DejaVuSans-73"/>
      <use x="568.117188" xlink:href="#DejaVuSans-29"/>
     </g>
    </g>
   </g>
   <g id="matplotlib.axis_2">
    <g id="ytick_1">
     <g id="line2d_9">
      <defs>
       <path d="M 0 0 
L -3.5 0 
" id="mdec5d77fa3" style="stroke:#000000;stroke-width:0.8;"/>
      </defs>
      <g>
       <use style="stroke:#000000;stroke-width:0.8;" x="57.6" xlink:href="#mdec5d77fa3" y="304.332125"/>
      </g>
     </g>
     <g id="text_10">
      <!-- 40 -->
      <g transform="translate(37.875 308.131344)scale(0.1 -0.1)">
       <use xlink:href="#DejaVuSans-34"/>
       <use x="63.623047" xlink:href="#DejaVuSans-30"/>
      </g>
     </g>
    </g>
    <g id="ytick_2">
     <g id="line2d_10">
      <g>
       <use style="stroke:#000000;stroke-width:0.8;" x="57.6" xlink:href="#mdec5d77fa3" y="250.508959"/>
      </g>
     </g>
     <g id="text_11">
      <!-- 50 -->
      <g transform="translate(37.875 254.308177)scale(0.1 -0.1)">
       <use xlink:href="#DejaVuSans-35"/>
       <use x="63.623047" xlink:href="#DejaVuSans-30"/>
      </g>
     </g>
    </g>
    <g id="ytick_3">
     <g id="line2d_11">
      <g>
       <use style="stroke:#000000;stroke-width:0.8;" x="57.6" xlink:href="#mdec5d77fa3" y="196.685792"/>
      </g>
     </g>
     <g id="text_12">
      <!-- 60 -->
      <g transform="translate(37.875 200.485011)scale(0.1 -0.1)">
       <use xlink:href="#DejaVuSans-36"/>
       <use x="63.623047" xlink:href="#DejaVuSans-30"/>
      </g>
     </g>
    </g>
    <g id="ytick_4">
     <g id="line2d_12">
      <g>
       <use style="stroke:#000000;stroke-width:0.8;" x="57.6" xlink:href="#mdec5d77fa3" y="142.862626"/>
      </g>
     </g>
     <g id="text_13">
      <!-- 70 -->
      <g transform="translate(37.875 146.661845)scale(0.1 -0.1)">
       <use xlink:href="#DejaVuSans-37"/>
       <use x="63.623047" xlink:href="#DejaVuSans-30"/>
      </g>
     </g>
    </g>
    <g id="ytick_5">
     <g id="line2d_13">
      <g>
       <use style="stroke:#000000;stroke-width:0.8;" x="57.6" xlink:href="#mdec5d77fa3" y="89.03946"/>
      </g>
     </g>
     <g id="text_14">
      <!-- 80 -->
      <g transform="translate(37.875 92.838679)scale(0.1 -0.1)">
       <use xlink:href="#DejaVuSans-38"/>
       <use x="63.623047" xlink:href="#DejaVuSans-30"/>
      </g>
     </g>
    </g>
    <g id="text_15">
     <!-- Mean Temperature (˚F) -->
     <defs>
      <path d="M 9.8125 72.90625 
L 24.515625 72.90625 
L 43.109375 23.296875 
L 61.8125 72.90625 
L 76.515625 72.90625 
L 76.515625 0 
L 66.890625 0 
L 66.890625 64.015625 
L 48.09375 14.015625 
L 38.1875 14.015625 
L 19.390625 64.015625 
L 19.390625 0 
L 9.8125 0 
z
" id="DejaVuSans-4d"/>
      <path d="M 54.890625 33.015625 
L 54.890625 0 
L 45.90625 0 
L 45.90625 32.71875 
Q 45.90625 40.484375 42.875 44.328125 
Q 39.84375 48.1875 33.796875 48.1875 
Q 26.515625 48.1875 22.3125 43.546875 
Q 18.109375 38.921875 18.109375 30.90625 
L 18.109375 0 
L 9.078125 0 
L 9.078125 54.6875 
L 18.109375 54.6875 
L 18.109375 46.1875 
Q 21.34375 51.125 25.703125 53.5625 
Q 30.078125 56 35.796875 56 
Q 45.21875 56 50.046875 50.171875 
Q 54.890625 44.34375 54.890625 33.015625 
z
" id="DejaVuSans-6e"/>
      <path d="M 18.109375 8.203125 
L 18.109375 -20.796875 
L 9.078125 -20.796875 
L 9.078125 54.6875 
L 18.109375 54.6875 
L 18.109375 46.390625 
Q 20.953125 51.265625 25.265625 53.625 
Q 29.59375 56 35.59375 56 
Q 45.5625 56 51.78125 48.09375 
Q 58.015625 40.1875 58.015625 27.296875 
Q 58.015625 14.40625 51.78125 6.484375 
Q 45.5625 -1.421875 35.59375 -1.421875 
Q 29.59375 -1.421875 25.265625 0.953125 
Q 20.953125 3.328125 18.109375 8.203125 
z
M 48.6875 27.296875 
Q 48.6875 37.203125 44.609375 42.84375 
Q 40.53125 48.484375 33.40625 48.484375 
Q 26.265625 48.484375 22.1875 42.84375 
Q 18.109375 37.203125 18.109375 27.296875 
Q 18.109375 17.390625 22.1875 11.75 
Q 26.265625 6.109375 33.40625 6.109375 
Q 40.53125 6.109375 44.609375 11.75 
Q 48.6875 17.390625 48.6875 27.296875 
z
" id="DejaVuSans-70"/>
      <path d="M 41.109375 46.296875 
Q 39.59375 47.171875 37.8125 47.578125 
Q 36.03125 48 33.890625 48 
Q 26.265625 48 22.1875 43.046875 
Q 18.109375 38.09375 18.109375 28.8125 
L 18.109375 0 
L 9.078125 0 
L 9.078125 54.6875 
L 18.109375 54.6875 
L 18.109375 46.1875 
Q 20.953125 51.171875 25.484375 53.578125 
Q 30.03125 56 36.53125 56 
Q 37.453125 56 38.578125 55.875 
Q 39.703125 55.765625 41.0625 55.515625 
z
" id="DejaVuSans-72"/>
      <path d="M 18.3125 70.21875 
L 18.3125 54.6875 
L 36.8125 54.6875 
L 36.8125 47.703125 
L 18.3125 47.703125 
L 18.3125 18.015625 
Q 18.3125 11.328125 20.140625 9.421875 
Q 21.96875 7.515625 27.59375 7.515625 
L 36.8125 7.515625 
L 36.8125 0 
L 27.59375 0 
Q 17.1875 0 13.234375 3.875 
Q 9.28125 7.765625 9.28125 18.015625 
L 9.28125 47.703125 
L 2.6875 47.703125 
L 2.6875 54.6875 
L 9.28125 54.6875 
L 9.28125 70.21875 
z
" id="DejaVuSans-74"/>
      <path d="M 8.5 21.578125 
L 8.5 54.6875 
L 17.484375 54.6875 
L 17.484375 21.921875 
Q 17.484375 14.15625 20.5 10.265625 
Q 23.53125 6.390625 29.59375 6.390625 
Q 36.859375 6.390625 41.078125 11.03125 
Q 45.3125 15.671875 45.3125 23.6875 
L 45.3125 54.6875 
L 54.296875 54.6875 
L 54.296875 0 
L 45.3125 0 
L 45.3125 8.40625 
Q 42.046875 3.421875 37.71875 1 
Q 33.40625 -1.421875 27.6875 -1.421875 
Q 18.265625 -1.421875 13.375 4.4375 
Q 8.5 10.296875 8.5 21.578125 
z
M 31.109375 56 
z
" id="DejaVuSans-75"/>
      <path d="M 32.421875 74.421875 
Q 32.421875 77.484375 30.265625 79.625 
Q 28.125 81.78125 25 81.78125 
Q 21.828125 81.78125 19.703125 79.65625 
Q 17.578125 77.546875 17.578125 74.421875 
Q 17.578125 71.234375 19.703125 69.109375 
Q 21.828125 67 25 67 
Q 28.125 67 30.265625 69.140625 
Q 32.421875 71.296875 32.421875 74.421875 
z
M 38.375 74.421875 
Q 38.375 68.796875 34.484375 64.890625 
Q 30.609375 60.984375 25 60.984375 
Q 19.390625 60.984375 15.5 64.890625 
Q 11.625 68.796875 11.625 74.421875 
Q 11.625 80.03125 15.5 83.90625 
Q 19.390625 87.796875 25 87.796875 
Q 30.609375 87.796875 34.484375 83.90625 
Q 38.375 80.03125 38.375 74.421875 
z
" id="DejaVuSans-2da"/>
      <path d="M 9.8125 72.90625 
L 51.703125 72.90625 
L 51.703125 64.59375 
L 19.671875 64.59375 
L 19.671875 43.109375 
L 48.578125 43.109375 
L 48.578125 34.8125 
L 19.671875 34.8125 
L 19.671875 0 
L 9.8125 0 
z
" id="DejaVuSans-46"/>
     </defs>
     <g transform="translate(31.795312 233.224094)rotate(-90)scale(0.1 -0.1)">
      <use xlink:href="#DejaVuSans-4d"/>
      <use x="86.279297" xlink:href="#DejaVuSans-65"/>
      <use x="147.802734" xlink:href="#DejaVuSans-61"/>
      <use x="209.082031" xlink:href="#DejaVuSans-6e"/>
      <use x="272.460938" xlink:href="#DejaVuSans-20"/>
      <use x="304.248047" xlink:href="#DejaVuSans-54"/>
      <use x="365.066406" xlink:href="#DejaVuSans-65"/>
      <use x="426.589844" xlink:href="#DejaVuSans-6d"/>
      <use x="524.001953" xlink:href="#DejaVuSans-70"/>
      <use x="587.478516" xlink:href="#DejaVuSans-65"/>
      <use x="649.001953" xlink:href="#DejaVuSans-72"/>
      <use x="690.115234" xlink:href="#DejaVuSans-61"/>
      <use x="751.394531" xlink:href="#DejaVuSans-74"/>
      <use x="790.603516" xlink:href="#DejaVuSans-75"/>
      <use x="853.982422" xlink:href="#DejaVuSans-72"/>
      <use x="895.064453" xlink:href="#DejaVuSans-65"/>
      <use x="956.587891" xlink:href="#DejaVuSans-20"/>
      <use x="988.375" xlink:href="#DejaVuSans-28"/>
      <use x="1027.388672" xlink:href="#DejaVuSans-2da"/>
      <use x="1077.388672" xlink:href="#DejaVuSans-46"/>
      <use x="1134.908203" xlink:href="#DejaVuSans-29"/>
     </g>
    </g>
   </g>
   <g id="line2d_14">
    <path clip-path="url(#pbfccc0fbe3)" d="M 73.832727 210.365847 
L 74.054941 202.725948 
L 74.277155 209.936009 
L 74.388262 209.936009 
L 74.499369 217.611 
L 74.721583 204.258413 
L 74.83269 203.484705 
L 74.943797 203.667749 
L 75.054904 210.266391 
L 75.166011 208.859546 
L 75.277118 224.167268 
L 75.499332 198.982247 
L 75.721546 198.982247 
L 75.832653 180.60683 
L 76.054867 194.310798 
L 76.27708 206.512258 
L 76.388187 185.432202 
L 76.610401 100.420817 
L 76.943722 201.970249 
L 77.054829 203.503393 
L 77.277043 200.483525 
L 77.499257 136.64306 
L 77.610364 142.33187 
L 77.832578 207.297179 
L 78.054792 163.67425 
L 78.165899 203.327721 
L 78.388113 197.986519 
L 78.49922 180.49399 
L 78.610327 182.560034 
L 78.832541 212.048796 
L 78.943648 205.764714 
L 79.054755 215.03861 
L 79.276968 180.381858 
L 79.388075 166.364154 
L 79.610289 182.807638 
L 79.721396 194.794401 
L 79.832503 192.802082 
L 79.94361 186.019019 
L 80.165824 143.737253 
L 80.276931 162.445356 
L 80.499145 120.241946 
L 80.721359 196.457791 
L 80.832466 194.370605 
L 80.943573 203.955658 
L 81.276894 196.715694 
L 81.388001 192.563087 
L 81.610215 193.822699 
L 81.721322 188.564118 
L 81.943536 160.436398 
L 82.054643 154.950412 
L 82.165749 143.293212 
L 82.276856 153.533816 
L 82.49907 213.513007 
L 82.610177 223.41671 
L 82.721284 217.37781 
L 82.832391 220.045862 
L 82.943498 215.154951 
L 83.054605 194.597974 
L 83.165712 205.865842 
L 83.276819 202.665704 
L 83.387926 187.162082 
L 83.61014 213.695622 
L 83.721247 210.791947 
L 83.832354 186.03866 
L 84.054568 208.617858 
L 84.498996 181.797355 
L 84.610103 151.679012 
L 84.72121 198.655571 
L 84.832317 195.997244 
L 85.276744 240.406764 
L 86.054493 240.406764 
L 86.1656 219.535669 
L 86.387814 248.264418 
L 86.498921 246.026152 
L 86.610028 233.501596 
L 86.721135 241.623931 
L 86.832242 275.169755 
L 87.054456 259.0419 
L 87.165563 248.192222 
L 87.387777 260.039046 
L 87.498884 255.948131 
L 87.832205 225.042697 
L 87.943312 226.391599 
L 90.165451 226.391599 
L 90.276558 237.286401 
L 90.498772 229.781394 
L 90.609879 231.226715 
L 90.832093 263.710585 
L 90.9432 264.529329 
L 91.27652 250.41799 
L 91.387627 259.823357 
L 91.498734 253.938517 
L 91.720948 282.392598 
L 91.832055 269.444247 
L 91.943162 279.487501 
L 92.054269 274.386872 
L 92.165376 264.002654 
L 92.38759 227.250965 
L 92.609804 217.441825 
L 92.720911 234.776896 
L 92.943125 228.867561 
L 93.054232 220.480901 
L 93.276446 223.290882 
L 93.49866 213.318646 
L 93.609767 222.535968 
L 93.831981 211.330179 
L 93.943088 219.524881 
L 94.054195 242.312139 
L 94.165301 226.127812 
L 94.387515 247.526258 
L 94.609729 222.90859 
L 94.720836 231.543768 
L 94.831943 227.013651 
L 95.054157 168.882072 
L 95.276371 219.205555 
L 95.387478 224.877087 
L 95.498585 223.960797 
L 95.609692 237.306071 
L 95.720799 236.582214 
L 95.831906 239.142552 
L 96.05412 219.123325 
L 96.387441 294.074967 
L 96.498548 285.830411 
L 96.720762 253.404797 
L 96.831869 250.766861 
L 96.942976 254.747533 
L 97.054083 253.173584 
L 97.165189 261.381986 
L 97.276296 283.875531 
L 97.609617 241.101276 
L 97.831831 219.897503 
L 98.054045 248.723824 
L 98.498473 248.723824 
L 98.60958 217.138596 
L 98.720687 233.023905 
L 98.831794 223.829114 
L 99.054008 203.462279 
L 99.165115 207.55882 
L 99.609543 255.158682 
L 99.72065 235.302973 
L 99.942864 237.327929 
L 100.053971 235.722749 
L 100.165077 252.733399 
L 100.276184 232.945383 
L 100.387291 234.181344 
L 100.498398 250.828249 
L 100.720612 216.959185 
L 100.942826 152.842654 
L 101.053933 163.050051 
L 101.276147 214.197273 
L 101.387254 187.550805 
L 101.720575 245.529375 
L 102.165003 220.561294 
L 102.27611 240.557319 
L 102.720538 204.514617 
L 102.831645 215.176293 
L 103.053859 203.968857 
L 103.164965 202.206405 
L 103.387179 228.659764 
L 103.498286 208.534364 
L 103.609393 213.012153 
L 103.7205 211.240474 
L 103.831607 215.470077 
L 103.942714 208.983216 
L 104.053821 219.137111 
L 104.164928 214.690389 
L 104.387142 180.344481 
L 104.498249 207.981182 
L 104.609356 196.091103 
L 104.720463 151.1342 
L 104.83157 163.319167 
L 105.053784 220.169886 
L 105.164891 223.732874 
L 105.275998 215.157604 
L 105.387105 235.521277 
L 105.609319 209.498696 
L 105.831533 230.547399 
L 105.94264 229.091824 
L 106.053746 229.57399 
L 106.164853 226.412741 
L 106.387067 202.326012 
L 106.498174 212.301986 
L 106.609281 209.968446 
L 106.720388 214.466126 
L 106.831495 211.042374 
L 106.942602 217.953418 
L 107.053709 213.991435 
L 107.275923 202.72302 
L 107.38703 214.428749 
L 107.498137 211.348867 
L 107.609244 215.012016 
L 107.720351 209.846304 
L 107.831458 210.228762 
L 107.942565 206.340088 
L 108.053672 209.850042 
L 108.275886 192.118299 
L 108.386993 207.293919 
L 108.4981 195.894512 
L 108.720314 201.085089 
L 108.831421 198.646762 
L 108.942528 211.73759 
L 109.164741 198.524751 
L 109.386955 157.884183 
L 109.609169 203.355348 
L 109.720276 198.386455 
L 109.94249 128.659291 
L 110.053597 142.675581 
L 110.275811 197.521769 
L 110.386918 198.905998 
L 110.498025 205.282444 
L 110.609132 189.187926 
L 110.720239 210.309781 
L 110.831346 208.403544 
L 111.05356 168.101688 
L 111.164667 149.490438 
L 111.275774 174.924787 
L 111.386881 139.027726 
L 111.609095 179.262895 
L 111.831309 190.460372 
L 111.942416 186.316364 
L 112.164629 221.79637 
L 112.609057 221.79637 
L 113.053485 172.307286 
L 113.164592 176.090956 
L 113.275699 159.813186 
L 113.497913 197.985829 
L 113.60902 168.832304 
L 113.942341 203.817362 
L 114.053448 204.012688 
L 114.164555 191.075475 
L 114.275662 208.096304 
L 114.386769 170.049441 
L 114.497876 189.004778 
L 114.72009 182.793239 
L 115.831159 182.793239 
L 115.942266 185.165072 
L 116.053373 190.035056 
L 116.16448 185.549704 
L 116.608908 208.104527 
L 116.720015 188.455333 
L 116.831122 194.509799 
L 116.942229 190.354095 
L 117.053336 163.453725 
L 117.27555 185.442731 
L 117.608871 196.816613 
L 117.719978 190.615735 
L 117.831085 199.373213 
L 118.053298 189.673725 
L 118.164405 188.288626 
L 118.386619 202.064371 
L 118.608833 199.993566 
L 118.71994 213.434295 
L 119.053261 190.490235 
L 119.164368 171.306099 
L 119.275475 173.702553 
L 119.386582 182.074386 
L 119.497689 201.836897 
L 119.83101 189.154313 
L 120.053224 151.158169 
L 120.164331 152.767584 
L 120.386545 185.796952 
L 120.497652 180.923828 
L 120.608759 191.553903 
L 120.719866 179.673155 
L 120.830973 183.764495 
L 121.053186 133.599772 
L 121.164293 175.854994 
L 121.386507 165.442192 
L 121.719828 191.582001 
L 121.942042 206.915958 
L 122.053149 200.262702 
L 122.164256 185.882714 
L 122.275363 190.301767 
L 122.38647 183.347739 
L 122.719791 145.852335 
L 122.830898 140.039733 
L 122.942005 170.252219 
L 123.053112 168.499647 
L 123.49754 198.706984 
L 123.608647 190.82131 
L 123.830861 161.942011 
L 124.053074 207.4997 
L 124.164181 206.897243 
L 124.497502 189.749003 
L 124.608609 188.896384 
L 124.830823 194.368406 
L 124.94193 194.368406 
L 125.164144 239.197482 
L 125.275251 239.197482 
L 125.386358 229.299043 
L 125.497465 231.935826 
L 125.608572 229.742187 
L 125.830786 212.980115 
L 125.941893 225.878273 
L 126.164107 214.783832 
L 126.275214 218.962603 
L 126.386321 218.774649 
L 126.497428 221.500515 
L 126.608535 220.321851 
L 126.830749 245.795694 
L 126.941856 241.716587 
L 127.164069 227.617176 
L 127.275176 218.237485 
L 127.49739 224.935479 
L 127.608497 224.4421 
L 127.719604 224.640199 
L 127.941818 235.382406 
L 128.275139 184.710138 
L 128.497353 235.535653 
L 128.60846 233.357562 
L 128.830674 248.722329 
L 128.941781 248.236425 
L 129.052888 240.361049 
L 129.497316 252.908575 
L 129.941744 241.208466 
L 130.05285 245.52284 
L 130.163957 239.505111 
L 130.386171 245.029461 
L 130.497278 232.549215 
L 130.608385 255.548764 
L 130.719492 255.543667 
L 130.830599 255.360519 
L 130.941706 252.306802 
L 131.052813 245.563955 
L 131.275027 226.293134 
L 131.386134 218.249784 
L 131.497241 231.423555 
L 131.608348 223.996344 
L 131.719455 224.856987 
L 131.830562 228.67482 
L 131.941669 219.646606 
L 132.163883 241.321382 
L 132.386097 214.970718 
L 132.608311 230.180363 
L 132.719418 234.674409 
L 132.830525 224.427529 
L 133.052738 230.851595 
L 133.274952 273.878752 
L 133.386059 272.854982 
L 133.608273 255.603471 
L 133.71938 224.37273 
L 133.941594 247.548684 
L 134.163808 247.548684 
L 134.274915 206.522251 
L 134.497129 235.515362 
L 134.608236 233.876105 
L 134.719343 223.182489 
L 134.941557 237.806691 
L 135.163771 224.329969 
L 135.274878 227.98227 
L 135.497092 219.538212 
L 135.608199 234.836919 
L 135.830413 217.364427 
L 135.94152 209.317059 
L 136.385947 251.136896 
L 136.608161 246.918238 
L 136.830375 229.566854 
L 136.941482 235.638387 
L 137.052589 253.083437 
L 137.38591 209.468794 
L 137.497017 202.734122 
L 137.608124 204.838308 
L 137.830338 256.810114 
L 137.941445 261.553921 
L 138.163659 241.645074 
L 138.274766 248.049539 
L 138.385873 238.690445 
L 138.608087 206.209821 
L 138.830301 247.728095 
L 138.941408 240.428328 
L 139.052514 224.357007 
L 139.163621 224.516855 
L 139.274728 239.819603 
L 139.719156 211.601868 
L 139.830263 209.061383 
L 139.94137 218.139782 
L 140.163584 258.137645 
L 140.385798 243.609807 
L 140.496905 211.161981 
L 140.830226 258.010562 
L 141.163547 222.536074 
L 141.274654 208.270947 
L 141.385761 216.039065 
L 141.496868 197.758518 
L 141.719082 235.039503 
L 141.941296 220.214205 
L 142.163509 248.825553 
L 142.274616 240.686231 
L 142.385723 223.555086 
L 142.49683 225.67276 
L 142.607937 231.512891 
L 142.830151 214.849941 
L 143.052365 234.554547 
L 143.274579 221.212595 
L 143.496793 213.988247 
L 143.6079 209.26601 
L 143.941221 157.156521 
L 144.052328 205.018974 
L 144.274542 181.302906 
L 144.385649 181.808614 
L 144.607863 208.538181 
L 144.830077 186.947163 
L 145.163397 229.819486 
L 145.274504 207.069342 
L 145.385611 210.958899 
L 145.718932 168.216401 
L 145.941146 205.219007 
L 146.16336 188.123016 
L 146.274467 211.230097 
L 146.385574 208.358692 
L 146.607788 216.448555 
L 146.718895 216.448555 
L 146.830002 234.830036 
L 147.052216 199.957776 
L 147.163323 193.942306 
L 147.27443 212.128007 
L 147.496644 195.345939 
L 147.941071 218.06555 
L 148.274392 218.06555 
L 148.385499 181.577929 
L 148.496606 182.134849 
L 148.607713 210.563136 
L 148.71882 205.915798 
L 148.829927 207.037276 
L 148.941034 204.42052 
L 149.052141 198.64062 
L 149.163248 201.256861 
L 149.274355 197.089466 
L 149.496569 142.16741 
L 149.607676 158.304166 
L 149.718783 158.304166 
L 149.82989 186.991059 
L 150.052104 175.014493 
L 150.163211 144.155877 
L 150.385425 220.194362 
L 150.607639 167.894136 
L 150.718746 214.817472 
L 150.940959 192.056247 
L 151.052066 191.789379 
L 151.27428 176.621712 
L 151.385387 181.178698 
L 151.496494 193.063942 
L 151.718708 175.216329 
L 151.940922 192.746236 
L 152.163136 187.42746 
L 152.274243 198.577184 
L 152.496457 185.891257 
L 152.607564 209.31181 
L 152.718671 206.582183 
L 152.940885 184.262281 
L 153.163099 215.80423 
L 153.385313 195.803691 
L 153.49642 201.088826 
L 153.718634 185.367872 
L 154.051954 164.077924 
L 154.274168 192.659022 
L 154.385275 182.217079 
L 154.718596 198.905998 
L 154.829703 196.461529 
L 154.94081 196.523947 
L 155.051917 176.617974 
L 155.274131 189.535 
L 155.385238 193.097581 
L 155.607452 204.571074 
L 155.829666 180.523892 
L 155.940773 187.315329 
L 156.05188 179.028804 
L 156.385201 192.832203 
L 156.496308 220.769523 
L 156.718522 194.446898 
L 157.051842 186.005258 
L 157.274056 186.005258 
L 157.385163 209.000854 
L 157.49627 204.416756 
L 157.607377 205.47691 
L 157.829591 195.669551 
L 157.940698 207.996133 
L 158.274019 174.536064 
L 158.385126 169.78916 
L 158.60734 203.016601 
L 158.718447 201.671911 
L 158.829554 193.953232 
L 158.940661 194.749654 
L 159.051768 207.162621 
L 159.385089 195.833592 
L 159.496196 200.225413 
L 159.71841 187.664562 
L 159.940623 199.339574 
L 160.05173 214.851111 
L 160.162837 202.423192 
L 160.385051 212.5412 
L 160.496158 203.940707 
L 160.607265 205.20653 
L 160.718372 200.442122 
L 160.829479 203.588708 
L 161.051693 191.913191 
L 161.1628 208.268986 
L 161.273907 201.866272 
L 161.496121 210.481716 
L 161.607228 207.947542 
L 161.718335 215.034259 
L 161.829442 206.482356 
L 162.162763 126.895087 
L 162.384977 186.971458 
L 162.496084 180.78927 
L 162.718298 198.498587 
L 162.940511 186.037839 
L 163.162725 210.021977 
L 163.607153 179.451166 
L 163.940474 147.213332 
L 164.273795 215.90141 
L 164.384902 214.081141 
L 164.496009 216.69446 
L 164.940437 176.063616 
L 165.273758 202.972637 
L 165.384865 189.884501 
L 165.495972 195.000081 
L 165.607079 209.509909 
L 165.940399 161.349389 
L 166.051506 166.174546 
L 166.27372 225.58958 
L 166.384827 245.717568 
L 166.829255 211.285326 
L 167.051469 200.041585 
L 167.162576 203.708968 
L 167.273683 199.945084 
L 167.38479 213.613926 
L 167.607004 190.301767 
L 167.829218 221.171595 
L 168.051432 210.111682 
L 168.273646 222.292911 
L 168.49586 202.906749 
L 168.718074 195.093681 
L 168.829181 195.250508 
L 169.051394 226.400665 
L 169.273608 193.731164 
L 169.495822 229.727236 
L 169.606929 233.873052 
L 169.829143 213.258058 
L 170.162464 258.010327 
L 170.273571 255.685701 
L 170.384678 259.146829 
L 170.606892 223.055186 
L 170.829106 272.789507 
L 171.05132 228.257972 
L 171.162427 231.719441 
L 171.273534 231.121406 
L 171.495748 255.521241 
L 171.606855 248.976493 
L 171.717962 251.231619 
L 171.940175 260.993263 
L 172.051282 260.381558 
L 172.162389 263.901209 
L 172.273496 259.101977 
L 172.49571 264.345357 
L 172.717924 252.887717 
L 172.829031 253.591558 
L 173.051245 239.613505 
L 173.162352 247.365196 
L 173.273459 266.749351 
L 173.384566 265.706528 
L 173.60678 280.780752 
L 173.940101 260.241981 
L 174.162315 236.817691 
L 174.273422 239.105175 
L 174.495636 237.303594 
L 174.940063 206.557111 
L 175.162277 249.165403 
L 175.384491 240.947871 
L 175.606705 228.414549 
L 176.16224 228.414549 
L 176.495561 260.630704 
L 176.717775 248.199048 
L 176.828882 236.608378 
L 176.939989 242.181319 
L 177.051096 241.037688 
L 177.27331 204.381758 
L 177.384417 209.375351 
L 177.717738 267.773487 
L 178.162165 239.394287 
L 178.273272 235.722539 
L 178.384379 239.217307 
L 178.495486 237.142872 
L 178.7177 224.18115 
L 178.939914 205.682484 
L 179.162128 246.804878 
L 179.384342 236.215918 
L 179.495449 245.717939 
L 179.606556 242.683898 
L 179.939877 224.513117 
L 180.050984 224.963656 
L 180.162091 215.479048 
L 180.273198 225.664674 
L 180.384305 220.289493 
L 180.717626 227.747824 
L 180.939839 221.784581 
L 181.050946 235.296439 
L 181.27316 223.495751 
L 181.384267 228.123754 
L 181.495374 242.177581 
L 181.828695 202.352176 
L 182.050909 202.075584 
L 182.162016 202.628767 
L 182.273123 206.832596 
L 182.38423 223.36286 
L 182.717551 203.652693 
L 182.828658 210.111261 
L 182.939765 209.914758 
L 183.050872 220.409388 
L 183.273086 178.737837 
L 183.384193 227.074352 
L 183.606407 219.93116 
L 183.717514 226.755749 
L 183.82862 241.866714 
L 184.050834 197.481927 
L 184.161941 201.62021 
L 184.273048 197.851961 
L 184.384155 198.087437 
L 184.606369 164.77314 
L 184.828583 219.875297 
L 184.93969 211.337654 
L 185.161904 226.631045 
L 185.384118 170.977755 
L 185.495225 188.339464 
L 185.717439 161.371815 
L 185.828546 150.005409 
L 186.05076 183.760432 
L 186.161867 174.109964 
L 186.272974 185.010306 
L 186.384081 213.480126 
L 186.495188 212.72359 
L 186.606295 219.919459 
L 186.828508 197.900551 
L 186.939615 201.832633 
L 187.050722 201.31309 
L 187.161829 212.62084 
L 187.272936 206.385175 
L 187.384043 209.786501 
L 187.717364 174.004785 
L 187.939578 213.217727 
L 188.050685 209.969649 
L 188.161792 210.156535 
L 188.272899 216.353674 
L 188.384006 204.811595 
L 188.495113 207.207474 
L 188.717327 192.805255 
L 188.828434 191.284787 
L 189.050648 158.655773 
L 189.272862 196.540021 
L 189.495076 205.734812 
L 189.606183 203.152153 
L 189.71729 184.216759 
L 189.828396 185.898733 
L 189.939503 193.971892 
L 190.05061 186.627588 
L 190.161717 189.520583 
L 190.495038 175.399478 
L 190.606145 215.207535 
L 190.828359 192.480858 
L 190.939466 202.123312 
L 191.16168 184.556891 
L 191.272787 184.634747 
L 191.383894 174.022542 
L 191.606108 199.507664 
L 191.828322 147.097463 
L 191.939429 156.875601 
L 192.050536 151.765875 
L 192.161643 152.79001 
L 192.494964 173.688621 
L 192.606071 166.271746 
L 192.717178 150.721561 
L 192.828284 200.322594 
L 192.939391 199.564516 
L 193.161605 189.882208 
L 193.272712 190.675539 
L 193.494926 210.30836 
L 193.71714 187.775068 
L 193.939354 207.588828 
L 194.161568 188.631006 
L 194.383782 195.677079 
L 194.605996 219.291522 
L 194.717103 179.479026 
L 194.82821 182.71849 
L 194.939317 182.590851 
L 195.050424 199.810526 
L 195.161531 197.227762 
L 195.383745 201.077613 
L 195.494852 189.727502 
L 195.717066 196.090705 
L 195.828172 188.751361 
L 196.161493 202.942258 
L 196.2726 202.773519 
L 196.494814 176.794622 
L 196.717028 188.501617 
L 196.828135 180.796587 
L 196.939242 195.312912 
L 197.161456 170.233562 
L 197.272563 177.499904 
L 197.38367 163.94842 
L 197.605884 174.812656 
L 197.716991 164.844157 
L 197.828098 175.82184 
L 197.939205 166.520575 
L 198.050312 168.277413 
L 198.161419 175.136138 
L 198.272526 190.23075 
L 198.49474 159.991943 
L 198.716954 177.907906 
L 199.050274 151.05197 
L 199.161381 177.843668 
L 199.272488 171.205756 
L 199.383595 151.891273 
L 199.494702 163.341593 
L 199.605809 161.401717 
L 199.716916 163.801333 
L 199.93913 138.54556 
L 200.050237 181.073336 
L 200.161344 181.00232 
L 200.383558 155.752483 
L 200.605772 187.487264 
L 200.716879 185.741749 
L 200.939093 170.667524 
L 201.0502 178.023357 
L 201.161307 175.886714 
L 201.272414 180.132346 
L 201.383521 176.419875 
L 201.605735 180.508732 
L 201.827948 163.166952 
L 201.939055 163.166952 
L 202.050162 205.52817 
L 202.161269 182.349258 
L 202.272376 184.749937 
L 202.49459 164.783334 
L 202.716804 189.819601 
L 202.827911 187.6435 
L 202.939018 148.343492 
L 203.050125 153.309553 
L 203.161232 151.881744 
L 203.494553 204.333167 
L 203.60566 209.515733 
L 203.827874 225.94559 
L 204.050088 188.967401 
L 204.272302 171.587003 
L 204.383409 178.359752 
L 204.494516 221.840647 
L 204.605623 212.518774 
L 204.71673 229.013332 
L 205.161157 219.2313 
L 205.272264 206.21324 
L 205.383371 209.03636 
L 205.605585 216.144362 
L 205.716692 209.087863 
L 205.827799 215.239834 
L 206.050013 194.402046 
L 206.272227 221.157392 
L 206.383334 218.413158 
L 206.605548 195.676608 
L 206.716655 197.721141 
L 206.938869 216.024494 
L 207.049976 215.226556 
L 207.27219 184.631646 
L 207.494404 211.422897 
L 207.716618 221.331796 
L 207.827724 220.139985 
L 207.938831 221.40681 
L 208.161045 202.666144 
L 208.272152 206.200825 
L 208.383259 190.854949 
L 208.605473 227.888278 
L 208.71658 228.714314 
L 208.938794 210.700517 
L 209.049901 212.399167 
L 209.161008 218.084239 
L 209.272115 245.395758 
L 209.383222 208.526889 
L 209.605436 233.402225 
L 209.82765 280.9639 
L 209.938757 269.215332 
L 210.160971 295.488 
L 210.272078 288.550269 
L 210.605399 254.953108 
L 210.716506 251.890294 
L 211.160933 220.99966 
L 211.27204 239.369079 
L 211.383147 236.862965 
L 211.494254 247.783926 
L 211.716468 229.398317 
L 211.827575 230.112221 
L 212.049789 225.073775 
L 212.272003 235.681055 
L 212.38311 238.694209 
L 212.494217 228.572281 
L 212.716431 243.391846 
L 212.827538 219.544808 
L 213.049752 225.787679 
L 213.160859 230.717411 
L 213.271966 226.299825 
L 213.383073 228.224673 
L 213.49418 225.988662 
L 213.605287 228.250837 
L 213.8275 226.972537 
L 213.938607 227.787359 
L 214.049714 223.811915 
L 214.383035 202.163335 
L 214.605249 217.777746 
L 214.716356 220.601345 
L 214.827463 219.728835 
L 214.93857 223.467589 
L 215.049677 222.225632 
L 215.160784 231.016692 
L 215.271891 217.788959 
L 215.382998 218.581355 
L 215.494105 207.186956 
L 215.716319 227.847163 
L 215.938533 193.191427 
L 216.382961 253.361126 
L 216.494068 246.531585 
L 216.605175 251.96133 
L 216.716282 249.365216 
L 216.827388 239.386759 
L 217.160709 172.549947 
L 217.382923 196.106446 
L 217.49403 191.763643 
L 217.605137 170.72359 
L 217.716244 172.541175 
L 218.160672 216.604602 
L 218.271779 211.83569 
L 218.493993 215.617997 
L 219.160635 215.617997 
L 219.382849 196.338184 
L 219.493956 202.292372 
L 219.605063 203.961329 
L 219.827276 173.586684 
L 220.04949 196.04161 
L 220.271704 172.574574 
L 220.382811 192.806261 
L 220.493918 187.401296 
L 220.605025 175.184559 
L 220.827239 202.314799 
L 220.938346 191.718363 
L 221.049453 209.559947 
L 221.16056 203.205834 
L 221.271667 203.503393 
L 221.382774 195.989733 
L 221.604988 220.372291 
L 221.716095 218.828568 
L 221.827202 219.239194 
L 222.160523 209.326761 
L 222.382737 185.801552 
L 222.716057 237.541775 
L 222.827164 241.381447 
L 223.049378 208.323557 
L 223.160485 217.011513 
L 223.382699 183.787184 
L 223.493806 156.808059 
L 223.604913 174.737901 
L 223.71602 212.217038 
L 223.827127 201.797029 
L 223.938234 208.982891 
L 224.160448 194.597759 
L 224.271555 199.500295 
L 224.382662 198.079962 
L 224.493769 186.27998 
L 224.82709 212.219756 
L 224.938197 186.23139 
L 225.160411 214.256814 
L 225.382625 199.477869 
L 225.493732 218.026866 
L 225.604839 214.929603 
L 225.827052 188.354415 
L 226.049266 121.28443 
L 226.160373 127.410892 
L 226.382587 201.003017 
L 226.493694 188.933761 
L 226.827015 203.439852 
L 227.049229 191.344591 
L 227.160336 193.243352 
L 227.604764 104.487941 
L 227.938085 201.772829 
L 228.049192 192.982156 
L 228.160299 193.762895 
L 228.271406 186.104307 
L 228.382513 187.849823 
L 228.49362 195.153327 
L 228.604727 193.318107 
L 228.715833 187.599395 
L 228.82694 167.811906 
L 229.049154 190.625001 
L 229.271368 178.221456 
L 229.382475 214.974377 
L 229.604689 195.022507 
L 229.715796 204.307003 
L 229.93801 185.767913 
L 230.049117 193.03404 
L 230.271331 185.382927 
L 230.382438 155.208315 
L 230.604652 185.629617 
L 230.715759 176.172768 
L 230.826866 188.662777 
L 230.937973 163.745267 
L 231.04908 170.480638 
L 231.271294 197.803371 
L 231.493508 158.968461 
L 231.604615 190.862425 
L 231.715721 174.633245 
L 231.826828 200.479578 
L 231.937935 194.803864 
L 232.160149 173.373634 
L 232.271256 186.300681 
L 232.604577 155.064732 
L 232.715684 142.405367 
L 232.826791 150.958684 
L 232.937898 188.716974 
L 233.160112 177.683225 
L 233.271219 186.766952 
L 233.382326 170.147858 
L 233.493433 177.746766 
L 233.60454 171.116051 
L 233.715647 174.906099 
L 233.826754 164.791829 
L 233.937861 182.196596 
L 234.048968 158.332082 
L 234.271182 169.318207 
L 234.493396 153.608571 
L 234.604503 151.410792 
L 234.715609 152.681616 
L 234.826716 150.618395 
L 234.937823 146.28264 
L 235.04893 153.4628 
L 235.271144 133.155768 
L 235.382251 132.124157 
L 235.493358 130.042927 
L 235.604465 125.373835 
L 235.826679 156.135269 
L 235.937786 164.065921 
L 236.048893 158.579738 
L 236.271107 167.202658 
L 236.382214 160.041187 
L 236.493321 173.092023 
L 236.937749 139.185337 
L 237.048856 161.334438 
L 237.159963 153.959916 
L 237.27107 179.286706 
L 237.493284 144.798765 
L 237.826604 157.406931 
L 237.937711 152.02004 
L 238.271032 167.602594 
L 238.493246 142.187941 
L 238.604353 135.970271 
L 238.71546 146.66015 
L 238.826567 143.419546 
L 239.048781 152.976896 
L 239.270995 144.873519 
L 239.493209 153.223586 
L 239.604316 133.794918 
L 239.715423 137.106538 
L 239.82653 136.076391 
L 239.937637 164.638266 
L 240.048744 146.043086 
L 240.493172 162.377262 
L 240.604279 171.785103 
L 240.826492 147.394062 
L 240.937599 153.485226 
L 241.048706 154.535525 
L 241.493134 133.445454 
L 241.715348 123.370417 
L 241.826455 139.640712 
L 241.937562 138.325034 
L 242.159776 128.950833 
L 242.270883 134.617216 
L 242.38199 114.455955 
L 242.493097 138.302608 
L 242.604204 135.136759 
L 242.937525 157.244327 
L 243.381953 120.787653 
L 243.49306 129.698377 
L 243.715273 175.653355 
L 243.82638 183.450008 
L 243.937487 172.076645 
L 244.048594 174.304326 
L 244.159701 168.541096 
L 244.381915 131.320547 
L 244.493022 159.4236 
L 244.604129 158.598427 
L 244.715236 152.057417 
L 244.826343 164.98619 
L 245.048557 138.773561 
L 245.270771 152.405025 
L 245.381878 164.474698 
L 245.492985 161.41293 
L 245.604092 145.187488 
L 245.715199 149.426062 
L 245.826306 143.870379 
L 246.04852 174.506163 
L 246.159627 167.971321 
L 246.270734 147.374054 
L 246.715161 186.491685 
L 246.826268 182.396489 
L 246.937375 173.597897 
L 247.048482 155.585825 
L 247.270696 175.773799 
L 247.381803 147.966417 
L 247.604017 174.801443 
L 247.826231 162.691764 
L 248.048445 171.65802 
L 248.159552 155.561345 
L 248.492873 196.401726 
L 248.715087 194.626309 
L 248.937301 155.693008 
L 249.159515 186.747195 
L 249.270622 185.491321 
L 249.381729 181.60783 
L 249.492836 185.059988 
L 249.603943 196.670842 
L 249.715049 167.663877 
L 249.937263 177.323742 
L 250.270584 177.323742 
L 250.492798 116.351513 
L 251.603868 116.351513 
L 251.714975 239.805093 
L 251.937189 218.418765 
L 252.159403 195.654974 
L 252.381617 219.961108 
L 252.603831 213.64009 
L 252.826044 256.750951 
L 252.937151 245.493618 
L 253.159365 258.461436 
L 253.270472 255.461437 
L 253.492686 266.62768 
L 253.603793 263.35924 
L 254.048221 221.173464 
L 254.270435 211.026759 
L 254.492649 227.764933 
L 254.603756 225.930338 
L 254.714863 227.067848 
L 254.82597 230.966852 
L 254.937077 230.154016 
L 255.048184 220.779135 
L 255.381505 223.238554 
L 255.492612 237.053167 
L 255.603718 222.289059 
L 255.825932 236.34655 
L 255.937039 210.67412 
L 256.048146 232.066055 
L 256.159253 219.674638 
L 256.27036 192.63499 
L 256.492574 215.336363 
L 256.603681 218.974584 
L 256.714788 200.056327 
L 256.825895 211.638541 
L 257.048109 192.99131 
L 257.159216 209.384696 
L 257.270323 203.9351 
L 257.492537 183.91961 
L 257.825858 219.52513 
L 258.159179 188.309562 
L 258.381393 168.209974 
L 258.603606 219.624179 
L 258.714713 210.02156 
L 258.82582 210.420044 
L 258.936927 207.029932 
L 259.048034 216.989087 
L 259.159141 210.910486 
L 259.270248 212.578577 
L 259.381355 220.424051 
L 259.603569 201.84008 
L 259.825783 223.378719 
L 259.93689 223.076759 
L 260.047997 219.124614 
L 260.159104 221.455662 
L 260.492425 200.5174 
L 260.603532 199.208167 
L 260.825746 220.390412 
L 260.936853 219.751262 
L 261.159067 196.085888 
L 261.270174 191.375807 
L 261.381281 168.046992 
L 261.603494 184.525121 
L 261.825708 206.715964 
L 261.936815 198.61555 
L 262.047922 205.179761 
L 262.159029 193.98529 
L 262.270136 195.412415 
L 262.381243 204.637791 
L 262.49235 201.404664 
L 262.603457 211.823558 
L 262.714564 174.698935 
L 262.825671 212.791627 
L 262.936778 195.468676 
L 263.047885 196.09897 
L 263.158992 209.302466 
L 263.270099 206.125548 
L 263.381206 216.789776 
L 263.492313 204.095822 
L 263.825634 233.0482 
L 263.936741 222.649864 
L 264.047848 227.849032 
L 264.603382 190.260652 
L 264.825596 219.181259 
L 265.04781 167.357813 
L 265.270024 213.778024 
L 265.381131 217.889438 
L 265.492238 215.411292 
L 265.603345 223.035911 
L 265.714452 211.80818 
L 265.936666 215.056792 
L 266.047773 214.479884 
L 266.15888 201.527989 
L 266.381094 219.153835 
L 266.603308 183.768233 
L 266.714415 182.821594 
L 266.936629 214.820788 
L 267.047736 227.42667 
L 267.26995 211.073595 
L 267.381057 209.814386 
L 267.60327 230.303913 
L 267.936591 230.303913 
L 268.158805 195.433077 
L 268.381019 213.865307 
L 268.492126 211.352605 
L 268.603233 212.445525 
L 268.71434 208.148205 
L 268.825447 210.731903 
L 268.936554 199.963239 
L 269.047661 200.195832 
L 269.269875 221.015009 
L 269.380982 219.916565 
L 269.492089 208.901902 
L 269.82541 222.909114 
L 270.047624 210.020482 
L 270.158731 181.213554 
L 270.380945 200.027314 
L 270.492052 193.448574 
L 270.603158 193.954553 
L 270.714265 195.402971 
L 270.825372 191.309141 
L 270.936479 162.180008 
L 271.158693 185.748022 
L 271.2698 206.059994 
L 271.380907 172.315859 
L 271.714228 212.279402 
L 271.825335 195.238135 
L 272.047549 203.654376 
L 272.158656 192.736891 
L 272.38087 197.775338 
L 272.491977 208.052199 
L 272.714191 182.727526 
L 272.825298 166.159834 
L 272.936405 177.481987 
L 273.158619 170.717984 
L 273.269726 176.007945 
L 273.380833 163.339809 
L 273.603046 181.622807 
L 273.714153 171.356911 
L 273.82526 178.982082 
L 274.158581 162.971346 
L 274.380795 187.231723 
L 274.603009 159.909856 
L 274.714116 154.953616 
L 274.825223 161.203604 
L 274.93633 179.620447 
L 275.047437 159.309059 
L 275.269651 168.025442 
L 275.380758 158.325086 
L 275.491865 124.389816 
L 275.602972 143.724199 
L 275.714079 188.640157 
L 276.0474 171.897884 
L 276.158507 183.225939 
L 276.269614 175.619563 
L 276.491828 140.674081 
L 276.714041 167.346316 
L 276.825148 174.091354 
L 276.936255 155.595757 
L 277.047362 159.832976 
L 277.158469 155.122136 
L 277.380683 159.521644 
L 277.49179 171.930887 
L 277.602897 160.813789 
L 277.714004 174.939712 
L 277.825111 168.133167 
L 278.047325 170.198043 
L 278.158432 155.137406 
L 278.380646 168.030114 
L 278.491753 134.02775 
L 278.60286 139.667111 
L 278.825074 168.395811 
L 278.936181 165.596313 
L 279.158395 182.161039 
L 279.380609 167.404033 
L 279.491716 164.337507 
L 279.602822 174.923167 
L 279.713929 172.558568 
L 279.936143 125.539818 
L 280.158357 153.974203 
L 280.380571 164.346884 
L 280.713892 182.247964 
L 280.936106 152.328146 
L 281.15832 109.355328 
L 281.269427 118.630061 
L 281.491641 179.066286 
L 281.602748 188.042884 
L 281.713855 177.250702 
L 281.824962 181.149228 
L 281.936069 189.872758 
L 282.047176 176.089843 
L 282.158283 179.732495 
L 282.26939 172.428045 
L 282.491604 119.907518 
L 282.60271 130.805465 
L 282.713817 189.995515 
L 282.824924 178.030953 
L 282.936031 148.189396 
L 283.158245 182.623515 
L 283.269352 178.885975 
L 283.380459 187.809725 
L 283.491566 186.340434 
L 283.602673 190.951555 
L 283.824887 181.168866 
L 283.935994 191.921521 
L 284.047101 185.269514 
L 284.158208 154.775101 
L 284.269315 161.028913 
L 284.380422 176.122289 
L 284.491529 165.066119 
L 284.602636 172.174801 
L 284.713743 170.890193 
L 284.82485 177.824862 
L 285.047064 143.954092 
L 285.158171 151.476427 
L 285.380385 177.051708 
L 285.491492 174.173585 
L 285.602598 178.179051 
L 285.713705 176.499169 
L 285.935919 172.503951 
L 286.158133 182.296178 
L 286.26924 184.302243 
L 286.380347 182.705672 
L 286.491454 176.211615 
L 286.824775 183.134022 
L 287.046989 158.320262 
L 287.38031 213.507427 
L 287.491417 210.906139 
L 287.602524 214.739786 
L 287.824738 204.958684 
L 287.935845 208.246517 
L 288.158059 236.071914 
L 288.269166 232.922153 
L 288.49138 218.103902 
L 288.602486 239.277858 
L 288.713593 221.762063 
L 288.8247 227.579132 
L 289.046914 208.459362 
L 289.269128 193.256777 
L 289.380235 173.715359 
L 289.824663 258.15772 
L 290.157984 250.229308 
L 290.380198 255.640227 
L 290.491305 248.250496 
L 290.602412 224.166489 
L 290.824626 228.338315 
L 290.935733 237.510192 
L 291.157947 202.963293 
L 291.269054 207.216248 
L 291.380161 197.547343 
L 291.491268 209.838113 
L 291.602374 239.050391 
L 291.713481 232.299415 
L 292.157909 255.708088 
L 292.380123 234.658036 
L 292.602337 251.6726 
L 292.824551 213.907317 
L 293.046765 255.554643 
L 293.157872 263.384379 
L 293.268979 261.834727 
L 293.380086 284.627405 
L 293.6023 265.541674 
L 293.713407 275.297938 
L 293.824514 269.045132 
L 293.935621 275.937458 
L 294.268942 236.02014 
L 294.380049 238.54133 
L 294.602262 252.554239 
L 294.713369 250.300489 
L 295.268904 214.651038 
L 295.380011 238.296178 
L 295.602225 217.487974 
L 295.824439 203.07582 
L 296.046653 226.938256 
L 296.15776 211.63275 
L 296.268867 213.767671 
L 296.491081 232.332645 
L 296.602188 224.369531 
L 296.713295 228.676129 
L 296.824402 215.552882 
L 296.935509 217.523876 
L 297.046616 209.263 
L 297.26883 242.15851 
L 297.491043 252.716518 
L 297.60215 246.510666 
L 297.824364 227.138784 
L 298.157685 164.656992 
L 298.379899 188.472257 
L 298.491006 194.309941 
L 298.71322 207.806608 
L 298.824327 196.883144 
L 298.935434 161.645531 
L 299.046541 167.880718 
L 299.490969 234.962926 
L 299.602076 226.89324 
L 299.82429 197.315917 
L 299.935397 199.519615 
L 300.046504 182.82002 
L 300.157611 209.997231 
L 300.268718 206.208823 
L 300.379825 215.64569 
L 300.490931 192.782176 
L 300.602038 194.789352 
L 300.824252 201.811623 
L 300.935359 192.465713 
L 301.046466 198.390559 
L 301.26868 236.567398 
L 301.379787 238.701626 
L 301.602001 199.555056 
L 301.824215 226.977709 
L 301.935322 210.555451 
L 302.157536 222.447965 
L 302.37975 191.425984 
L 302.490857 221.667026 
L 302.713071 204.827297 
L 302.935285 224.207501 
L 303.268606 205.052483 
L 303.379713 204.467644 
L 303.601926 231.501803 
L 303.713033 225.950708 
L 303.82414 227.033022 
L 303.935247 222.200348 
L 304.157461 225.599113 
L 304.268568 225.628702 
L 304.490782 178.63723 
L 304.601889 125.247589 
L 304.824103 196.851241 
L 305.046317 220.010474 
L 305.157424 208.759583 
L 305.268531 220.112072 
L 305.379638 217.022847 
L 305.490745 219.600471 
L 305.601852 209.579866 
L 305.824066 154.812158 
L 306.04628 168.352726 
L 306.157387 183.613346 
L 306.268494 183.044676 
L 306.490707 209.491462 
L 306.601814 211.329608 
L 306.712921 223.206301 
L 306.824028 221.614824 
L 306.935135 222.727624 
L 307.046242 214.545298 
L 307.157349 216.45074 
L 307.379563 167.110856 
L 307.601777 215.035737 
L 307.823991 195.488422 
L 307.935098 219.17214 
L 308.157312 204.761362 
L 308.268419 219.813924 
L 308.379526 214.975918 
L 308.490633 220.162761 
L 308.60174 216.929852 
L 308.823954 196.145567 
L 308.935061 196.406483 
L 309.046168 199.483369 
L 309.157275 163.20055 
L 309.490595 224.72133 
L 309.712809 212.388116 
L 309.935023 210.047638 
L 310.04613 212.897803 
L 310.157237 209.084481 
L 310.379451 169.321473 
L 310.601665 203.948984 
L 310.712772 198.883742 
L 310.823879 208.961389 
L 310.934986 202.837859 
L 311.046093 168.879824 
L 311.268307 215.646925 
L 311.823842 215.646925 
L 311.934949 183.591385 
L 312.046056 191.769027 
L 312.157163 210.171486 
L 312.26827 210.159659 
L 312.379377 210.743843 
L 312.60159 182.76154 
L 312.712697 179.311991 
L 312.823804 154.756376 
L 312.934911 186.649593 
L 313.046018 182.915866 
L 313.157125 214.779755 
L 313.379339 194.515378 
L 313.601553 189.790927 
L 313.71266 193.092362 
L 313.934874 231.43298 
L 314.045981 203.424375 
L 314.157088 211.653759 
L 314.268195 210.131798 
L 314.379302 210.91788 
L 314.490409 205.538912 
L 314.712623 217.318006 
L 314.82373 214.536198 
L 315.157051 183.738227 
L 315.268158 188.679831 
L 315.490371 202.606341 
L 315.601478 202.606341 
L 315.712585 198.467129 
L 315.823692 203.40519 
L 315.934799 214.748771 
L 316.045906 206.73926 
L 316.26812 228.823605 
L 316.490334 228.823605 
L 316.601441 168.20403 
L 316.823655 193.876003 
L 318.268046 193.876003 
L 318.379153 212.61745 
L 318.490259 193.086243 
L 318.712473 200.401327 
L 318.934687 184.844696 
L 319.379115 184.844696 
L 319.490222 187.886789 
L 319.712436 199.085162 
L 319.823543 197.77226 
L 319.93465 203.704732 
L 320.045757 194.35758 
L 320.267971 205.847781 
L 320.490185 182.149707 
L 320.712399 188.536566 
L 321.04572 165.468356 
L 321.490147 165.468356 
L 321.601254 166.976196 
L 321.712361 150.870037 
L 321.934575 208.459856 
L 322.045682 204.929235 
L 322.267896 208.82047 
L 322.379003 181.804574 
L 322.49011 185.042249 
L 322.601217 209.549925 
L 322.712324 207.570258 
L 322.823431 202.181421 
L 323.045645 149.643514 
L 323.267859 200.999801 
L 323.378966 200.487683 
L 323.60118 164.198129 
L 323.823394 107.072214 
L 324.045608 212.768621 
L 324.156715 219.426562 
L 324.267822 214.154033 
L 324.378929 199.031825 
L 324.601142 205.567722 
L 324.712249 190.249439 
L 324.823356 194.380035 
L 324.934463 185.277953 
L 325.156677 144.67184 
L 325.378891 219.291522 
L 325.489998 219.291522 
L 325.601105 219.727874 
L 325.823319 183.449638 
L 325.934426 183.495216 
L 326.267747 194.572297 
L 326.489961 170.8263 
L 326.823282 204.620241 
L 327.045496 169.278526 
L 327.26771 185.473619 
L 327.489923 177.459389 
L 327.823244 199.12045 
L 327.934351 199.4417 
L 328.156565 181.145652 
L 328.267672 195.887057 
L 328.600993 167.771671 
L 328.7121 170.523819 
L 328.823207 158.001765 
L 329.045421 185.896795 
L 329.267635 202.45648 
L 329.378742 199.658051 
L 329.600956 229.533177 
L 329.82317 209.170141 
L 330.045384 220.98842 
L 330.267598 229.560138 
L 330.378704 242.041605 
L 330.712025 228.156035 
L 330.823132 223.993249 
L 331.045346 241.220739 
L 331.26756 213.778664 
L 331.823095 263.450392 
L 332.045309 197.208916 
L 332.156416 205.744406 
L 332.267523 243.014373 
L 332.489737 231.825227 
L 332.600844 208.528868 
L 332.711951 210.985674 
L 332.934165 269.993748 
L 333.045272 270.625367 
L 333.267486 248.038455 
L 333.378592 229.551318 
L 333.82302 275.257829 
L 334.156341 245.557625 
L 334.267448 234.383617 
L 334.378555 235.40142 
L 334.600769 217.676827 
L 334.822983 241.752267 
L 334.93409 239.579026 
L 335.156304 276.7068 
L 335.378518 198.939135 
L 335.489625 221.694414 
L 335.600732 213.729143 
L 335.822946 262.291339 
L 336.04516 245.406817 
L 336.156267 264.427202 
L 336.267374 263.301348 
L 336.37848 260.504338 
L 336.600694 231.691697 
L 336.711801 249.740613 
L 336.822908 240.43364 
L 337.156229 262.293502 
L 337.378443 250.827005 
L 337.600657 237.559854 
L 337.711764 230.993289 
L 337.822871 232.130417 
L 337.933978 237.313279 
L 338.045085 234.63016 
L 338.267299 205.433025 
L 338.489513 220.782463 
L 338.822834 189.804677 
L 338.933941 198.228988 
L 339.156155 232.061426 
L 339.600582 202.240672 
L 339.711689 202.79532 
L 339.933903 233.09522 
L 340.04501 233.385727 
L 340.156117 215.10377 
L 340.267224 225.284751 
L 340.489438 262.417818 
L 340.600545 260.250194 
L 340.822759 252.480586 
L 340.933866 257.270968 
L 341.044973 250.879609 
L 341.267187 228.211066 
L 341.378294 231.774961 
L 341.489401 228.396608 
L 341.600508 261.319076 
L 341.711615 257.654125 
L 342.156043 196.753312 
L 342.26715 212.155995 
L 342.60047 171.3187 
L 342.711577 214.465378 
L 342.822684 206.962897 
L 342.933791 242.973715 
L 343.044898 236.893539 
L 343.267112 209.235828 
L 343.378219 194.17336 
L 343.600433 231.132619 
L 343.933754 216.536573 
L 344.044861 219.817925 
L 344.155968 198.911666 
L 344.267075 201.480769 
L 344.378182 215.089101 
L 344.600396 181.537018 
L 344.933717 217.577371 
L 345.044824 197.311462 
L 345.155931 212.655261 
L 345.267038 207.159543 
L 345.378144 245.246679 
L 345.489251 240.714283 
L 345.822572 203.795097 
L 346.044786 232.157919 
L 346.155893 211.194646 
L 346.267 221.396392 
L 346.600321 198.443758 
L 346.711428 201.016725 
L 346.822535 189.012147 
L 347.044749 214.218154 
L 347.155856 219.56951 
L 347.489177 196.580445 
L 347.711391 173.003599 
L 348.82246 173.003599 
L 349.044674 212.694734 
L 349.377995 224.624369 
L 349.489102 224.116453 
L 349.600209 229.293338 
L 349.93353 178.770914 
L 350.044637 179.462379 
L 350.377958 219.495545 
L 350.489065 220.692479 
L 350.600172 209.443443 
L 350.711279 212.796219 
L 350.822386 211.93764 
L 351.0446 226.105919 
L 351.155707 225.014393 
L 351.37792 205.889362 
L 351.489027 196.534924 
L 351.600134 212.253259 
L 351.711241 212.043722 
L 351.822348 205.183679 
L 351.933455 219.387979 
L 352.044562 214.790825 
L 352.155669 194.381851 
L 352.48899 214.747983 
L 353.155632 151.409745 
L 353.266739 117.825916 
L 353.488953 181.729781 
L 353.60006 167.149251 
L 353.711167 176.184761 
L 353.933381 199.49118 
L 354.044488 200.502689 
L 354.155595 181.845419 
L 354.377808 209.243883 
L 354.600022 215.246226 
L 354.711129 211.011629 
L 354.822236 211.491952 
L 355.155557 207.025301 
L 355.266664 196.231788 
L 355.377771 168.443526 
L 355.488878 176.942745 
L 355.599985 205.474232 
L 355.822199 199.86553 
L 355.933306 203.146522 
L 356.15552 230.944238 
L 356.822162 230.944238 
L 357.044376 173.01725 
L 357.155483 191.620749 
L 357.26659 189.268884 
L 357.377696 182.52381 
L 357.488803 195.196943 
L 357.59991 192.483295 
L 357.822124 209.961475 
L 357.933231 199.951836 
L 358.044338 203.203076 
L 358.266552 195.02236 
L 359.710943 195.02236 
L 359.82205 193.671695 
L 359.933157 180.38832 
L 360.155371 188.563915 
L 360.377584 173.252481 
L 360.488691 180.560609 
L 360.710905 199.292601 
L 360.822012 197.304857 
L 361.044226 168.595133 
L 361.26644 199.995515 
L 361.377547 200.263332 
L 361.710868 53.568 
L 361.933082 136.808517 
L 362.044189 137.37067 
L 362.155296 161.949307 
L 362.37751 147.706711 
L 362.488617 160.679073 
L 362.710831 126.405084 
L 363.044152 183.893215 
L 363.155259 184.892187 
L 363.266366 187.927115 
L 363.599686 174.606719 
L 363.710793 180.856889 
L 363.8219 196.929184 
L 363.933007 193.736523 
L 364.488542 130.308421 
L 364.710756 195.567621 
L 364.821863 182.437257 
L 364.93297 185.303345 
L 365.044077 178.862985 
L 365.155184 199.46054 
L 365.377398 191.203803 
L 365.488505 172.588627 
L 365.599612 186.932514 
L 365.710719 173.335653 
L 365.821826 142.674773 
L 366.04404 199.899804 
L 366.155147 206.27573 
L 366.266254 201.417746 
L 366.488467 153.566097 
L 366.599574 143.580928 
L 366.821788 228.192579 
L 366.932895 202.032359 
L 367.044002 215.159803 
L 367.155109 207.996906 
L 367.266216 189.498691 
L 367.48843 105.027387 
L 367.821751 171.518551 
L 368.043965 225.481186 
L 368.377286 200.852224 
L 368.488393 206.858985 
L 368.5995 192.637094 
L 368.821714 233.106135 
L 369.266141 186.852101 
L 369.488355 211.022139 
L 369.599462 209.671145 
L 369.710569 196.00497 
L 369.821676 212.458149 
L 369.932783 202.587538 
L 370.154997 220.461962 
L 370.266104 228.701376 
L 370.377211 220.746271 
L 370.599425 190.053122 
L 370.821639 179.678205 
L 370.932746 183.731255 
L 371.043853 176.279962 
L 371.15496 188.721995 
L 371.377174 228.671432 
L 371.599388 214.929013 
L 371.710495 230.702033 
L 371.821602 224.461109 
L 371.932709 230.753499 
L 372.154923 216.074182 
L 372.266029 203.439852 
L 372.488243 225.764205 
L 372.59935 217.936582 
L 372.710457 221.388696 
L 372.821564 215.686575 
L 372.932671 229.30894 
L 373.043778 226.712787 
L 373.154885 220.985369 
L 373.265992 226.071711 
L 373.377099 203.567951 
L 373.488206 210.973397 
L 373.71042 238.661325 
L 373.821527 245.124409 
L 373.932634 245.032389 
L 374.043741 260.117295 
L 374.154848 251.818839 
L 374.377062 231.134816 
L 374.599276 242.497178 
L 374.710383 229.754221 
L 374.82149 229.998488 
L 374.932597 233.162286 
L 375.154811 227.320144 
L 375.265917 216.038638 
L 375.377024 222.422797 
L 375.488131 204.457858 
L 375.599238 207.747705 
L 375.821452 245.09766 
L 376.043666 212.66638 
L 376.154773 224.803287 
L 376.26588 221.341288 
L 376.376987 228.945912 
L 376.488094 228.776787 
L 376.599201 232.532473 
L 376.821415 212.553407 
L 377.265843 249.450046 
L 377.37695 243.284156 
L 377.488057 226.17747 
L 377.710271 245.507802 
L 377.821378 245.315596 
L 377.932485 251.045233 
L 378.265805 208.616169 
L 378.376912 214.772298 
L 378.488019 211.680807 
L 378.710233 182.806963 
L 378.932447 169.884965 
L 379.154661 179.977948 
L 379.710196 179.977948 
L 379.821303 231.989803 
L 379.93241 219.660537 
L 380.043517 231.444517 
L 380.154624 226.288534 
L 380.265731 230.095586 
L 380.376838 225.949428 
L 380.599052 269.721489 
L 380.710159 271.728157 
L 380.821266 259.848979 
L 380.932373 261.365581 
L 381.04348 270.51489 
L 381.265693 249.864681 
L 381.3768 256.347696 
L 381.487907 255.167751 
L 381.599014 250.658924 
L 381.710121 234.016883 
L 381.932335 259.684433 
L 382.043442 254.94203 
L 382.376763 198.252645 
L 382.598977 236.855686 
L 382.710084 234.745909 
L 382.932298 207.746354 
L 383.043405 209.376526 
L 383.265619 247.532518 
L 383.376726 245.223446 
L 383.487833 250.180253 
L 383.59894 247.197664 
L 383.710047 220.216127 
L 383.821154 225.442465 
L 383.932261 196.244114 
L 384.154475 238.35833 
L 384.376688 248.713499 
L 384.932223 162.704251 
L 385.04333 216.771974 
L 385.154437 208.494269 
L 385.376651 228.996381 
L 385.598865 216.352699 
L 385.821079 201.214815 
L 385.932186 213.169382 
L 386.043293 199.652761 
L 386.376614 230.972541 
L 386.598828 202.068109 
L 386.821042 247.571694 
L 386.932149 234.073105 
L 387.043256 236.860516 
L 387.487683 198.563957 
L 387.59879 203.124711 
L 387.821004 228.533729 
L 387.932111 229.589302 
L 388.043218 206.89142 
L 388.265432 216.332192 
L 388.487646 224.104851 
L 388.598753 221.018826 
L 388.70986 229.646715 
L 388.820967 220.777967 
L 388.932074 228.24883 
L 389.154288 203.184093 
L 389.265395 220.430527 
L 389.376502 205.913897 
L 389.487609 205.925119 
L 389.709823 186.451562 
L 389.932037 221.794395 
L 390.154251 209.603352 
L 390.265357 211.992345 
L 390.376464 222.167387 
L 390.487571 221.9009 
L 390.598678 222.118675 
L 390.709785 218.043803 
L 390.820892 226.653021 
L 391.154213 210.10735 
L 391.26532 210.889443 
L 391.487534 172.281182 
L 391.709748 226.919629 
L 391.820855 220.736151 
L 392.043069 171.511659 
L 392.265283 204.035775 
L 392.37639 204.035775 
L 392.487497 227.167646 
L 392.709711 205.001372 
L 392.820818 205.156354 
L 392.931925 203.597708 
L 393.154139 179.826807 
L 393.265245 176.246501 
L 393.376352 221.054695 
L 393.598566 205.921698 
L 393.709673 191.730756 
L 394.042994 219.069128 
L 394.265208 196.958771 
L 394.376315 153.070339 
L 394.598529 203.863846 
L 395.042957 203.863846 
L 395.154064 195.425003 
L 395.265171 206.481196 
L 395.376278 203.494611 
L 395.487385 195.478465 
L 395.598492 200.283039 
L 395.709599 194.519784 
L 395.820706 166.507181 
L 396.04292 190.298029 
L 396.487347 190.298029 
L 396.598454 206.083026 
L 396.709561 199.360065 
L 396.820668 201.177957 
L 396.931775 206.741836 
L 397.042882 198.348381 
L 397.153989 200.097231 
L 397.376203 182.347899 
L 397.598417 183.705647 
L 397.820631 194.710238 
L 397.931738 198.510529 
L 398.153952 216.361359 
L 398.265059 216.00212 
L 398.376166 219.278553 
L 398.487273 217.002601 
L 398.487273 217.002601 
" style="fill:none;stroke:#ff9999;stroke-linecap:square;stroke-width:0.5;"/>
   </g>
   <g id="patch_3">
    <path d="M 57.6 307.584 
L 57.6 41.472 
" style="fill:none;stroke:#000000;stroke-linecap:square;stroke-linejoin:miter;stroke-width:0.8;"/>
   </g>
   <g id="patch_4">
    <path d="M 414.72 307.584 
L 414.72 41.472 
" style="fill:none;stroke:#000000;stroke-linecap:square;stroke-linejoin:miter;stroke-width:0.8;"/>
   </g>
   <g id="patch_5">
    <path d="M 57.6 307.584 
L 414.72 307.584 
" style="fill:none;stroke:#000000;stroke-linecap:square;stroke-linejoin:miter;stroke-width:0.8;"/>
   </g>
   <g id="patch_6">
    <path d="M 57.6 41.472 
L 414.72 41.472 
" style="fill:none;stroke:#000000;stroke-linecap:square;stroke-linejoin:miter;stroke-width:0.8;"/>
   </g>
   <g id="text_16">
    <!-- Mean Temperature in Fahrenheit from 2010-2018 -->
    <defs>
     <path d="M 54.890625 33.015625 
L 54.890625 0 
L 45.90625 0 
L 45.90625 32.71875 
Q 45.90625 40.484375 42.875 44.328125 
Q 39.84375 48.1875 33.796875 48.1875 
Q 26.515625 48.1875 22.3125 43.546875 
Q 18.109375 38.921875 18.109375 30.90625 
L 18.109375 0 
L 9.078125 0 
L 9.078125 75.984375 
L 18.109375 75.984375 
L 18.109375 46.1875 
Q 21.34375 51.125 25.703125 53.5625 
Q 30.078125 56 35.796875 56 
Q 45.21875 56 50.046875 50.171875 
Q 54.890625 44.34375 54.890625 33.015625 
z
" id="DejaVuSans-68"/>
     <path d="M 37.109375 75.984375 
L 37.109375 68.5 
L 28.515625 68.5 
Q 23.6875 68.5 21.796875 66.546875 
Q 19.921875 64.59375 19.921875 59.515625 
L 19.921875 54.6875 
L 34.71875 54.6875 
L 34.71875 47.703125 
L 19.921875 47.703125 
L 19.921875 0 
L 10.890625 0 
L 10.890625 47.703125 
L 2.296875 47.703125 
L 2.296875 54.6875 
L 10.890625 54.6875 
L 10.890625 58.5 
Q 10.890625 67.625 15.140625 71.796875 
Q 19.390625 75.984375 28.609375 75.984375 
z
" id="DejaVuSans-66"/>
     <path d="M 30.609375 48.390625 
Q 23.390625 48.390625 19.1875 42.75 
Q 14.984375 37.109375 14.984375 27.296875 
Q 14.984375 17.484375 19.15625 11.84375 
Q 23.34375 6.203125 30.609375 6.203125 
Q 37.796875 6.203125 41.984375 11.859375 
Q 46.1875 17.53125 46.1875 27.296875 
Q 46.1875 37.015625 41.984375 42.703125 
Q 37.796875 48.390625 30.609375 48.390625 
z
M 30.609375 56 
Q 42.328125 56 49.015625 48.375 
Q 55.71875 40.765625 55.71875 27.296875 
Q 55.71875 13.875 49.015625 6.21875 
Q 42.328125 -1.421875 30.609375 -1.421875 
Q 18.84375 -1.421875 12.171875 6.21875 
Q 5.515625 13.875 5.515625 27.296875 
Q 5.515625 40.765625 12.171875 48.375 
Q 18.84375 56 30.609375 56 
z
" id="DejaVuSans-6f"/>
     <path d="M 4.890625 31.390625 
L 31.203125 31.390625 
L 31.203125 23.390625 
L 4.890625 23.390625 
z
" id="DejaVuSans-2d"/>
    </defs>
    <g transform="translate(86.475938 35.472)scale(0.12 -0.12)">
     <use xlink:href="#DejaVuSans-4d"/>
     <use x="86.279297" xlink:href="#DejaVuSans-65"/>
     <use x="147.802734" xlink:href="#DejaVuSans-61"/>
     <use x="209.082031" xlink:href="#DejaVuSans-6e"/>
     <use x="272.460938" xlink:href="#DejaVuSans-20"/>
     <use x="304.248047" xlink:href="#DejaVuSans-54"/>
     <use x="365.066406" xlink:href="#DejaVuSans-65"/>
     <use x="426.589844" xlink:href="#DejaVuSans-6d"/>
     <use x="524.001953" xlink:href="#DejaVuSans-70"/>
     <use x="587.478516" xlink:href="#DejaVuSans-65"/>
     <use x="649.001953" xlink:href="#DejaVuSans-72"/>
     <use x="690.115234" xlink:href="#DejaVuSans-61"/>
     <use x="751.394531" xlink:href="#DejaVuSans-74"/>
     <use x="790.603516" xlink:href="#DejaVuSans-75"/>
     <use x="853.982422" xlink:href="#DejaVuSans-72"/>
     <use x="895.064453" xlink:href="#DejaVuSans-65"/>
     <use x="956.587891" xlink:href="#DejaVuSans-20"/>
     <use x="988.375" xlink:href="#DejaVuSans-69"/>
     <use x="1016.158203" xlink:href="#DejaVuSans-6e"/>
     <use x="1079.537109" xlink:href="#DejaVuSans-20"/>
     <use x="1111.324219" xlink:href="#DejaVuSans-46"/>
     <use x="1168.703125" xlink:href="#DejaVuSans-61"/>
     <use x="1229.982422" xlink:href="#DejaVuSans-68"/>
     <use x="1293.361328" xlink:href="#DejaVuSans-72"/>
     <use x="1334.443359" xlink:href="#DejaVuSans-65"/>
     <use x="1395.966797" xlink:href="#DejaVuSans-6e"/>
     <use x="1459.345703" xlink:href="#DejaVuSans-68"/>
     <use x="1522.724609" xlink:href="#DejaVuSans-65"/>
     <use x="1584.248047" xlink:href="#DejaVuSans-69"/>
     <use x="1612.03125" xlink:href="#DejaVuSans-74"/>
     <use x="1651.240234" xlink:href="#DejaVuSans-20"/>
     <use x="1683.027344" xlink:href="#DejaVuSans-66"/>
     <use x="1718.232422" xlink:href="#DejaVuSans-72"/>
     <use x="1759.314453" xlink:href="#DejaVuSans-6f"/>
     <use x="1820.496094" xlink:href="#DejaVuSans-6d"/>
     <use x="1917.908203" xlink:href="#DejaVuSans-20"/>
     <use x="1949.695312" xlink:href="#DejaVuSans-32"/>
     <use x="2013.318359" xlink:href="#DejaVuSans-30"/>
     <use x="2076.941406" xlink:href="#DejaVuSans-31"/>
     <use x="2140.564453" xlink:href="#DejaVuSans-30"/>
     <use x="2204.1875" xlink:href="#DejaVuSans-2d"/>
     <use x="2240.271484" xlink:href="#DejaVuSans-32"/>
     <use x="2303.894531" xlink:href="#DejaVuSans-30"/>
     <use x="2367.517578" xlink:href="#DejaVuSans-31"/>
     <use x="2431.140625" xlink:href="#DejaVuSans-38"/>
    </g>
   </g>
  </g>
 </g>
 <defs>
  <clipPath id="pbfccc0fbe3">
   <rect height="266.112" width="357.12" x="57.6" y="41.472"/>
  </clipPath>
 </defs>
</svg>
