<?xml version="1.0" encoding="utf-8" standalone="no"?>
<!DOCTYPE svg PUBLIC "-//W3C//DTD SVG 1.1//EN"
  "http://www.w3.org/Graphics/SVG/1.1/DTD/svg11.dtd">
<!-- Created with matplotlib (http://matplotlib.org/) -->
<svg height="432pt" version="1.1" viewBox="0 0 864 432" width="864pt" xmlns="http://www.w3.org/2000/svg" xmlns:xlink="http://www.w3.org/1999/xlink">
 <defs>
  <style type="text/css">
*{stroke-linecap:butt;stroke-linejoin:round;}
  </style>
 </defs>
 <g id="figure_1">
  <g id="patch_1">
   <path d="M 0 432 
L 864 432 
L 864 0 
L 0 0 
z
" style="fill:#ffffff;"/>
  </g>
  <g id="axes_1">
   <g id="patch_2">
    <path d="M 108 384.48 
L 777.6 384.48 
L 777.6 51.84 
L 108 51.84 
z
" style="fill:#ffffff;"/>
   </g>
   <g id="matplotlib.axis_1">
    <g id="xtick_1">
     <g id="line2d_1">
      <defs>
       <path d="M 0 0 
L 0 3.5 
" id="m6e0de57fc0" style="stroke:#000000;stroke-width:0.8;"/>
      </defs>
      <g>
       <use style="stroke:#000000;stroke-width:0.8;" x="170.726825" xlink:href="#m6e0de57fc0" y="384.48"/>
      </g>
     </g>
     <g id="text_1">
      <!-- 2011 -->
      <defs>
       <path d="M 19.1875 8.296875 
L 53.609375 8.296875 
L 53.609375 0 
L 7.328125 0 
L 7.328125 8.296875 
Q 12.9375 14.109375 22.625 23.890625 
Q 32.328125 33.6875 34.8125 36.53125 
Q 39.546875 41.84375 41.421875 45.53125 
Q 43.3125 49.21875 43.3125 52.78125 
Q 43.3125 58.59375 39.234375 62.25 
Q 35.15625 65.921875 28.609375 65.921875 
Q 23.96875 65.921875 18.8125 64.3125 
Q 13.671875 62.703125 7.8125 59.421875 
L 7.8125 69.390625 
Q 13.765625 71.78125 18.9375 73 
Q 24.125 74.21875 28.421875 74.21875 
Q 39.75 74.21875 46.484375 68.546875 
Q 53.21875 62.890625 53.21875 53.421875 
Q 53.21875 48.921875 51.53125 44.890625 
Q 49.859375 40.875 45.40625 35.40625 
Q 44.1875 33.984375 37.640625 27.21875 
Q 31.109375 20.453125 19.1875 8.296875 
z
" id="DejaVuSans-32"/>
       <path d="M 31.78125 66.40625 
Q 24.171875 66.40625 20.328125 58.90625 
Q 16.5 51.421875 16.5 36.375 
Q 16.5 21.390625 20.328125 13.890625 
Q 24.171875 6.390625 31.78125 6.390625 
Q 39.453125 6.390625 43.28125 13.890625 
Q 47.125 21.390625 47.125 36.375 
Q 47.125 51.421875 43.28125 58.90625 
Q 39.453125 66.40625 31.78125 66.40625 
z
M 31.78125 74.21875 
Q 44.046875 74.21875 50.515625 64.515625 
Q 56.984375 54.828125 56.984375 36.375 
Q 56.984375 17.96875 50.515625 8.265625 
Q 44.046875 -1.421875 31.78125 -1.421875 
Q 19.53125 -1.421875 13.0625 8.265625 
Q 6.59375 17.96875 6.59375 36.375 
Q 6.59375 54.828125 13.0625 64.515625 
Q 19.53125 74.21875 31.78125 74.21875 
z
" id="DejaVuSans-30"/>
       <path d="M 12.40625 8.296875 
L 28.515625 8.296875 
L 28.515625 63.921875 
L 10.984375 60.40625 
L 10.984375 69.390625 
L 28.421875 72.90625 
L 38.28125 72.90625 
L 38.28125 8.296875 
L 54.390625 8.296875 
L 54.390625 0 
L 12.40625 0 
z
" id="DejaVuSans-31"/>
      </defs>
      <g transform="translate(158.001825 399.078438)scale(0.1 -0.1)">
       <use xlink:href="#DejaVuSans-32"/>
       <use x="63.623047" xlink:href="#DejaVuSans-30"/>
       <use x="127.246094" xlink:href="#DejaVuSans-31"/>
       <use x="190.869141" xlink:href="#DejaVuSans-31"/>
      </g>
     </g>
    </g>
    <g id="xtick_2">
     <g id="line2d_2">
      <g>
       <use style="stroke:#000000;stroke-width:0.8;" x="246.765652" xlink:href="#m6e0de57fc0" y="384.48"/>
      </g>
     </g>
     <g id="text_2">
      <!-- 2012 -->
      <g transform="translate(234.040652 399.078438)scale(0.1 -0.1)">
       <use xlink:href="#DejaVuSans-32"/>
       <use x="63.623047" xlink:href="#DejaVuSans-30"/>
       <use x="127.246094" xlink:href="#DejaVuSans-31"/>
       <use x="190.869141" xlink:href="#DejaVuSans-32"/>
      </g>
     </g>
    </g>
    <g id="xtick_3">
     <g id="line2d_3">
      <g>
       <use style="stroke:#000000;stroke-width:0.8;" x="323.012806" xlink:href="#m6e0de57fc0" y="384.48"/>
      </g>
     </g>
     <g id="text_3">
      <!-- 2013 -->
      <defs>
       <path d="M 40.578125 39.3125 
Q 47.65625 37.796875 51.625 33 
Q 55.609375 28.21875 55.609375 21.1875 
Q 55.609375 10.40625 48.1875 4.484375 
Q 40.765625 -1.421875 27.09375 -1.421875 
Q 22.515625 -1.421875 17.65625 -0.515625 
Q 12.796875 0.390625 7.625 2.203125 
L 7.625 11.71875 
Q 11.71875 9.328125 16.59375 8.109375 
Q 21.484375 6.890625 26.8125 6.890625 
Q 36.078125 6.890625 40.9375 10.546875 
Q 45.796875 14.203125 45.796875 21.1875 
Q 45.796875 27.640625 41.28125 31.265625 
Q 36.765625 34.90625 28.71875 34.90625 
L 20.21875 34.90625 
L 20.21875 43.015625 
L 29.109375 43.015625 
Q 36.375 43.015625 40.234375 45.921875 
Q 44.09375 48.828125 44.09375 54.296875 
Q 44.09375 59.90625 40.109375 62.90625 
Q 36.140625 65.921875 28.71875 65.921875 
Q 24.65625 65.921875 20.015625 65.03125 
Q 15.375 64.15625 9.8125 62.3125 
L 9.8125 71.09375 
Q 15.4375 72.65625 20.34375 73.4375 
Q 25.25 74.21875 29.59375 74.21875 
Q 40.828125 74.21875 47.359375 69.109375 
Q 53.90625 64.015625 53.90625 55.328125 
Q 53.90625 49.265625 50.4375 45.09375 
Q 46.96875 40.921875 40.578125 39.3125 
z
" id="DejaVuSans-33"/>
      </defs>
      <g transform="translate(310.287806 399.078438)scale(0.1 -0.1)">
       <use xlink:href="#DejaVuSans-32"/>
       <use x="63.623047" xlink:href="#DejaVuSans-30"/>
       <use x="127.246094" xlink:href="#DejaVuSans-31"/>
       <use x="190.869141" xlink:href="#DejaVuSans-33"/>
      </g>
     </g>
    </g>
    <g id="xtick_4">
     <g id="line2d_4">
      <g>
       <use style="stroke:#000000;stroke-width:0.8;" x="399.051633" xlink:href="#m6e0de57fc0" y="384.48"/>
      </g>
     </g>
     <g id="text_4">
      <!-- 2014 -->
      <defs>
       <path d="M 37.796875 64.3125 
L 12.890625 25.390625 
L 37.796875 25.390625 
z
M 35.203125 72.90625 
L 47.609375 72.90625 
L 47.609375 25.390625 
L 58.015625 25.390625 
L 58.015625 17.1875 
L 47.609375 17.1875 
L 47.609375 0 
L 37.796875 0 
L 37.796875 17.1875 
L 4.890625 17.1875 
L 4.890625 26.703125 
z
" id="DejaVuSans-34"/>
      </defs>
      <g transform="translate(386.326633 399.078438)scale(0.1 -0.1)">
       <use xlink:href="#DejaVuSans-32"/>
       <use x="63.623047" xlink:href="#DejaVuSans-30"/>
       <use x="127.246094" xlink:href="#DejaVuSans-31"/>
       <use x="190.869141" xlink:href="#DejaVuSans-34"/>
      </g>
     </g>
    </g>
    <g id="xtick_5">
     <g id="line2d_5">
      <g>
       <use style="stroke:#000000;stroke-width:0.8;" x="475.090461" xlink:href="#m6e0de57fc0" y="384.48"/>
      </g>
     </g>
     <g id="text_5">
      <!-- 2015 -->
      <defs>
       <path d="M 10.796875 72.90625 
L 49.515625 72.90625 
L 49.515625 64.59375 
L 19.828125 64.59375 
L 19.828125 46.734375 
Q 21.96875 47.46875 24.109375 47.828125 
Q 26.265625 48.1875 28.421875 48.1875 
Q 40.625 48.1875 47.75 41.5 
Q 54.890625 34.8125 54.890625 23.390625 
Q 54.890625 11.625 47.5625 5.09375 
Q 40.234375 -1.421875 26.90625 -1.421875 
Q 22.3125 -1.421875 17.546875 -0.640625 
Q 12.796875 0.140625 7.71875 1.703125 
L 7.71875 11.625 
Q 12.109375 9.234375 16.796875 8.0625 
Q 21.484375 6.890625 26.703125 6.890625 
Q 35.15625 6.890625 40.078125 11.328125 
Q 45.015625 15.765625 45.015625 23.390625 
Q 45.015625 31 40.078125 35.4375 
Q 35.15625 39.890625 26.703125 39.890625 
Q 22.75 39.890625 18.8125 39.015625 
Q 14.890625 38.140625 10.796875 36.28125 
z
" id="DejaVuSans-35"/>
      </defs>
      <g transform="translate(462.365461 399.078438)scale(0.1 -0.1)">
       <use xlink:href="#DejaVuSans-32"/>
       <use x="63.623047" xlink:href="#DejaVuSans-30"/>
       <use x="127.246094" xlink:href="#DejaVuSans-31"/>
       <use x="190.869141" xlink:href="#DejaVuSans-35"/>
      </g>
     </g>
    </g>
    <g id="xtick_6">
     <g id="line2d_6">
      <g>
       <use style="stroke:#000000;stroke-width:0.8;" x="551.129289" xlink:href="#m6e0de57fc0" y="384.48"/>
      </g>
     </g>
     <g id="text_6">
      <!-- 2016 -->
      <defs>
       <path d="M 33.015625 40.375 
Q 26.375 40.375 22.484375 35.828125 
Q 18.609375 31.296875 18.609375 23.390625 
Q 18.609375 15.53125 22.484375 10.953125 
Q 26.375 6.390625 33.015625 6.390625 
Q 39.65625 6.390625 43.53125 10.953125 
Q 47.40625 15.53125 47.40625 23.390625 
Q 47.40625 31.296875 43.53125 35.828125 
Q 39.65625 40.375 33.015625 40.375 
z
M 52.59375 71.296875 
L 52.59375 62.3125 
Q 48.875 64.0625 45.09375 64.984375 
Q 41.3125 65.921875 37.59375 65.921875 
Q 27.828125 65.921875 22.671875 59.328125 
Q 17.53125 52.734375 16.796875 39.40625 
Q 19.671875 43.65625 24.015625 45.921875 
Q 28.375 48.1875 33.59375 48.1875 
Q 44.578125 48.1875 50.953125 41.515625 
Q 57.328125 34.859375 57.328125 23.390625 
Q 57.328125 12.15625 50.6875 5.359375 
Q 44.046875 -1.421875 33.015625 -1.421875 
Q 20.359375 -1.421875 13.671875 8.265625 
Q 6.984375 17.96875 6.984375 36.375 
Q 6.984375 53.65625 15.1875 63.9375 
Q 23.390625 74.21875 37.203125 74.21875 
Q 40.921875 74.21875 44.703125 73.484375 
Q 48.484375 72.75 52.59375 71.296875 
z
" id="DejaVuSans-36"/>
      </defs>
      <g transform="translate(538.404289 399.078438)scale(0.1 -0.1)">
       <use xlink:href="#DejaVuSans-32"/>
       <use x="63.623047" xlink:href="#DejaVuSans-30"/>
       <use x="127.246094" xlink:href="#DejaVuSans-31"/>
       <use x="190.869141" xlink:href="#DejaVuSans-36"/>
      </g>
     </g>
    </g>
    <g id="xtick_7">
     <g id="line2d_7">
      <g>
       <use style="stroke:#000000;stroke-width:0.8;" x="627.376442" xlink:href="#m6e0de57fc0" y="384.48"/>
      </g>
     </g>
     <g id="text_7">
      <!-- 2017 -->
      <defs>
       <path d="M 8.203125 72.90625 
L 55.078125 72.90625 
L 55.078125 68.703125 
L 28.609375 0 
L 18.3125 0 
L 43.21875 64.59375 
L 8.203125 64.59375 
z
" id="DejaVuSans-37"/>
      </defs>
      <g transform="translate(614.651442 399.078438)scale(0.1 -0.1)">
       <use xlink:href="#DejaVuSans-32"/>
       <use x="63.623047" xlink:href="#DejaVuSans-30"/>
       <use x="127.246094" xlink:href="#DejaVuSans-31"/>
       <use x="190.869141" xlink:href="#DejaVuSans-37"/>
      </g>
     </g>
    </g>
    <g id="xtick_8">
     <g id="line2d_8">
      <g>
       <use style="stroke:#000000;stroke-width:0.8;" x="703.41527" xlink:href="#m6e0de57fc0" y="384.48"/>
      </g>
     </g>
     <g id="text_8">
      <!-- 2018 -->
      <defs>
       <path d="M 31.78125 34.625 
Q 24.75 34.625 20.71875 30.859375 
Q 16.703125 27.09375 16.703125 20.515625 
Q 16.703125 13.921875 20.71875 10.15625 
Q 24.75 6.390625 31.78125 6.390625 
Q 38.8125 6.390625 42.859375 10.171875 
Q 46.921875 13.96875 46.921875 20.515625 
Q 46.921875 27.09375 42.890625 30.859375 
Q 38.875 34.625 31.78125 34.625 
z
M 21.921875 38.8125 
Q 15.578125 40.375 12.03125 44.71875 
Q 8.5 49.078125 8.5 55.328125 
Q 8.5 64.0625 14.71875 69.140625 
Q 20.953125 74.21875 31.78125 74.21875 
Q 42.671875 74.21875 48.875 69.140625 
Q 55.078125 64.0625 55.078125 55.328125 
Q 55.078125 49.078125 51.53125 44.71875 
Q 48 40.375 41.703125 38.8125 
Q 48.828125 37.15625 52.796875 32.3125 
Q 56.78125 27.484375 56.78125 20.515625 
Q 56.78125 9.90625 50.3125 4.234375 
Q 43.84375 -1.421875 31.78125 -1.421875 
Q 19.734375 -1.421875 13.25 4.234375 
Q 6.78125 9.90625 6.78125 20.515625 
Q 6.78125 27.484375 10.78125 32.3125 
Q 14.796875 37.15625 21.921875 38.8125 
z
M 18.3125 54.390625 
Q 18.3125 48.734375 21.84375 45.5625 
Q 25.390625 42.390625 31.78125 42.390625 
Q 38.140625 42.390625 41.71875 45.5625 
Q 45.3125 48.734375 45.3125 54.390625 
Q 45.3125 60.0625 41.71875 63.234375 
Q 38.140625 66.40625 31.78125 66.40625 
Q 25.390625 66.40625 21.84375 63.234375 
Q 18.3125 60.0625 18.3125 54.390625 
z
" id="DejaVuSans-38"/>
      </defs>
      <g transform="translate(690.69027 399.078438)scale(0.1 -0.1)">
       <use xlink:href="#DejaVuSans-32"/>
       <use x="63.623047" xlink:href="#DejaVuSans-30"/>
       <use x="127.246094" xlink:href="#DejaVuSans-31"/>
       <use x="190.869141" xlink:href="#DejaVuSans-38"/>
      </g>
     </g>
    </g>
    <g id="text_9">
     <!-- Time -->
     <defs>
      <path d="M -0.296875 72.90625 
L 61.375 72.90625 
L 61.375 64.59375 
L 35.5 64.59375 
L 35.5 0 
L 25.59375 0 
L 25.59375 64.59375 
L -0.296875 64.59375 
z
" id="DejaVuSans-54"/>
      <path d="M 9.421875 54.6875 
L 18.40625 54.6875 
L 18.40625 0 
L 9.421875 0 
z
M 9.421875 75.984375 
L 18.40625 75.984375 
L 18.40625 64.59375 
L 9.421875 64.59375 
z
" id="DejaVuSans-69"/>
      <path d="M 52 44.1875 
Q 55.375 50.25 60.0625 53.125 
Q 64.75 56 71.09375 56 
Q 79.640625 56 84.28125 50.015625 
Q 88.921875 44.046875 88.921875 33.015625 
L 88.921875 0 
L 79.890625 0 
L 79.890625 32.71875 
Q 79.890625 40.578125 77.09375 44.375 
Q 74.3125 48.1875 68.609375 48.1875 
Q 61.625 48.1875 57.5625 43.546875 
Q 53.515625 38.921875 53.515625 30.90625 
L 53.515625 0 
L 44.484375 0 
L 44.484375 32.71875 
Q 44.484375 40.625 41.703125 44.40625 
Q 38.921875 48.1875 33.109375 48.1875 
Q 26.21875 48.1875 22.15625 43.53125 
Q 18.109375 38.875 18.109375 30.90625 
L 18.109375 0 
L 9.078125 0 
L 9.078125 54.6875 
L 18.109375 54.6875 
L 18.109375 46.1875 
Q 21.1875 51.21875 25.484375 53.609375 
Q 29.78125 56 35.6875 56 
Q 41.65625 56 45.828125 52.96875 
Q 50 49.953125 52 44.1875 
z
" id="DejaVuSans-6d"/>
      <path d="M 56.203125 29.59375 
L 56.203125 25.203125 
L 14.890625 25.203125 
Q 15.484375 15.921875 20.484375 11.0625 
Q 25.484375 6.203125 34.421875 6.203125 
Q 39.59375 6.203125 44.453125 7.46875 
Q 49.3125 8.734375 54.109375 11.28125 
L 54.109375 2.78125 
Q 49.265625 0.734375 44.1875 -0.34375 
Q 39.109375 -1.421875 33.890625 -1.421875 
Q 20.796875 -1.421875 13.15625 6.1875 
Q 5.515625 13.8125 5.515625 26.8125 
Q 5.515625 40.234375 12.765625 48.109375 
Q 20.015625 56 32.328125 56 
Q 43.359375 56 49.78125 48.890625 
Q 56.203125 41.796875 56.203125 29.59375 
z
M 47.21875 32.234375 
Q 47.125 39.59375 43.09375 43.984375 
Q 39.0625 48.390625 32.421875 48.390625 
Q 24.90625 48.390625 20.390625 44.140625 
Q 15.875 39.890625 15.1875 32.171875 
z
" id="DejaVuSans-65"/>
     </defs>
     <g transform="translate(430.4125 412.756563)scale(0.1 -0.1)">
      <use xlink:href="#DejaVuSans-54"/>
      <use x="61.037109" xlink:href="#DejaVuSans-69"/>
      <use x="88.820312" xlink:href="#DejaVuSans-6d"/>
      <use x="186.232422" xlink:href="#DejaVuSans-65"/>
     </g>
    </g>
   </g>
   <g id="matplotlib.axis_2">
    <g id="ytick_1">
     <g id="line2d_9">
      <defs>
       <path d="M 0 0 
L -3.5 0 
" id="ma0eb86c18a" style="stroke:#000000;stroke-width:0.8;"/>
      </defs>
      <g>
       <use style="stroke:#000000;stroke-width:0.8;" x="108" xlink:href="#ma0eb86c18a" y="380.415156"/>
      </g>
     </g>
     <g id="text_10">
      <!-- 40 -->
      <g transform="translate(88.275 384.214375)scale(0.1 -0.1)">
       <use xlink:href="#DejaVuSans-34"/>
       <use x="63.623047" xlink:href="#DejaVuSans-30"/>
      </g>
     </g>
    </g>
    <g id="ytick_2">
     <g id="line2d_10">
      <g>
       <use style="stroke:#000000;stroke-width:0.8;" x="108" xlink:href="#ma0eb86c18a" y="313.136198"/>
      </g>
     </g>
     <g id="text_11">
      <!-- 50 -->
      <g transform="translate(88.275 316.935417)scale(0.1 -0.1)">
       <use xlink:href="#DejaVuSans-35"/>
       <use x="63.623047" xlink:href="#DejaVuSans-30"/>
      </g>
     </g>
    </g>
    <g id="ytick_3">
     <g id="line2d_11">
      <g>
       <use style="stroke:#000000;stroke-width:0.8;" x="108" xlink:href="#ma0eb86c18a" y="245.85724"/>
      </g>
     </g>
     <g id="text_12">
      <!-- 60 -->
      <g transform="translate(88.275 249.656459)scale(0.1 -0.1)">
       <use xlink:href="#DejaVuSans-36"/>
       <use x="63.623047" xlink:href="#DejaVuSans-30"/>
      </g>
     </g>
    </g>
    <g id="ytick_4">
     <g id="line2d_12">
      <g>
       <use style="stroke:#000000;stroke-width:0.8;" x="108" xlink:href="#ma0eb86c18a" y="178.578283"/>
      </g>
     </g>
     <g id="text_13">
      <!-- 70 -->
      <g transform="translate(88.275 182.377501)scale(0.1 -0.1)">
       <use xlink:href="#DejaVuSans-37"/>
       <use x="63.623047" xlink:href="#DejaVuSans-30"/>
      </g>
     </g>
    </g>
    <g id="ytick_5">
     <g id="line2d_13">
      <g>
       <use style="stroke:#000000;stroke-width:0.8;" x="108" xlink:href="#ma0eb86c18a" y="111.299325"/>
      </g>
     </g>
     <g id="text_14">
      <!-- 80 -->
      <g transform="translate(88.275 115.098544)scale(0.1 -0.1)">
       <use xlink:href="#DejaVuSans-38"/>
       <use x="63.623047" xlink:href="#DejaVuSans-30"/>
      </g>
     </g>
    </g>
    <g id="text_15">
     <!-- Mean Temperature (˚F) -->
     <defs>
      <path d="M 9.8125 72.90625 
L 24.515625 72.90625 
L 43.109375 23.296875 
L 61.8125 72.90625 
L 76.515625 72.90625 
L 76.515625 0 
L 66.890625 0 
L 66.890625 64.015625 
L 48.09375 14.015625 
L 38.1875 14.015625 
L 19.390625 64.015625 
L 19.390625 0 
L 9.8125 0 
z
" id="DejaVuSans-4d"/>
      <path d="M 34.28125 27.484375 
Q 23.390625 27.484375 19.1875 25 
Q 14.984375 22.515625 14.984375 16.5 
Q 14.984375 11.71875 18.140625 8.90625 
Q 21.296875 6.109375 26.703125 6.109375 
Q 34.1875 6.109375 38.703125 11.40625 
Q 43.21875 16.703125 43.21875 25.484375 
L 43.21875 27.484375 
z
M 52.203125 31.203125 
L 52.203125 0 
L 43.21875 0 
L 43.21875 8.296875 
Q 40.140625 3.328125 35.546875 0.953125 
Q 30.953125 -1.421875 24.3125 -1.421875 
Q 15.921875 -1.421875 10.953125 3.296875 
Q 6 8.015625 6 15.921875 
Q 6 25.140625 12.171875 29.828125 
Q 18.359375 34.515625 30.609375 34.515625 
L 43.21875 34.515625 
L 43.21875 35.40625 
Q 43.21875 41.609375 39.140625 45 
Q 35.0625 48.390625 27.6875 48.390625 
Q 23 48.390625 18.546875 47.265625 
Q 14.109375 46.140625 10.015625 43.890625 
L 10.015625 52.203125 
Q 14.9375 54.109375 19.578125 55.046875 
Q 24.21875 56 28.609375 56 
Q 40.484375 56 46.34375 49.84375 
Q 52.203125 43.703125 52.203125 31.203125 
z
" id="DejaVuSans-61"/>
      <path d="M 54.890625 33.015625 
L 54.890625 0 
L 45.90625 0 
L 45.90625 32.71875 
Q 45.90625 40.484375 42.875 44.328125 
Q 39.84375 48.1875 33.796875 48.1875 
Q 26.515625 48.1875 22.3125 43.546875 
Q 18.109375 38.921875 18.109375 30.90625 
L 18.109375 0 
L 9.078125 0 
L 9.078125 54.6875 
L 18.109375 54.6875 
L 18.109375 46.1875 
Q 21.34375 51.125 25.703125 53.5625 
Q 30.078125 56 35.796875 56 
Q 45.21875 56 50.046875 50.171875 
Q 54.890625 44.34375 54.890625 33.015625 
z
" id="DejaVuSans-6e"/>
      <path id="DejaVuSans-20"/>
      <path d="M 18.109375 8.203125 
L 18.109375 -20.796875 
L 9.078125 -20.796875 
L 9.078125 54.6875 
L 18.109375 54.6875 
L 18.109375 46.390625 
Q 20.953125 51.265625 25.265625 53.625 
Q 29.59375 56 35.59375 56 
Q 45.5625 56 51.78125 48.09375 
Q 58.015625 40.1875 58.015625 27.296875 
Q 58.015625 14.40625 51.78125 6.484375 
Q 45.5625 -1.421875 35.59375 -1.421875 
Q 29.59375 -1.421875 25.265625 0.953125 
Q 20.953125 3.328125 18.109375 8.203125 
z
M 48.6875 27.296875 
Q 48.6875 37.203125 44.609375 42.84375 
Q 40.53125 48.484375 33.40625 48.484375 
Q 26.265625 48.484375 22.1875 42.84375 
Q 18.109375 37.203125 18.109375 27.296875 
Q 18.109375 17.390625 22.1875 11.75 
Q 26.265625 6.109375 33.40625 6.109375 
Q 40.53125 6.109375 44.609375 11.75 
Q 48.6875 17.390625 48.6875 27.296875 
z
" id="DejaVuSans-70"/>
      <path d="M 41.109375 46.296875 
Q 39.59375 47.171875 37.8125 47.578125 
Q 36.03125 48 33.890625 48 
Q 26.265625 48 22.1875 43.046875 
Q 18.109375 38.09375 18.109375 28.8125 
L 18.109375 0 
L 9.078125 0 
L 9.078125 54.6875 
L 18.109375 54.6875 
L 18.109375 46.1875 
Q 20.953125 51.171875 25.484375 53.578125 
Q 30.03125 56 36.53125 56 
Q 37.453125 56 38.578125 55.875 
Q 39.703125 55.765625 41.0625 55.515625 
z
" id="DejaVuSans-72"/>
      <path d="M 18.3125 70.21875 
L 18.3125 54.6875 
L 36.8125 54.6875 
L 36.8125 47.703125 
L 18.3125 47.703125 
L 18.3125 18.015625 
Q 18.3125 11.328125 20.140625 9.421875 
Q 21.96875 7.515625 27.59375 7.515625 
L 36.8125 7.515625 
L 36.8125 0 
L 27.59375 0 
Q 17.1875 0 13.234375 3.875 
Q 9.28125 7.765625 9.28125 18.015625 
L 9.28125 47.703125 
L 2.6875 47.703125 
L 2.6875 54.6875 
L 9.28125 54.6875 
L 9.28125 70.21875 
z
" id="DejaVuSans-74"/>
      <path d="M 8.5 21.578125 
L 8.5 54.6875 
L 17.484375 54.6875 
L 17.484375 21.921875 
Q 17.484375 14.15625 20.5 10.265625 
Q 23.53125 6.390625 29.59375 6.390625 
Q 36.859375 6.390625 41.078125 11.03125 
Q 45.3125 15.671875 45.3125 23.6875 
L 45.3125 54.6875 
L 54.296875 54.6875 
L 54.296875 0 
L 45.3125 0 
L 45.3125 8.40625 
Q 42.046875 3.421875 37.71875 1 
Q 33.40625 -1.421875 27.6875 -1.421875 
Q 18.265625 -1.421875 13.375 4.4375 
Q 8.5 10.296875 8.5 21.578125 
z
M 31.109375 56 
z
" id="DejaVuSans-75"/>
      <path d="M 31 75.875 
Q 24.46875 64.65625 21.28125 53.65625 
Q 18.109375 42.671875 18.109375 31.390625 
Q 18.109375 20.125 21.3125 9.0625 
Q 24.515625 -2 31 -13.1875 
L 23.1875 -13.1875 
Q 15.875 -1.703125 12.234375 9.375 
Q 8.59375 20.453125 8.59375 31.390625 
Q 8.59375 42.28125 12.203125 53.3125 
Q 15.828125 64.359375 23.1875 75.875 
z
" id="DejaVuSans-28"/>
      <path d="M 32.421875 74.421875 
Q 32.421875 77.484375 30.265625 79.625 
Q 28.125 81.78125 25 81.78125 
Q 21.828125 81.78125 19.703125 79.65625 
Q 17.578125 77.546875 17.578125 74.421875 
Q 17.578125 71.234375 19.703125 69.109375 
Q 21.828125 67 25 67 
Q 28.125 67 30.265625 69.140625 
Q 32.421875 71.296875 32.421875 74.421875 
z
M 38.375 74.421875 
Q 38.375 68.796875 34.484375 64.890625 
Q 30.609375 60.984375 25 60.984375 
Q 19.390625 60.984375 15.5 64.890625 
Q 11.625 68.796875 11.625 74.421875 
Q 11.625 80.03125 15.5 83.90625 
Q 19.390625 87.796875 25 87.796875 
Q 30.609375 87.796875 34.484375 83.90625 
Q 38.375 80.03125 38.375 74.421875 
z
" id="DejaVuSans-2da"/>
      <path d="M 9.8125 72.90625 
L 51.703125 72.90625 
L 51.703125 64.59375 
L 19.671875 64.59375 
L 19.671875 43.109375 
L 48.578125 43.109375 
L 48.578125 34.8125 
L 19.671875 34.8125 
L 19.671875 0 
L 9.8125 0 
z
" id="DejaVuSans-46"/>
      <path d="M 8.015625 75.875 
L 15.828125 75.875 
Q 23.140625 64.359375 26.78125 53.3125 
Q 30.421875 42.28125 30.421875 31.390625 
Q 30.421875 20.453125 26.78125 9.375 
Q 23.140625 -1.703125 15.828125 -13.1875 
L 8.015625 -13.1875 
Q 14.5 -2 17.703125 9.0625 
Q 20.90625 20.125 20.90625 31.390625 
Q 20.90625 42.671875 17.703125 53.65625 
Q 14.5 64.65625 8.015625 75.875 
z
" id="DejaVuSans-29"/>
     </defs>
     <g transform="translate(82.195312 276.856094)rotate(-90)scale(0.1 -0.1)">
      <use xlink:href="#DejaVuSans-4d"/>
      <use x="86.279297" xlink:href="#DejaVuSans-65"/>
      <use x="147.802734" xlink:href="#DejaVuSans-61"/>
      <use x="209.082031" xlink:href="#DejaVuSans-6e"/>
      <use x="272.460938" xlink:href="#DejaVuSans-20"/>
      <use x="304.248047" xlink:href="#DejaVuSans-54"/>
      <use x="365.066406" xlink:href="#DejaVuSans-65"/>
      <use x="426.589844" xlink:href="#DejaVuSans-6d"/>
      <use x="524.001953" xlink:href="#DejaVuSans-70"/>
      <use x="587.478516" xlink:href="#DejaVuSans-65"/>
      <use x="649.001953" xlink:href="#DejaVuSans-72"/>
      <use x="690.115234" xlink:href="#DejaVuSans-61"/>
      <use x="751.394531" xlink:href="#DejaVuSans-74"/>
      <use x="790.603516" xlink:href="#DejaVuSans-75"/>
      <use x="853.982422" xlink:href="#DejaVuSans-72"/>
      <use x="895.064453" xlink:href="#DejaVuSans-65"/>
      <use x="956.587891" xlink:href="#DejaVuSans-20"/>
      <use x="988.375" xlink:href="#DejaVuSans-28"/>
      <use x="1027.388672" xlink:href="#DejaVuSans-2da"/>
      <use x="1077.388672" xlink:href="#DejaVuSans-46"/>
      <use x="1134.908203" xlink:href="#DejaVuSans-29"/>
     </g>
    </g>
   </g>
   <g id="line2d_14">
    <path clip-path="url(#p332a3873a5)" d="M 138.436364 262.957309 
L 138.644689 254.203595 
L 138.853015 253.407435 
L 139.06134 262.420012 
L 139.477991 262.420012 
L 139.686317 272.01375 
L 140.102968 255.323016 
L 140.311294 254.355881 
L 140.519619 254.584686 
L 140.727945 262.832989 
L 140.93627 261.074433 
L 141.144596 280.209085 
L 141.352921 248.727809 
L 141.977898 248.727809 
L 142.186224 225.758537 
L 142.602875 242.888498 
L 142.8112 255.266885 
L 143.019526 258.140322 
L 143.227851 231.790253 
L 143.644503 125.526021 
L 144.061154 246.034782 
L 144.269479 252.462811 
L 144.477805 254.379242 
L 144.894456 250.604406 
L 145.102781 223.926169 
L 145.311107 170.803825 
L 145.519433 177.914837 
L 145.727758 241.331202 
L 145.936084 259.121474 
L 146.352735 204.592813 
L 146.56106 254.159651 
L 146.769386 247.918251 
L 146.977711 247.483149 
L 147.186037 225.617487 
L 147.394363 228.200043 
L 147.602688 258.827128 
L 147.811014 265.060995 
L 148.019339 257.205892 
L 148.227665 268.798262 
L 148.43599 235.340231 
L 148.644316 225.477323 
L 148.852641 207.955193 
L 149.269293 228.509548 
L 149.477618 243.493001 
L 149.685944 241.002602 
L 149.894269 232.523774 
L 150.31092 179.671566 
L 150.519246 203.056695 
L 150.935897 150.302432 
L 151.352548 245.572239 
L 151.560874 242.963256 
L 151.769199 254.944572 
L 151.977525 252.352976 
L 152.602501 240.703859 
L 153.019153 242.278374 
L 153.227478 235.705147 
L 153.435804 211.178601 
L 154.06078 179.116514 
L 154.269106 191.917271 
L 154.685757 266.891259 
L 154.894083 279.270888 
L 155.102408 271.722262 
L 155.310734 275.057328 
L 155.519059 268.943689 
L 155.727385 243.247468 
L 155.93571 257.332302 
L 156.144036 253.332131 
L 156.352361 233.952603 
L 156.560687 259.952734 
L 156.769013 267.119527 
L 156.977338 263.489934 
L 157.185664 232.548326 
L 157.393989 256.526443 
L 157.602315 260.772322 
L 158.018966 243.146581 
L 158.227291 228.724467 
L 158.435617 227.246694 
L 158.643943 189.598766 
L 158.852268 248.319463 
L 159.060594 244.996555 
L 159.893896 300.508455 
L 161.352175 300.508455 
L 161.5605 274.419586 
L 161.977151 310.330523 
L 162.185477 307.532691 
L 162.393803 291.876995 
L 162.602128 302.029914 
L 162.810454 343.962193 
L 163.018779 324.902193 
L 163.227105 323.802374 
L 163.43543 310.240278 
L 163.643756 324.260916 
L 163.852081 325.048808 
L 164.060407 319.935163 
L 164.685384 281.303371 
L 164.893709 282.989499 
L 169.06022 282.989499 
L 169.268546 296.608001 
L 169.476871 287.962655 
L 169.685197 287.226742 
L 169.893522 289.033394 
L 170.310174 329.638232 
L 170.518499 330.661661 
L 170.726825 325.729822 
L 170.93515 316.785147 
L 171.143476 313.022487 
L 171.351801 324.779196 
L 171.560127 317.423147 
L 171.768452 344.63116 
L 171.976778 352.990747 
L 172.185104 336.805309 
L 172.393429 349.359376 
L 172.601755 342.98359 
L 172.81008 330.003317 
L 173.226731 284.063706 
L 173.435057 275.567441 
L 173.643382 271.802281 
L 173.851708 293.47112 
L 174.268359 286.084451 
L 174.476685 275.601127 
L 174.893336 279.113603 
L 175.101661 267.537061 
L 175.309987 266.648307 
L 175.518312 278.16996 
L 175.934964 264.162724 
L 176.143289 274.406102 
L 176.351615 302.890174 
L 176.55994 282.659765 
L 176.976591 309.407823 
L 177.184917 279.576146 
L 177.393242 278.635737 
L 177.601568 289.42971 
L 177.809894 283.767064 
L 178.226545 211.10259 
L 178.43487 261.138503 
L 178.851521 281.096359 
L 179.059847 279.950996 
L 179.268172 296.632589 
L 179.476498 295.727768 
L 179.684824 298.928191 
L 180.101475 273.904156 
L 180.726451 367.593709 
L 180.934777 357.288014 
L 181.351428 316.755996 
L 181.559754 313.458577 
L 181.768079 318.434416 
L 181.976405 316.46698 
L 182.18473 326.727482 
L 182.393056 354.844414 
L 182.809707 308.678967 
L 183.018032 301.376595 
L 183.226358 283.033537 
L 183.434684 274.871879 
L 183.643009 310.904779 
L 184.684637 310.904779 
L 184.892962 271.423244 
L 185.101288 291.279881 
L 185.309614 279.786393 
L 185.517939 255.747738 
L 185.726265 254.327848 
L 185.93459 259.448524 
L 186.559567 303.810587 
L 186.767892 318.948353 
L 186.976218 294.128716 
L 187.392869 296.659911 
L 187.601195 294.653437 
L 187.80952 315.916748 
L 188.017846 291.181729 
L 188.226171 292.726679 
L 188.434497 313.535311 
L 188.851148 271.198981 
L 189.267799 191.053318 
L 189.476125 203.812564 
L 189.68445 253.248516 
L 189.892776 267.746592 
L 190.101101 234.438506 
L 190.517752 281.27 
L 190.726078 306.911718 
L 191.351055 284.49592 
L 191.55938 275.701618 
L 191.767706 300.696648 
L 192.184357 285.43035 
L 192.392682 260.663349 
L 192.601008 255.643271 
L 192.809334 268.970366 
L 193.225985 254.961071 
L 193.43431 252.758006 
L 193.850961 285.824705 
L 194.059287 260.667956 
L 194.267612 266.265191 
L 194.475938 264.050592 
L 194.684264 269.337597 
L 194.892589 261.22902 
L 195.100915 273.921389 
L 195.30924 268.362986 
L 195.517566 232.536941 
L 195.725891 225.430601 
L 195.934217 259.976477 
L 196.142542 245.113879 
L 196.350868 188.91775 
L 196.559194 204.148959 
L 196.767519 268.343574 
L 197.18417 279.666093 
L 197.392496 268.947005 
L 197.600821 294.401596 
L 197.809147 282.187878 
L 198.017472 261.87337 
L 198.434124 288.184248 
L 198.642449 286.36478 
L 198.850775 286.967487 
L 199.0591 283.015926 
L 199.267426 262.092961 
L 199.475751 252.907515 
L 199.684077 265.377483 
L 199.892402 262.460558 
L 200.100728 268.082657 
L 200.309054 263.802968 
L 200.517379 272.441773 
L 200.725705 267.489294 
L 200.93403 256.252774 
L 201.142356 253.403775 
L 201.350681 268.035936 
L 201.559007 264.186084 
L 201.767332 268.76502 
L 201.975658 262.30788 
L 202.183984 262.785953 
L 202.392309 257.925109 
L 202.600635 262.312552 
L 203.017286 240.147873 
L 203.225611 259.117398 
L 203.433937 244.868139 
L 203.642262 250.590128 
L 203.850588 251.356361 
L 204.058914 248.308453 
L 204.267239 264.671988 
L 204.68389 248.155938 
L 204.892216 211.718266 
L 205.100541 197.355228 
L 205.308867 240.274021 
L 205.517192 254.194185 
L 205.725518 247.983069 
L 206.142169 160.824113 
L 206.350495 178.344476 
L 206.55882 242.446571 
L 206.767146 246.902212 
L 206.975471 248.632498 
L 207.183797 256.603054 
L 207.392122 236.484908 
L 207.600448 262.887227 
L 207.808774 260.50443 
L 208.017099 243.029244 
L 208.43375 186.863047 
L 208.642076 218.655984 
L 208.850401 173.784657 
L 209.058727 210.180704 
L 209.475378 237.454428 
L 209.683704 238.075465 
L 209.892029 232.895455 
L 210.100355 277.245462 
L 211.141982 277.245462 
L 211.350308 259.812199 
L 211.558634 229.434274 
L 211.975285 215.384107 
L 212.18361 220.113695 
L 212.391936 199.766482 
L 212.600261 247.482286 
L 212.808587 247.482286 
L 213.016912 211.04038 
L 213.641889 254.771702 
L 213.850215 255.01586 
L 214.05854 238.844344 
L 214.266866 260.12038 
L 214.475191 212.561802 
L 214.683517 236.255973 
L 214.891842 228.491549 
L 217.183424 228.491549 
L 217.391749 231.45634 
L 217.600075 237.54382 
L 217.8084 231.937129 
L 218.225051 245.961476 
L 218.433377 248.151266 
L 218.641702 260.130658 
L 218.850028 235.569167 
L 219.058354 243.137248 
L 219.266679 237.942619 
L 219.475005 204.317156 
L 219.68333 228.986107 
L 219.891656 231.803414 
L 220.099981 237.110976 
L 220.308307 245.673752 
L 220.516632 246.020766 
L 220.724958 238.269669 
L 220.933284 249.216516 
L 221.141609 240.708531 
L 221.55826 235.360782 
L 221.766586 250.108897 
L 221.974911 252.580464 
L 222.183237 249.991957 
L 222.391562 249.991957 
L 222.599888 266.792869 
L 222.808214 257.434828 
L 223.016539 241.189763 
L 223.224865 238.112794 
L 223.43319 214.132624 
L 223.641516 217.128191 
L 223.849841 227.592982 
L 224.058167 252.296121 
L 224.266492 247.179459 
L 224.474818 246.777654 
L 224.683144 236.442891 
L 224.891469 192.208279 
L 225.099795 188.947711 
L 225.30812 190.95948 
L 225.516446 229.126272 
L 225.724771 232.24619 
L 225.933097 226.154785 
L 226.141422 239.442379 
L 226.349748 224.591444 
L 226.558074 229.705618 
L 226.766399 205.303253 
L 226.974725 166.999715 
L 227.18305 219.818743 
L 227.599701 206.80274 
L 228.016352 236.614734 
L 228.224678 239.477502 
L 228.641329 258.644947 
L 228.849655 250.328378 
L 229.05798 232.353393 
L 229.266306 237.877209 
L 229.474631 229.184674 
L 229.682957 210.460475 
L 229.891282 205.348721 
L 230.099608 182.315419 
L 230.307934 175.049666 
L 230.516259 212.815274 
L 230.724585 210.624559 
L 231.141236 234.81388 
L 231.349561 239.063935 
L 231.557887 248.38373 
L 231.766212 238.526637 
L 231.974538 208.019934 
L 232.182864 202.427513 
L 232.599515 259.374625 
L 232.80784 258.621554 
L 233.224491 240.357303 
L 233.432817 237.186253 
L 233.641142 236.12048 
L 233.849468 242.960508 
L 234.266119 242.960508 
L 234.68277 298.996852 
L 234.891096 298.996852 
L 235.099421 286.623804 
L 235.307747 289.919783 
L 235.516072 287.177734 
L 235.932724 266.225144 
L 236.141049 282.347842 
L 236.349375 271.569094 
L 236.5577 268.47979 
L 236.766026 273.703254 
L 236.974351 273.468311 
L 237.182677 276.875643 
L 237.391002 275.402314 
L 237.807654 307.244617 
L 238.224305 296.096868 
L 238.640956 272.796856 
L 239.057607 281.169349 
L 239.265932 280.552625 
L 239.474258 280.800249 
L 239.890909 294.228008 
L 240.099235 275.894492 
L 240.30756 242.46526 
L 240.515886 230.887672 
L 240.932537 294.419566 
L 241.140862 291.696953 
L 241.349188 307.833308 
L 241.557514 310.902911 
L 241.765839 310.295531 
L 241.974165 300.451311 
L 242.807467 316.135718 
L 243.432444 303.20298 
L 243.640769 301.510583 
L 243.849095 306.90355 
L 244.05742 299.381389 
L 244.265746 306.15541 
L 244.474071 306.286827 
L 244.682397 290.686518 
L 244.890722 319.435955 
L 245.099048 319.429584 
L 245.307374 319.200649 
L 245.515699 315.383502 
L 245.724025 306.954944 
L 245.93235 286.414133 
L 246.140676 282.866418 
L 246.349001 272.812229 
L 246.557327 289.279444 
L 246.765652 279.995431 
L 246.973978 281.071234 
L 247.182304 285.843525 
L 247.390629 274.558257 
L 247.80728 301.651727 
L 248.015606 274.924593 
L 248.223931 268.713398 
L 248.432257 287.725453 
L 248.640582 287.725453 
L 248.848908 293.343011 
L 249.057234 280.534412 
L 249.265559 288.564494 
L 249.473885 288.564494 
L 249.890536 342.348439 
L 250.098861 341.068728 
L 250.515512 319.504338 
L 250.723838 280.465913 
L 251.140489 309.435856 
L 251.55714 309.435856 
L 251.765466 258.152813 
L 251.973791 272.34833 
L 252.182117 294.394203 
L 252.390442 292.345131 
L 252.598768 278.978111 
L 252.807094 285.82 
L 253.015419 297.258364 
L 253.43207 280.412461 
L 253.640396 284.977837 
L 254.057047 274.422765 
L 254.265372 293.546149 
L 254.473698 274.83139 
L 254.682024 271.705534 
L 254.890349 261.646324 
L 255.723651 313.921119 
L 256.140302 308.647798 
L 256.348628 288.839429 
L 256.556954 286.958567 
L 256.765279 294.547983 
L 256.973605 316.354297 
L 257.598581 261.835993 
L 257.806907 253.417653 
L 258.015232 256.047885 
L 258.431884 321.012642 
L 258.640209 326.942401 
L 259.05686 302.056342 
L 259.265186 310.061924 
L 259.473511 298.363056 
L 259.681837 270.610913 
L 259.890162 257.762276 
L 260.098488 309.164871 
L 260.306814 309.660119 
L 260.515139 300.53541 
L 260.723465 280.446259 
L 260.93179 280.646068 
L 261.140116 299.774503 
L 261.556767 274.269662 
L 261.765092 277.697942 
L 261.973418 264.502335 
L 262.181744 261.326729 
L 262.390069 272.674727 
L 262.598395 319.281326 
L 262.80672 322.672056 
L 263.223371 304.512259 
L 263.431697 263.952477 
L 263.640022 289.121348 
L 263.848348 293.023083 
L 264.056674 322.513203 
L 264.473325 293.277144 
L 264.889976 260.338683 
L 265.098301 270.048831 
L 265.306627 247.198148 
L 265.723278 293.799379 
L 265.931604 281.081188 
L 266.139929 275.267756 
L 266.55658 311.031941 
L 266.764906 300.857788 
L 266.973231 279.443857 
L 267.181557 282.09095 
L 267.389882 289.391114 
L 267.806534 268.562426 
L 268.014859 277.903516 
L 268.223185 293.193184 
L 268.43151 281.371626 
L 269.264812 261.582512 
L 269.889789 196.445652 
L 270.098115 256.273717 
L 270.514766 226.628632 
L 270.723091 227.260768 
L 270.931417 260.366912 
L 271.139742 260.672726 
L 271.556394 233.683954 
L 271.973045 274.212518 
L 272.18137 287.274358 
L 272.389696 258.836677 
L 272.598021 263.698623 
L 272.806347 247.674777 
L 273.014672 217.247217 
L 273.222998 210.270501 
L 273.639649 256.523759 
L 273.847975 239.895577 
L 274.0563 235.15377 
L 274.264626 264.037622 
L 274.472951 260.448364 
L 274.681277 270.560694 
L 275.097928 270.560694 
L 275.306254 293.537545 
L 275.514579 260.5449 
L 275.93123 242.427883 
L 276.139556 265.160009 
L 276.556207 244.182424 
L 276.764532 253.482189 
L 276.972858 268.222688 
L 277.389509 272.581938 
L 278.014486 272.581938 
L 278.222811 226.972411 
L 278.431137 227.668561 
L 278.639462 263.20392 
L 278.847788 257.394748 
L 279.056113 258.796595 
L 279.264439 255.52565 
L 279.472765 248.300775 
L 279.68109 251.571077 
L 279.889416 246.361833 
L 280.097741 223.14592 
L 280.306067 177.709263 
L 280.514392 197.880208 
L 280.722718 197.880208 
L 280.931043 233.738823 
L 281.139369 228.08214 
L 281.347695 218.768116 
L 281.55602 180.194847 
L 281.972671 275.242953 
L 282.389322 209.86767 
L 282.597648 268.521839 
L 283.014299 240.070309 
L 283.222625 239.736724 
L 283.639276 220.77714 
L 283.847601 226.473373 
L 284.055927 241.329927 
L 284.472578 219.020412 
L 284.889229 240.932795 
L 285.097555 235.209411 
L 285.30588 234.284325 
L 285.514206 248.22148 
L 285.930857 232.364072 
L 286.139182 261.639763 
L 286.347508 258.227729 
L 286.764159 230.327851 
L 287.18081 269.755287 
L 287.597461 244.754613 
L 287.805787 251.361033 
L 288.014112 236.73459 
L 288.222438 231.70984 
L 288.847415 205.097405 
L 289.264066 240.823778 
L 289.472391 227.771348 
L 290.097368 248.632498 
L 290.305693 245.576912 
L 290.514019 245.654933 
L 290.722345 220.772468 
L 290.93067 231.789397 
L 291.347321 241.371977 
L 291.555647 253.412107 
L 291.763972 255.713843 
L 291.972298 233.214403 
L 292.180623 225.654865 
L 292.388949 234.144161 
L 292.597275 223.786005 
L 293.222251 241.040254 
L 293.430577 275.961904 
L 293.638902 252.901743 
L 293.847228 243.058623 
L 294.055553 238.956475 
L 294.263879 232.506572 
L 294.888856 232.506572 
L 295.097181 261.251068 
L 295.305507 255.520945 
L 295.513832 256.846137 
L 295.722158 247.646674 
L 295.930483 244.586938 
L 296.138809 259.995166 
L 296.55546 220.216482 
L 296.763786 218.170081 
L 296.972111 212.23645 
L 297.180437 249.781846 
L 297.388762 253.770751 
L 297.597088 252.089888 
L 297.805413 242.44154 
L 298.013739 243.437067 
L 298.222065 258.953277 
L 298.43039 254.496046 
L 298.638716 247.051205 
L 298.847041 244.79199 
L 299.055367 250.281766 
L 299.472018 234.580702 
L 299.888669 249.174467 
L 300.096995 268.563889 
L 300.30532 253.028991 
L 300.721971 265.6765 
L 300.930297 254.925883 
L 301.138622 256.508163 
L 301.346948 250.552653 
L 301.555273 254.485884 
L 301.971925 239.891489 
L 302.18025 260.336233 
L 302.388576 252.33284 
L 302.596901 262.498197 
L 302.805227 263.102146 
L 303.013552 259.934428 
L 303.221878 268.792824 
L 303.430203 258.102945 
L 304.05518 158.618859 
L 304.263506 211.970138 
L 304.471831 233.714323 
L 304.680157 225.986587 
L 304.888482 233.968155 
L 305.096808 248.123233 
L 305.513459 232.547298 
L 305.93011 262.527471 
L 306.138436 254.480318 
L 306.346761 239.713363 
L 306.555087 235.966299 
L 307.388389 184.016665 
L 307.80504 250.753654 
L 308.013366 269.876763 
L 308.221691 267.601426 
L 308.430017 270.868075 
L 308.638342 258.29911 
L 308.846668 256.392938 
L 309.054993 244.840999 
L 309.263319 220.07952 
L 309.888296 253.715797 
L 310.096621 237.355627 
L 310.304947 243.750101 
L 310.513272 261.887387 
L 310.929923 215.698326 
L 311.138249 201.686736 
L 311.346575 207.718183 
L 311.5549 261.270663 
L 311.971551 307.14696 
L 312.179877 298.161958 
L 312.388202 296.979839 
L 312.596528 286.187238 
L 313.013179 250.823736 
L 313.221505 250.051982 
L 313.42983 254.63621 
L 313.638156 249.931355 
L 313.846481 267.017407 
L 314.263132 237.877209 
L 314.679783 276.464494 
L 315.096435 262.639603 
L 315.513086 277.866139 
L 315.721411 260.149347 
L 316.346388 243.867101 
L 316.554713 244.063135 
L 316.763039 257.145155 
L 316.971365 283.000832 
L 317.388016 242.163955 
L 317.804667 287.159045 
L 318.012992 292.341315 
L 318.429643 266.572573 
L 319.05462 322.512909 
L 319.262946 319.607126 
L 319.471271 323.933537 
L 319.679597 293.008577 
L 319.887922 278.818983 
L 320.096248 326.078053 
L 320.304573 340.986883 
L 320.721225 285.322465 
L 320.92955 289.649301 
L 321.137876 288.901757 
L 321.346201 311.290699 
L 321.554527 319.401551 
L 321.762852 311.220617 
L 321.971178 314.039524 
L 322.179503 323.687862 
L 322.387829 326.241579 
L 322.596155 325.476947 
L 322.80448 329.876511 
L 323.012806 323.877471 
L 323.221131 328.920877 
L 323.429457 330.431696 
L 323.637782 316.109646 
L 323.846108 316.109646 
L 324.054433 316.989448 
L 324.471085 299.516881 
L 324.67941 309.206495 
L 324.887736 333.436689 
L 325.096061 332.13316 
L 325.512712 350.97594 
L 326.137689 325.302476 
L 326.55434 296.022113 
L 326.762666 298.881469 
L 327.179317 296.629493 
L 327.387642 288.105583 
L 327.595968 287.215111 
L 328.012619 258.196388 
L 328.42927 311.456754 
L 328.845921 301.184839 
L 329.054247 285.518186 
L 330.3042 285.518186 
L 330.929177 325.78838 
L 331.137502 310.501106 
L 331.345828 310.24881 
L 331.554153 295.760473 
L 331.762479 302.726648 
L 331.970805 301.29711 
L 332.387456 255.477197 
L 332.595781 261.719189 
L 332.804107 294.716819 
L 333.012432 309.664791 
L 333.220758 334.716858 
L 333.845735 305.296331 
L 334.262386 294.653173 
L 334.470711 299.021634 
L 334.679037 296.42859 
L 335.095688 280.226437 
L 335.304013 263.784279 
L 335.512339 257.103105 
L 335.92899 308.506098 
L 336.137316 298.633845 
L 336.345641 295.269897 
L 336.553967 307.147423 
L 336.762292 303.354873 
L 337.178943 282.373139 
L 337.387269 280.641396 
L 337.595595 281.20457 
L 337.80392 269.34881 
L 338.012246 282.080843 
L 338.220571 275.361867 
L 338.428897 278.772536 
L 338.637222 278.852159 
L 338.845548 284.68478 
L 339.053873 279.25844 
L 339.262199 277.230727 
L 339.470525 294.120548 
L 339.67885 281.82345 
L 339.887176 279.369689 
L 340.095501 285.154693 
L 340.303827 302.721976 
L 340.928803 252.94022 
L 341.345455 252.594481 
L 341.55378 253.285959 
L 341.762106 258.540745 
L 341.970431 279.203575 
L 342.387082 258.724341 
L 342.595408 254.565866 
L 342.803733 262.639076 
L 343.012059 262.393447 
L 343.220385 275.511735 
L 343.42871 228.080434 
L 343.637036 223.422296 
L 343.845361 283.84294 
L 344.262012 274.91395 
L 344.470338 283.444686 
L 344.678663 302.333393 
L 344.886989 280.621172 
L 345.095315 246.852408 
L 345.30364 252.025262 
L 345.511966 247.314951 
L 345.720291 247.609297 
L 346.136942 205.966425 
L 346.553593 274.844121 
L 346.761919 264.172068 
L 347.17857 283.288806 
L 347.595221 213.722194 
L 347.803547 235.42433 
L 348.011872 204.027483 
L 348.220198 201.714769 
L 348.428523 187.506761 
L 348.636849 227.983621 
L 348.845175 229.70054 
L 349.0535 217.637455 
L 349.261826 231.262882 
L 349.470151 266.850157 
L 349.678477 265.904488 
L 349.886802 274.899324 
L 350.303453 247.375689 
L 350.511779 252.290791 
L 350.720105 251.641362 
L 350.92843 265.77605 
L 351.136756 257.981469 
L 351.345081 262.233126 
L 351.761732 225.626505 
L 351.970058 217.505982 
L 352.178383 252.894521 
L 352.386709 266.522159 
L 352.595035 262.462061 
L 352.80336 262.695669 
L 353.011686 270.442093 
L 353.220011 256.014494 
L 353.428337 259.009342 
L 353.636662 243.250181 
L 354.053313 239.105984 
L 354.469965 198.319717 
L 354.67829 241.909274 
L 354.886616 245.675027 
L 355.303267 257.168515 
L 355.511592 253.940191 
L 355.719918 230.270949 
L 355.928243 232.373416 
L 356.136569 242.464865 
L 356.344895 233.284485 
L 356.55322 236.900729 
L 356.761546 229.462942 
L 356.969871 229.126272 
L 357.178197 219.249347 
L 357.386522 269.009419 
L 357.803173 240.601072 
L 358.011499 252.65414 
L 358.219825 231.102591 
L 358.42815 230.696114 
L 358.636476 230.793434 
L 358.844801 217.528177 
L 359.053127 244.695149 
L 359.261452 249.38458 
L 359.469778 204.041499 
L 359.678103 183.871829 
L 359.886429 196.094502 
L 360.094755 189.707344 
L 360.30308 190.987513 
L 360.511406 201.042529 
L 360.719731 201.448456 
L 360.928057 217.110777 
L 361.136382 207.839682 
L 361.344708 188.401952 
L 361.553033 250.403242 
L 361.761359 249.455645 
L 361.969685 238.400489 
L 362.17801 237.35276 
L 362.386336 238.344424 
L 362.594661 247.308257 
L 362.802987 262.88545 
L 363.219638 234.718835 
L 363.427963 256.635988 
L 363.636289 259.486035 
L 363.844615 240.395497 
L 364.05294 235.788758 
L 364.469591 244.596348 
L 364.677917 274.114403 
L 364.886242 274.114403 
L 365.094568 224.348782 
L 365.302893 228.398112 
L 365.511219 228.238563 
L 365.719545 249.763158 
L 365.92787 246.534702 
L 366.344521 251.347017 
L 366.552847 237.159378 
L 366.761172 242.605424 
L 366.969498 245.113382 
L 367.177823 235.939201 
L 367.594475 250.800298 
L 367.8028 253.677823 
L 368.011126 253.466898 
L 368.427777 220.993278 
L 368.844428 235.627022 
L 369.052753 225.995734 
L 369.261079 244.14114 
L 369.67773 212.791953 
L 369.886056 221.87488 
L 370.094381 204.935525 
L 370.302707 209.808893 
L 370.511032 218.51582 
L 370.719358 206.055196 
L 370.927683 219.7773 
L 371.136009 208.150718 
L 371.344335 210.346766 
L 371.55266 218.920173 
L 371.760986 237.788438 
L 372.177637 199.989929 
L 372.594288 222.384882 
L 373.219265 188.814963 
L 373.42759 222.304584 
L 373.635916 214.007195 
L 373.844241 189.864091 
L 374.052567 204.176992 
L 374.260892 201.752146 
L 374.469218 204.751666 
L 374.677543 176.601963 
L 374.885869 173.18195 
L 375.094195 226.341671 
L 375.30252 226.2529 
L 375.719171 194.690604 
L 375.927497 221.785538 
L 376.135822 234.35908 
L 376.344148 232.177186 
L 376.552473 215.572365 
L 376.760799 213.334405 
L 376.969125 222.529196 
L 377.17745 219.858393 
L 377.385776 225.165432 
L 377.594101 220.524844 
L 377.802427 222.342539 
L 378.010752 225.635915 
L 378.219078 203.95869 
L 378.635729 203.95869 
L 378.844055 256.910212 
L 379.05238 227.936573 
L 379.260706 230.937421 
L 379.677357 205.979167 
L 379.885682 230.612115 
L 380.094008 237.274501 
L 380.302333 234.554376 
L 380.510659 185.429365 
L 380.718985 191.636942 
L 380.92731 189.85218 
L 381.343961 253.530378 
L 381.552287 255.416459 
L 381.760612 261.894666 
L 381.968938 279.206197 
L 382.177263 282.431987 
L 382.593915 236.209251 
L 383.010566 214.483754 
L 383.218891 222.94969 
L 383.427217 277.300809 
L 383.635542 265.648467 
L 383.843868 286.266664 
L 384.67717 274.039126 
L 384.885496 257.76655 
L 385.093821 261.29545 
L 385.302147 268.593571 
L 385.510472 270.180453 
L 385.718798 261.359829 
L 385.927123 269.049792 
L 386.135449 259.09661 
L 386.343775 243.002557 
L 386.5521 271.437359 
L 386.760426 276.44674 
L 386.968751 273.016448 
L 387.177077 253.589648 
L 387.385402 244.59576 
L 387.593728 247.151426 
L 387.802053 268.647987 
L 388.010379 270.030617 
L 388.218704 269.033195 
L 388.635356 230.789557 
L 388.843681 257.61237 
L 389.468658 276.664745 
L 389.676983 275.174981 
L 389.885309 276.758513 
L 390.093634 255.879002 
L 390.30196 253.33268 
L 390.510286 257.751031 
L 390.718611 238.568687 
L 391.135262 284.860347 
L 391.343588 285.892893 
L 391.760239 263.375646 
L 391.968564 265.498958 
L 392.17689 272.605298 
L 392.385216 306.744697 
L 392.593541 260.658611 
L 393.010192 291.752781 
L 393.218518 333.375951 
L 393.426843 351.204875 
L 393.635169 336.519165 
L 394.05182 369.36 
L 394.260146 360.687836 
L 394.676797 323.218698 
L 395.093448 314.862868 
L 395.92675 276.249575 
L 396.135076 299.211349 
L 396.343401 296.078706 
L 396.551727 309.729907 
L 396.968378 286.747896 
L 397.176703 287.640277 
L 397.593354 281.342219 
L 397.80168 292.570786 
L 398.010006 294.601319 
L 398.218331 298.367761 
L 398.426657 285.715351 
L 398.843308 304.239807 
L 399.051633 274.43101 
L 399.259959 281.825606 
L 399.468284 282.234599 
L 399.67661 288.396764 
L 399.884936 282.874782 
L 400.093261 285.280841 
L 400.301587 282.485827 
L 400.509912 285.313546 
L 400.718238 283.898851 
L 400.926563 283.715671 
L 401.134889 284.734199 
L 401.343214 279.764894 
L 401.55154 269.743623 
L 401.759866 268.77443 
L 401.968191 252.704168 
L 402.176517 269.017087 
L 402.593168 275.751681 
L 402.801493 274.661044 
L 403.009819 279.334486 
L 403.218144 277.78204 
L 403.42647 288.770865 
L 403.634796 272.236199 
L 403.843121 273.226694 
L 404.051447 258.983694 
L 404.259772 267.951086 
L 404.468098 284.808954 
L 404.676423 248.263398 
L 404.884749 241.489284 
L 405.718051 316.701408 
L 405.926377 308.164481 
L 406.134702 314.951662 
L 406.343028 311.70652 
L 406.551353 299.233449 
L 407.17633 215.687434 
L 407.592981 245.133057 
L 407.801307 239.704554 
L 408.009632 213.404488 
L 408.217958 215.676469 
L 409.05126 270.755752 
L 409.259586 264.794613 
L 409.467911 269.522496 
L 410.92619 269.522496 
L 411.134516 261.246714 
L 411.342841 245.422731 
L 411.551167 252.865465 
L 411.759492 254.951662 
L 411.967818 241.951323 
L 412.176143 216.983354 
L 412.384469 237.115923 
L 412.592794 245.052012 
L 413.009446 215.718218 
L 413.217771 241.007827 
L 413.426097 234.25162 
L 413.634422 218.980699 
L 414.051073 252.893498 
L 414.259399 239.647953 
L 414.467724 261.949933 
L 414.67605 254.007293 
L 414.884376 254.379242 
L 415.092701 244.987167 
L 415.301027 266.955399 
L 415.509352 275.465364 
L 415.717678 273.53571 
L 415.926003 274.048993 
L 416.134329 269.47963 
L 416.342654 268.063969 
L 416.55098 261.658451 
L 416.967631 232.25194 
L 417.175957 258.401963 
L 417.384282 266.618322 
L 417.592608 296.927218 
L 417.800933 301.726808 
L 418.217584 260.404446 
L 418.42591 271.264391 
L 418.842561 229.73398 
L 419.050887 196.010074 
L 419.259212 218.422377 
L 419.467538 265.271297 
L 419.675863 252.246286 
L 419.884189 261.228613 
L 420.30084 243.247199 
L 420.509166 249.375369 
L 420.717491 247.599952 
L 420.925817 232.849975 
L 421.134142 242.22698 
L 421.342468 258.4602 
L 421.550793 265.274695 
L 421.759119 232.789237 
L 421.967444 259.621394 
L 422.17577 267.821017 
L 422.592421 249.347336 
L 422.800747 272.533582 
L 423.009072 268.662004 
L 423.425723 235.443018 
L 423.842374 151.605537 
L 424.0507 159.263615 
L 424.259026 248.730613 
L 424.467351 251.253771 
L 424.675677 236.167202 
L 424.884002 242.231652 
L 425.092328 243.580107 
L 425.300653 254.299815 
L 425.717304 239.180738 
L 425.92563 241.55419 
L 426.342281 195.203766 
L 426.758932 130.609927 
L 427.175583 239.942299 
L 427.383909 252.216036 
L 427.592234 241.227695 
L 427.80056 242.203619 
L 428.008886 232.630384 
L 428.217211 234.812278 
L 428.425537 243.941659 
L 428.633862 241.647633 
L 428.842188 234.499244 
L 429.050513 209.764883 
L 429.258839 219.90812 
L 429.467164 238.281251 
L 429.67549 224.229859 
L 429.883816 222.77682 
L 430.092141 268.717972 
L 430.508792 243.778134 
L 430.717118 255.383754 
L 431.133769 232.209891 
L 431.342094 241.29255 
L 431.55042 238.022045 
L 431.758746 231.728659 
L 431.967071 194.010394 
L 432.175397 207.625038 
L 432.383722 232.037021 
L 432.592048 220.215959 
L 432.800373 235.828471 
L 433.008699 204.681584 
L 433.217024 213.100798 
L 433.42535 242.446244 
L 433.633676 247.254213 
L 434.050327 198.710576 
L 434.258652 238.578031 
L 434.466978 218.291556 
L 434.675303 250.599473 
L 434.883629 243.504829 
L 435.30028 216.717042 
L 435.508606 232.875852 
L 435.716931 213.742184 
L 435.925257 206.245716 
L 436.341908 178.006709 
L 436.550233 188.698355 
L 436.758559 235.896217 
L 436.966884 225.75824 
L 437.17521 222.104031 
L 437.383536 233.45869 
L 437.591861 212.684822 
L 437.800187 222.183457 
L 438.008512 213.895063 
L 438.216838 218.632623 
L 438.425163 205.989786 
L 438.633489 227.745745 
L 438.841814 197.915102 
L 439.05014 210.90956 
L 439.258466 211.647759 
L 439.466791 198.135902 
L 439.675117 192.010714 
L 439.883442 189.263489 
L 440.091768 190.85202 
L 440.300093 188.272994 
L 440.508419 182.8533 
L 440.716744 191.8285 
L 440.92507 174.261216 
L 441.133396 166.44471 
L 441.341721 165.155196 
L 441.550047 162.553658 
L 441.758372 156.717294 
L 441.966698 188.160862 
L 442.383349 205.082402 
L 442.591674 198.224673 
L 442.8 208.405287 
L 443.008326 209.003323 
L 443.216651 200.051483 
L 443.424977 216.365029 
L 443.633302 205.765523 
L 443.841628 186.436839 
L 444.049953 185.320195 
L 444.258279 173.981671 
L 444.466604 201.668047 
L 444.67493 192.449896 
L 444.883256 224.108383 
L 445.091581 194.244001 
L 445.299907 180.998456 
L 445.716558 191.474996 
L 445.924883 196.758664 
L 446.133209 190.02505 
L 446.54986 200.756815 
L 446.758186 209.503243 
L 446.966511 182.431532 
L 447.174837 177.734927 
L 447.383162 169.962838 
L 447.591488 183.325187 
L 447.799813 179.274433 
L 448.008139 183.941911 
L 448.216464 191.22112 
L 448.42479 183.171006 
L 448.633116 181.091899 
L 448.841441 191.09115 
L 449.049767 191.529482 
L 449.258092 167.243647 
L 449.466418 171.383172 
L 449.674743 170.095488 
L 449.883069 205.797833 
L 450.091394 182.553858 
L 450.924697 202.971577 
L 451.133022 214.731378 
L 451.341348 203.382105 
L 451.549673 184.242577 
L 451.757999 191.856533 
L 451.966324 193.169407 
L 452.382976 181.674056 
L 453.216278 154.213021 
L 453.424603 174.55089 
L 453.632929 172.906293 
L 454.04958 161.188541 
L 454.257906 168.27152 
L 454.466231 143.069944 
L 454.674557 172.87826 
L 454.882882 168.920949 
L 455.091208 178.94271 
L 455.299533 180.834931 
L 455.507859 196.555408 
L 455.92451 163.973142 
L 456.132836 163.281664 
L 456.341161 150.984566 
L 456.549487 162.122971 
L 456.757812 212.53403 
L 457.174463 229.31251 
L 457.382789 215.095806 
L 457.591114 217.880407 
L 457.79944 210.676371 
L 458.007766 192.337764 
L 458.216091 164.150684 
L 458.424417 199.279501 
L 458.632742 198.248034 
L 458.841068 190.071771 
L 459.049393 206.232738 
L 459.466044 173.466951 
L 459.67437 189.585868 
L 459.882696 190.506281 
L 460.091021 205.593372 
L 460.299347 201.766162 
L 460.507672 181.48436 
L 460.715998 186.782578 
L 460.924323 179.837974 
L 461.340974 218.132703 
L 461.5493 209.964152 
L 461.757626 184.217568 
L 462.590928 233.114606 
L 462.799253 227.995612 
L 463.007579 216.997371 
L 463.215904 194.482281 
L 463.632556 219.717248 
L 463.840881 184.958022 
L 464.049207 212.138335 
L 464.257532 218.501803 
L 464.465858 203.798548 
L 464.674183 203.364705 
L 464.882509 214.572525 
L 465.090834 214.572525 
L 465.29916 194.451681 
L 465.715811 237.55483 
L 465.924137 245.502157 
L 466.340788 243.282886 
L 466.757439 194.61626 
L 466.965764 221.38452 
L 467.17409 233.433994 
L 467.382416 231.864152 
L 467.590741 227.009788 
L 467.799067 231.324986 
L 468.007392 245.838552 
L 468.215718 209.579846 
L 468.424043 221.654677 
L 469.257346 221.654677 
L 469.465671 146.719109 
L 469.673997 145.439391 
L 471.757252 145.439391 
L 471.965578 299.756367 
L 472.173903 290.443402 
L 472.79888 244.568718 
L 473.215531 274.951385 
L 473.423857 267.050112 
L 473.632182 267.050112 
L 474.048833 320.938688 
L 474.257159 306.867023 
L 474.67381 323.076795 
L 474.882136 319.326797 
L 475.090461 331.292173 
L 475.298787 333.284599 
L 475.507112 329.199049 
L 476.132089 284.020406 
L 476.757066 263.783449 
L 477.173717 284.706166 
L 477.382042 282.412922 
L 477.590368 283.834811 
L 477.798693 288.708565 
L 478.007019 287.69252 
L 478.215344 275.973918 
L 478.42367 276.805561 
L 478.631996 276.805561 
L 478.840321 279.048193 
L 479.048647 296.316459 
L 479.256972 277.861323 
L 479.465298 295.091698 
L 479.673623 295.433188 
L 479.881949 263.34265 
L 480.090274 290.082569 
L 480.2986 274.593298 
L 480.506926 240.793737 
L 480.715251 263.828665 
L 481.131902 273.71823 
L 481.340228 250.070409 
L 481.548553 264.548176 
L 481.965204 241.239138 
L 482.17353 261.73087 
L 482.381856 254.918875 
L 482.798507 229.899513 
L 483.423483 274.406412 
L 483.840134 237.486876 
L 484.04846 235.386953 
L 484.465111 210.262467 
L 484.673437 254.612849 
L 484.881762 274.530224 
L 485.090088 262.52695 
L 485.298413 263.025055 
L 485.506739 258.787415 
L 485.715064 271.236358 
L 485.92339 263.638108 
L 486.131716 265.723222 
L 486.340041 275.530064 
L 486.756692 252.300099 
L 487.173343 279.223399 
L 487.381669 278.845948 
L 487.589994 273.905768 
L 487.79832 276.819578 
L 488.423297 250.64675 
L 488.631622 249.010209 
L 488.839948 273.158847 
L 489.048273 275.488015 
L 489.256599 274.689077 
L 489.464924 249.040556 
L 489.881576 239.219759 
L 490.089901 210.05874 
L 490.506552 230.656401 
L 490.714878 256.839129 
L 490.923203 258.394955 
L 491.131529 248.269437 
L 491.339854 256.474701 
L 491.54818 242.481612 
L 491.756506 244.265519 
L 491.964831 255.797239 
L 492.173157 251.75583 
L 492.381482 264.779447 
L 492.589808 218.373669 
L 492.798133 265.989534 
L 493.006459 244.335845 
L 493.214784 245.123713 
L 493.42311 261.628082 
L 493.631436 257.656935 
L 493.839761 270.987221 
L 494.048087 255.119778 
L 494.464738 278.310547 
L 494.673063 291.31025 
L 494.881389 278.312329 
L 495.089714 284.81129 
L 495.506366 260.483406 
L 495.714691 262.602226 
L 495.923017 253.057023 
L 496.131342 237.825815 
L 496.339668 272.362789 
L 496.547993 273.976574 
L 496.964644 209.197266 
L 497.381296 267.22253 
L 497.589621 272.361798 
L 497.797947 269.264115 
L 498.006272 278.794889 
L 498.214598 264.760225 
L 498.422923 267.879419 
L 498.631249 268.82099 
L 498.839574 268.099855 
L 499.0479 251.909986 
L 499.256225 273.942294 
L 499.464551 273.942294 
L 499.672877 229.710291 
L 499.881202 229.710291 
L 500.089528 228.526992 
L 500.297853 261.359531 
L 500.506179 268.525985 
L 500.714504 284.283337 
L 500.92283 266.190958 
L 501.339481 262.267982 
L 501.547807 287.879891 
L 502.381109 287.879891 
L 502.589434 249.506714 
L 502.79776 244.291346 
L 503.006085 263.250622 
L 503.214411 267.331634 
L 503.422737 264.190756 
L 503.631062 265.556907 
L 503.839388 260.185256 
L 504.047713 263.414878 
L 504.256039 249.954048 
L 504.464364 250.24479 
L 504.67269 260.040308 
L 504.881015 276.268761 
L 505.089341 274.895707 
L 505.297667 261.127378 
L 505.714318 272.257223 
L 505.922643 278.636393 
L 506.339294 262.525602 
L 506.54762 226.516943 
L 506.964271 250.034142 
L 507.172597 241.810717 
L 507.380922 242.443191 
L 507.589248 244.253714 
L 507.797573 239.136427 
L 508.005899 202.72501 
L 508.42255 232.185027 
L 508.630875 257.574992 
L 508.839201 215.394824 
L 509.464178 265.349253 
L 509.672503 244.047669 
L 509.880829 253.799439 
L 510.089154 254.56797 
L 510.29748 240.921114 
L 510.714131 247.219172 
L 510.922457 260.065248 
L 511.130782 231.658333 
L 511.339108 228.409407 
L 511.547433 207.699793 
L 511.755759 221.852483 
L 511.964084 213.889113 
L 512.17241 213.397479 
L 512.380735 220.009931 
L 512.589061 204.174761 
L 513.005712 227.028509 
L 513.214038 214.196139 
L 513.422363 223.727603 
L 513.630689 214.786165 
L 513.839014 211.353758 
L 514.04734 203.714182 
L 514.255665 226.879591 
L 514.463991 234.039654 
L 514.880642 199.88732 
L 515.088968 193.69202 
L 515.297293 201.504505 
L 515.505619 224.525559 
L 515.713944 199.136324 
L 515.92227 208.417476 
L 516.130595 210.031803 
L 516.338921 197.906357 
L 516.547247 155.48727 
L 516.755572 179.655248 
L 516.963898 235.800196 
L 517.172223 226.401572 
L 517.380549 222.151158 
L 517.588874 214.872355 
L 517.7972 229.032423 
L 518.005525 219.524454 
L 518.422177 175.842602 
L 518.630502 202.474413 
L 519.047153 217.614193 
L 519.255479 194.494696 
L 519.463804 199.79122 
L 519.67213 193.90267 
L 520.088781 199.402055 
L 520.297107 214.913608 
L 520.505432 201.017237 
L 520.713758 218.67464 
L 520.922083 210.166459 
L 521.130409 212.484025 
L 521.338734 212.747554 
L 521.54706 193.921757 
L 521.963711 210.037642 
L 522.172037 167.534688 
L 522.380362 174.583889 
L 522.588688 200.6139 
L 522.797013 210.494764 
L 523.005339 206.995391 
L 523.42199 227.701299 
L 523.630315 209.390163 
L 523.838641 209.255041 
L 524.046967 205.421884 
L 524.255292 218.653958 
L 524.463618 215.69821 
L 524.880269 156.924773 
L 525.088594 186.404222 
L 526.130222 219.198249 
L 526.338548 227.809955 
L 526.755199 190.410183 
L 527.17185 136.69416 
L 527.380175 148.287576 
L 527.796827 223.832858 
L 528.005152 235.053605 
L 528.213478 221.563377 
L 528.421803 226.436536 
L 528.630129 237.340948 
L 528.838454 220.112303 
L 529.04678 224.665619 
L 529.255105 215.535056 
L 529.671757 149.884397 
L 529.880082 163.506832 
L 530.088408 237.494394 
L 530.296733 222.538691 
L 530.505059 185.236745 
L 530.92171 228.279394 
L 531.130035 223.607469 
L 531.338361 234.762156 
L 531.546687 232.925542 
L 531.755012 238.689444 
L 532.171663 226.461082 
L 532.379989 239.901902 
L 532.588314 231.586893 
L 532.79664 193.468876 
L 533.004965 201.286141 
L 533.213291 220.152861 
L 533.421617 206.332649 
L 533.629942 215.218501 
L 533.838268 213.612741 
L 534.046593 222.281077 
L 534.463244 179.942616 
L 534.67157 189.345534 
L 534.879895 214.715988 
L 535.088221 221.314635 
L 535.296547 217.716981 
L 535.504872 222.723814 
L 535.713198 220.623962 
L 535.921523 215.629938 
L 536.129849 215.629938 
L 536.338174 227.137718 
L 536.5465 227.870223 
L 536.754825 230.377803 
L 536.963151 228.38209 
L 537.171477 220.264519 
L 537.379802 223.794726 
L 537.588128 224.178728 
L 537.796453 228.917528 
L 538.004779 216.716309 
L 538.213104 197.900327 
L 538.42143 221.250416 
L 538.629755 258.668373 
L 538.838081 266.884284 
L 539.046407 263.632674 
L 539.254732 268.424733 
L 539.463058 263.813247 
L 539.671383 256.198355 
L 539.879709 260.308147 
L 540.088034 288.355115 
L 540.29636 295.089893 
L 540.504685 291.152692 
L 540.921337 272.629878 
L 541.129662 299.097322 
L 541.337988 277.202578 
L 541.546313 284.473915 
L 541.754639 266.701996 
L 541.962964 260.574202 
L 542.379615 241.570971 
L 542.587941 217.144199 
L 543.421243 322.69715 
L 544.04622 312.786635 
L 544.462871 319.550284 
L 544.671197 310.31312 
L 544.879522 280.208112 
L 545.087848 282.25845 
L 545.296173 285.422894 
L 545.504499 296.88774 
L 545.92115 253.704116 
L 546.129475 259.02031 
L 546.337801 246.934179 
L 546.546127 262.297641 
L 546.754452 298.812989 
L 546.962778 290.374268 
L 547.379429 309.869055 
L 547.587754 309.858986 
L 547.79608 319.63511 
L 548.212731 293.322545 
L 548.421057 301.235193 
L 548.629382 314.59075 
L 548.837708 272.419491 
L 549.046033 267.384146 
L 549.254359 303.913374 
L 549.67101 329.230474 
L 549.879335 327.293409 
L 550.087661 355.784257 
L 550.504312 331.927093 
L 550.712638 344.122422 
L 550.920963 336.306415 
L 551.129289 344.921823 
L 551.754265 295.025175 
L 551.962591 298.176663 
L 552.170917 305.065161 
L 552.379242 315.692799 
L 552.587568 312.875611 
L 552.795893 303.184721 
L 553.004219 299.071132 
L 553.212544 283.010449 
L 553.629195 268.313797 
L 553.837521 297.870222 
L 554.045847 275.569676 
L 554.254172 271.859968 
L 554.462498 253.844775 
L 554.670823 253.844775 
L 555.087474 283.67282 
L 555.2958 264.540938 
L 555.504125 267.209588 
L 555.920777 290.415806 
L 556.129102 280.461914 
L 556.337428 285.845162 
L 556.545753 269.441103 
L 556.754079 271.904846 
L 556.962404 261.57875 
L 557.379055 302.698138 
L 557.795707 315.895647 
L 558.004032 308.138333 
L 558.212358 283.990351 
L 558.420683 283.92348 
L 559.04566 205.82124 
L 559.253985 234.744024 
L 559.462311 235.590321 
L 559.670637 242.887427 
L 559.878962 258.115319 
L 560.087288 259.75826 
L 560.295613 246.10393 
L 560.503939 202.056914 
L 560.712264 209.850898 
L 561.337241 287.218849 
L 561.545567 293.703658 
L 561.753892 283.61655 
L 562.170543 246.644897 
L 562.378869 249.399518 
L 562.587194 228.525025 
L 562.79552 262.496538 
L 563.003845 257.761029 
L 563.212171 269.557113 
L 563.420497 240.97772 
L 563.628822 243.486689 
L 563.837148 250.916618 
L 564.045473 252.264529 
L 564.253799 240.582141 
L 564.462124 247.988199 
L 564.878775 295.709248 
L 565.087101 298.377032 
L 565.295427 262.607209 
L 565.503752 249.443821 
L 565.712078 279.824425 
L 565.920403 283.722136 
L 566.128729 263.194314 
L 566.337054 273.585076 
L 566.54538 278.059956 
L 566.753705 250.09885 
L 566.962031 239.28248 
L 567.170357 277.083782 
L 567.378682 259.14357 
L 567.587008 256.034121 
L 568.003659 280.259376 
L 568.42031 262.879063 
L 568.628635 256.315604 
L 568.836961 255.584555 
L 569.253612 289.377254 
L 569.461938 282.438384 
L 569.670263 283.791278 
L 569.878589 277.750435 
L 570.29524 281.998892 
L 570.503565 282.035877 
L 570.920217 223.296538 
L 571.128542 156.559487 
L 571.336868 227.440578 
L 571.961844 275.013092 
L 572.17017 260.949479 
L 572.378495 275.14009 
L 572.586821 271.278559 
L 572.795147 274.500589 
L 573.003472 261.974832 
L 573.211798 212.164133 
L 573.420123 193.515197 
L 573.836774 210.440907 
L 574.0451 229.516682 
L 574.253425 228.805845 
L 574.461751 256.33935 
L 574.670077 261.864327 
L 574.878402 264.16201 
L 575.086728 279.007876 
L 575.295053 277.01853 
L 575.503379 278.40953 
L 575.711704 268.181622 
L 575.92003 270.563425 
L 576.128355 215.042981 
L 576.336681 208.88857 
L 576.545007 266.966013 
L 576.753332 268.794671 
L 577.169983 244.360527 
L 577.378309 273.965175 
L 577.79496 255.951702 
L 578.003285 274.767404 
L 578.211611 268.719898 
L 578.419937 275.203451 
L 578.628262 271.162315 
L 579.044913 245.181959 
L 579.253239 245.508103 
L 579.461564 249.354211 
L 579.66989 204.000687 
L 580.294867 280.901662 
L 580.503192 268.416639 
L 580.919843 263.49359 
L 581.128169 262.559548 
L 581.336494 266.122254 
L 581.54482 261.355602 
L 581.961471 211.651841 
L 582.169797 253.099479 
L 582.378122 254.93623 
L 582.586448 248.604678 
L 582.794773 261.201736 
L 583.003099 253.547324 
L 583.211424 211.09978 
L 583.628075 269.558656 
L 584.669703 269.558656 
L 584.878029 229.489231 
L 585.086354 239.711283 
L 585.29468 262.714357 
L 585.503005 262.699574 
L 585.711331 263.429804 
L 585.919657 233.435122 
L 586.336308 224.139989 
L 586.544633 193.44547 
L 586.752959 233.311991 
L 586.961284 228.644832 
L 587.16961 268.474693 
L 587.377935 245.650984 
L 587.586261 243.144223 
L 587.794587 237.833065 
L 588.002912 237.238659 
L 588.211238 241.365453 
L 588.419563 259.388064 
L 588.627889 289.291225 
L 588.836214 254.280469 
L 589.04454 264.567198 
L 589.252865 262.664747 
L 589.461191 263.64735 
L 589.669517 256.92364 
L 589.877842 270.256912 
L 590.086168 271.647508 
L 590.294493 268.170248 
L 590.91947 229.672783 
L 591.127795 235.849789 
L 591.336121 253.257926 
L 591.752772 253.257926 
L 591.961098 248.083911 
L 592.169423 254.256487 
L 592.377749 268.435964 
L 592.586074 258.424075 
L 592.7944 286.029506 
L 593.419377 286.029506 
L 593.627702 210.255037 
L 593.836028 242.345004 
L 596.752585 242.345004 
L 596.960911 265.771812 
L 597.169237 241.357804 
L 597.585888 250.501659 
L 597.794213 231.05587 
L 598.835841 231.05587 
L 599.044167 234.858486 
L 599.252492 247.594261 
L 599.460818 248.856453 
L 599.669143 247.215325 
L 599.877469 254.630915 
L 600.085794 242.946974 
L 600.29412 256.374932 
L 600.502445 257.309726 
L 600.710771 227.7686 
L 600.919097 227.687133 
L 601.127422 233.173178 
L 601.335748 235.670708 
L 601.752399 206.835445 
L 602.794027 206.835445 
L 603.002352 208.720245 
L 603.210678 188.587546 
L 603.419003 239.318113 
L 603.627329 260.574821 
L 603.835654 256.161544 
L 604.252305 261.025587 
L 604.460631 227.255718 
L 604.668957 231.302811 
L 604.877282 261.937406 
L 605.085608 259.462823 
L 605.293933 252.726776 
L 605.502259 190.119212 
L 605.710584 187.054392 
L 605.91891 242.011989 
L 606.127235 251.249751 
L 606.335561 250.609604 
L 606.543887 235.207723 
L 606.752212 205.247662 
L 606.960538 154.983478 
L 607.168863 133.840268 
L 607.585514 265.960776 
L 607.79384 274.283203 
L 608.002165 267.692541 
L 608.210491 248.789781 
L 608.627142 256.959653 
L 608.835468 237.811798 
L 609.043793 242.975043 
L 609.252119 231.597442 
L 609.66877 180.8398 
L 609.877095 270.71944 
L 610.085421 274.114403 
L 610.293746 274.114403 
L 610.502072 274.659843 
L 610.710398 230.830809 
L 610.918723 229.312047 
L 611.127049 229.369021 
L 611.5437 236.187732 
L 611.752025 243.215371 
L 612.168676 213.532875 
L 612.793653 255.775301 
L 613.210304 211.598157 
L 613.41863 226.074145 
L 613.626955 231.842023 
L 613.835281 224.810351 
L 614.043606 221.824236 
L 614.460258 245.993943 
L 614.668583 248.900562 
L 614.876909 249.302125 
L 615.085234 231.420187 
L 615.29356 226.432065 
L 615.501885 244.858821 
L 615.918536 219.123605 
L 616.126862 209.714589 
L 616.335188 213.154774 
L 616.543513 197.502206 
L 616.751839 226.907466 
L 616.960164 232.370993 
L 617.376815 253.0706 
L 617.585141 249.572564 
L 617.793466 278.831753 
L 618.001792 286.916472 
L 618.210118 263.374688 
L 618.418443 261.462677 
L 618.626769 266.614413 
L 619.04342 282.080331 
L 619.251745 286.950173 
L 619.460071 302.552007 
L 619.668396 294.326017 
L 619.876722 291.219179 
L 620.293373 279.991561 
L 620.710024 301.525924 
L 621.126675 267.22333 
L 621.335001 282.290259 
L 621.751652 298.861934 
L 622.168303 329.31299 
L 622.584954 246.511145 
L 622.79328 257.180508 
L 623.001605 303.767966 
L 623.209931 298.605879 
L 623.418256 289.781534 
L 623.626582 260.661085 
L 623.834908 263.732093 
L 624.251559 337.492185 
L 624.459884 338.281709 
L 624.66821 328.813933 
L 625.084861 286.939147 
L 625.709838 342.10095 
L 625.918163 344.072286 
L 626.334814 323.804374 
L 626.751465 292.979521 
L 626.959791 294.251775 
L 627.168116 272.096034 
L 627.376442 272.096034 
L 627.584768 294.255886 
L 627.793093 302.190334 
L 628.001419 299.473782 
L 628.41807 345.8835 
L 628.834721 248.673919 
L 629.043046 277.118018 
L 629.251372 267.161428 
L 629.668023 327.864174 
L 629.876349 320.201703 
L 630.084674 306.758522 
L 630.293 330.534002 
L 630.501325 329.126685 
L 630.709651 325.630423 
L 631.126302 289.614622 
L 631.334628 312.175767 
L 631.542953 300.542049 
L 631.751279 309.493692 
L 631.959604 326.131141 
L 632.16793 327.866877 
L 632.584581 313.533756 
L 632.792906 298.701574 
L 633.001232 296.949818 
L 633.209558 288.741612 
L 633.417883 290.163022 
L 633.626209 296.641599 
L 633.834534 293.2877 
L 634.04286 266.982358 
L 634.251185 256.791281 
L 634.459511 271.246577 
L 634.667836 275.978079 
L 635.292813 237.255847 
L 635.501139 247.786235 
L 635.91779 290.076782 
L 636.334441 278.593046 
L 636.542766 260.227528 
L 636.751092 252.80084 
L 636.959418 253.49415 
L 637.376069 291.369025 
L 637.584394 291.732159 
L 637.79272 268.879713 
L 638.001045 281.605939 
L 638.209371 314.643343 
L 638.417696 328.022273 
L 638.626022 325.312742 
L 638.834348 316.00503 
L 639.042673 315.600733 
L 639.250999 321.58871 
L 639.459324 313.599511 
L 639.875975 285.263833 
L 640.084301 289.718701 
L 640.292626 285.49576 
L 640.500952 326.648845 
L 640.709278 322.067656 
L 641.54258 245.941641 
L 641.750905 265.194994 
L 641.959231 250.820489 
L 642.167556 225.515531 
L 642.375882 214.148375 
L 642.584208 268.081723 
L 642.792533 258.703621 
L 643.000859 303.717144 
L 643.209184 296.116924 
L 643.41751 266.466776 
L 643.625835 261.544786 
L 643.834161 242.7167 
L 644.042486 275.139261 
L 644.250812 288.915773 
L 644.667463 273.295139 
L 644.875789 270.670717 
L 645.084114 274.772406 
L 645.29244 248.639583 
L 645.500765 251.850961 
L 645.709091 268.861377 
L 646.125742 226.921272 
L 646.542393 265.725481 
L 646.750719 271.971714 
L 646.959044 246.639328 
L 647.16737 265.819076 
L 647.375695 258.949429 
L 647.584021 306.558349 
L 647.792346 300.892854 
L 648.208998 255.722435 
L 648.417323 254.743871 
L 648.625649 279.746532 
L 648.833974 290.197399 
L 649.0423 263.993307 
L 649.250625 276.745491 
L 649.458951 262.970561 
L 649.667276 260.043696 
L 649.875602 248.054697 
L 650.083928 251.270906 
L 650.292253 236.265183 
L 650.500579 261.664099 
L 650.91723 274.461887 
L 651.125555 264.939779 
L 651.333881 262.605407 
L 651.542206 245.725556 
L 651.750532 216.254499 
L 654.042113 216.254499 
L 654.250439 257.886603 
L 654.875415 279.518738 
L 655.083741 280.780461 
L 655.292066 280.145566 
L 655.500392 286.616672 
L 656.125369 223.463643 
L 656.333694 224.327974 
L 656.750345 267.209959 
L 656.958671 274.369431 
L 657.166996 275.865599 
L 657.375322 261.804304 
L 657.583648 265.995274 
L 657.791973 264.92205 
L 658.208624 282.632399 
L 658.41695 281.267991 
L 658.625275 261.312109 
L 658.833601 257.361703 
L 659.041926 245.668656 
L 659.250252 265.316574 
L 659.458578 265.054652 
L 659.666903 256.479599 
L 659.875229 274.234974 
L 660.083554 268.488531 
L 660.29188 242.977314 
L 660.500205 254.883425 
L 660.708531 256.385288 
L 660.916856 268.434978 
L 661.541833 235.31384 
L 661.750159 226.75902 
L 662.375135 147.282396 
L 662.583461 214.654221 
L 662.791786 227.162226 
L 663.000112 208.936563 
L 663.208438 220.230951 
L 663.416763 243.838872 
L 663.625089 249.363975 
L 663.833414 250.628361 
L 664.04174 227.306774 
L 664.250065 251.137393 
L 664.666716 266.894759 
L 664.875042 269.057783 
L 665.083368 263.764536 
L 665.291693 264.36494 
L 665.91667 258.781626 
L 666.124995 245.289735 
L 666.333321 210.554407 
L 666.541646 221.178432 
L 666.749972 256.84279 
L 667.166623 249.831913 
L 667.374949 253.933153 
L 667.583274 288.680297 
L 669.041553 288.680297 
L 669.249879 237.075699 
L 669.458204 216.271563 
L 669.66653 239.525936 
L 669.874855 236.586105 
L 670.083181 228.154763 
L 670.291506 243.996179 
L 670.499832 240.604119 
L 670.708158 257.179185 
L 670.916483 262.451844 
L 671.124809 249.939795 
L 671.333134 254.003845 
L 671.54146 243.77795 
L 674.458018 243.77795 
L 674.666343 242.089619 
L 674.874669 225.4854 
L 675.29132 235.704894 
L 675.499645 218.294807 
L 675.707971 216.565601 
L 675.916296 225.700762 
L 676.124622 244.888132 
L 676.332948 249.115751 
L 676.541273 246.631072 
L 676.749599 221.737857 
L 676.957924 210.743917 
L 677.374575 249.994394 
L 677.582901 250.329165 
L 677.999552 82.596128 
L 678.207878 66.96 
L 678.416203 141.187875 
L 678.624529 171.010646 
L 678.832854 171.713337 
L 679.04118 202.436634 
L 679.249505 184.633389 
L 679.457831 184.633389 
L 679.666156 200.848841 
L 679.874482 162.298227 
L 680.082808 158.006355 
L 680.707784 229.866519 
L 680.91611 231.115234 
L 681.124435 234.908893 
L 681.749412 218.258399 
L 681.957738 226.071111 
L 682.166063 246.16148 
L 682.374389 242.170654 
L 682.79104 211.303783 
L 682.999365 202.98912 
L 683.207691 170.599849 
L 683.416016 162.885527 
L 683.624342 222.137614 
L 683.832668 244.459526 
L 684.040993 228.046571 
L 684.249319 231.629181 
L 684.457644 223.578731 
L 684.66597 249.325675 
L 684.874295 241.73833 
L 685.082621 239.004754 
L 685.290946 215.735783 
L 685.499272 233.665642 
L 685.707598 216.669567 
L 685.915923 178.343466 
L 686.124249 235.698631 
L 686.5409 257.844662 
L 686.749225 251.772182 
L 686.957551 208.552048 
L 687.374202 179.47616 
L 687.790853 285.240724 
L 687.999179 252.540449 
L 688.207504 268.949753 
L 688.41583 259.996133 
L 688.624155 236.873364 
L 689.040806 131.284234 
L 689.457458 165.751083 
L 689.874109 276.242411 
L 690.082434 281.851483 
L 690.707411 251.06528 
L 690.915736 258.573731 
L 691.124062 240.796368 
L 691.540713 291.382669 
L 691.749039 272.929012 
L 691.957364 266.661765 
L 692.374015 233.565126 
L 692.790666 263.777674 
L 692.998992 262.088931 
L 693.207318 245.006212 
L 693.415643 265.572686 
L 693.623969 253.234422 
L 693.832294 272.788982 
L 694.04062 275.577453 
L 694.248945 285.87672 
L 694.457271 275.932839 
L 694.665596 244.026857 
L 694.873922 237.566403 
L 695.082248 226.671648 
L 695.290573 224.597756 
L 695.498899 229.664068 
L 695.707224 220.349953 
L 695.91555 235.902494 
L 696.123875 284.317146 
L 696.332201 285.83929 
L 696.748852 268.661266 
L 696.957178 288.377542 
L 697.165503 280.576386 
L 697.373829 288.441874 
L 697.582154 270.392279 
L 697.79048 270.092728 
L 697.998805 254.299815 
L 698.207131 264.128023 
L 698.415456 282.205256 
L 698.623782 272.420728 
L 698.832108 276.73587 
L 699.040433 269.608219 
L 699.248759 286.636175 
L 699.457084 283.390984 
L 699.66541 276.231711 
L 699.873735 282.589638 
L 700.082061 254.459939 
L 700.290386 263.716746 
L 700.498712 287.686283 
L 700.915363 306.405511 
L 701.123689 306.290487 
L 701.332014 325.146619 
L 701.54034 314.773548 
L 701.748665 292.042999 
L 701.956991 288.91852 
L 702.165316 302.238603 
L 702.373642 303.121473 
L 702.581968 287.192776 
L 702.790293 287.49811 
L 702.998619 291.452858 
L 703.41527 284.150181 
L 703.623595 270.048297 
L 703.831921 278.028496 
L 704.040246 255.572322 
L 704.248572 259.684631 
L 704.665223 306.372075 
L 705.081874 265.832975 
L 705.2902 281.004109 
L 705.498525 276.67661 
L 705.706851 286.18239 
L 705.915176 285.970984 
L 706.123502 290.665592 
L 706.540153 265.691759 
L 706.956804 291.710996 
L 707.373455 311.812558 
L 707.581781 304.105195 
L 707.790106 282.721838 
L 708.206758 306.884753 
L 708.415083 306.644495 
L 708.623409 313.806541 
L 709.248385 260.770211 
L 709.456711 268.465373 
L 709.665036 264.601009 
L 709.873362 237.105917 
L 710.498339 212.356206 
L 710.706664 224.972436 
L 711.956618 224.972436 
L 712.164943 289.987253 
L 712.373269 274.575671 
L 712.581594 289.305646 
L 712.78992 282.860667 
L 712.998245 287.619483 
L 713.206571 282.436785 
L 713.623222 337.151861 
L 713.831548 339.660196 
L 714.039873 324.811223 
L 714.248199 326.706976 
L 714.456524 338.143613 
L 714.873175 312.330852 
L 715.081501 320.43462 
L 715.289826 318.959688 
L 715.498152 313.323655 
L 715.706478 292.521104 
L 715.914803 323.563204 
L 716.123129 324.605542 
L 716.331454 318.677538 
L 716.956431 247.815806 
L 717.373082 296.069608 
L 717.581408 293.432386 
L 717.998059 259.682942 
L 718.206384 261.720658 
L 718.41471 298.753734 
L 718.623035 309.415648 
L 718.831361 306.529308 
L 719.039686 312.725316 
L 719.248012 308.99708 
L 719.456338 275.270159 
L 719.664663 281.803081 
L 719.872989 245.305142 
L 720.28964 297.947912 
L 720.706291 310.891874 
L 720.914616 287.535049 
L 721.122942 246.817289 
L 721.747919 203.380313 
L 721.956244 270.964967 
L 722.16457 260.617836 
L 722.372895 270.537735 
L 722.581221 286.245477 
L 722.997872 270.440874 
L 723.206197 252.077464 
L 723.414523 251.518519 
L 723.622849 266.461727 
L 723.831174 249.565951 
L 724.0395 262.656384 
L 724.247825 283.286515 
L 724.456151 288.715677 
L 724.664476 259.389139 
L 724.872802 252.585136 
L 725.289453 309.464618 
L 725.497779 292.591381 
L 725.706104 296.075645 
L 726.331081 249.253354 
L 726.539406 248.204947 
L 726.747732 253.905889 
L 726.956057 281.90574 
L 727.164383 285.667161 
L 727.372709 286.986628 
L 727.581034 258.614275 
L 727.997685 270.41524 
L 728.206011 280.124813 
L 728.414336 280.131064 
L 728.622662 276.273532 
L 728.830987 287.058394 
L 729.039313 275.972458 
L 729.247639 285.311038 
L 729.66429 253.980116 
L 729.872615 275.538158 
L 730.080941 257.392371 
L 730.289266 257.406399 
L 730.497592 235.524433 
L 730.705917 233.064452 
L 730.914243 267.305677 
L 731.122569 277.242993 
L 731.53922 262.00419 
L 731.747545 264.990432 
L 731.955871 277.709234 
L 732.164196 277.376125 
L 732.372522 277.648344 
L 732.580847 272.554754 
L 732.789173 283.316276 
L 732.997499 274.172906 
L 733.205824 272.098378 
L 733.41415 262.634188 
L 733.622475 263.611803 
L 733.830801 244.796943 
L 734.039126 215.351477 
L 734.247452 238.692622 
L 734.455777 283.649537 
L 734.664103 275.920189 
L 735.080754 214.389574 
L 735.497405 255.044718 
L 735.705731 255.044718 
L 735.914056 283.959557 
L 736.122382 263.978522 
L 736.330707 256.251714 
L 736.539033 256.445443 
L 736.747359 254.497135 
L 737.16401 224.783509 
L 737.372335 220.308127 
L 737.580661 276.318369 
L 737.997312 257.402123 
L 738.205637 239.663445 
L 738.622289 272.560354 
L 738.830614 273.83641 
L 739.247265 246.198464 
L 739.455591 191.337924 
L 739.663916 254.829807 
L 740.705544 254.829807 
L 740.91387 244.281254 
L 741.122195 258.101495 
L 741.330521 254.368264 
L 741.538846 244.348081 
L 741.747172 250.353798 
L 741.955497 243.14973 
L 742.163823 208.133976 
L 742.372149 237.872536 
L 743.413776 237.872536 
L 743.622102 257.603783 
L 743.830427 249.200081 
L 744.038753 251.472446 
L 744.247079 258.427295 
L 744.455404 247.935476 
L 744.66373 250.121539 
L 745.080381 227.934874 
L 745.497032 229.632059 
L 745.705357 239.281811 
L 746.122009 248.138161 
L 746.330334 265.342441 
L 746.53866 270.451699 
L 746.746985 270.00265 
L 746.955311 274.098191 
L 747.163636 271.253251 
L 747.163636 271.253251 
" style="fill:none;stroke:#3d9970;stroke-linecap:square;stroke-width:0.5;"/>
   </g>
   <g id="patch_3">
    <path d="M 108 384.48 
L 108 51.84 
" style="fill:none;stroke:#000000;stroke-linecap:square;stroke-linejoin:miter;stroke-width:0.8;"/>
   </g>
   <g id="patch_4">
    <path d="M 777.6 384.48 
L 777.6 51.84 
" style="fill:none;stroke:#000000;stroke-linecap:square;stroke-linejoin:miter;stroke-width:0.8;"/>
   </g>
   <g id="patch_5">
    <path d="M 108 384.48 
L 777.6 384.48 
" style="fill:none;stroke:#000000;stroke-linecap:square;stroke-linejoin:miter;stroke-width:0.8;"/>
   </g>
   <g id="patch_6">
    <path d="M 108 51.84 
L 777.6 51.84 
" style="fill:none;stroke:#000000;stroke-linecap:square;stroke-linejoin:miter;stroke-width:0.8;"/>
   </g>
   <g id="text_16">
    <!-- Mean Temperature in Fahrenheit from 2010-2018 -->
    <defs>
     <path d="M 54.890625 33.015625 
L 54.890625 0 
L 45.90625 0 
L 45.90625 32.71875 
Q 45.90625 40.484375 42.875 44.328125 
Q 39.84375 48.1875 33.796875 48.1875 
Q 26.515625 48.1875 22.3125 43.546875 
Q 18.109375 38.921875 18.109375 30.90625 
L 18.109375 0 
L 9.078125 0 
L 9.078125 75.984375 
L 18.109375 75.984375 
L 18.109375 46.1875 
Q 21.34375 51.125 25.703125 53.5625 
Q 30.078125 56 35.796875 56 
Q 45.21875 56 50.046875 50.171875 
Q 54.890625 44.34375 54.890625 33.015625 
z
" id="DejaVuSans-68"/>
     <path d="M 37.109375 75.984375 
L 37.109375 68.5 
L 28.515625 68.5 
Q 23.6875 68.5 21.796875 66.546875 
Q 19.921875 64.59375 19.921875 59.515625 
L 19.921875 54.6875 
L 34.71875 54.6875 
L 34.71875 47.703125 
L 19.921875 47.703125 
L 19.921875 0 
L 10.890625 0 
L 10.890625 47.703125 
L 2.296875 47.703125 
L 2.296875 54.6875 
L 10.890625 54.6875 
L 10.890625 58.5 
Q 10.890625 67.625 15.140625 71.796875 
Q 19.390625 75.984375 28.609375 75.984375 
z
" id="DejaVuSans-66"/>
     <path d="M 30.609375 48.390625 
Q 23.390625 48.390625 19.1875 42.75 
Q 14.984375 37.109375 14.984375 27.296875 
Q 14.984375 17.484375 19.15625 11.84375 
Q 23.34375 6.203125 30.609375 6.203125 
Q 37.796875 6.203125 41.984375 11.859375 
Q 46.1875 17.53125 46.1875 27.296875 
Q 46.1875 37.015625 41.984375 42.703125 
Q 37.796875 48.390625 30.609375 48.390625 
z
M 30.609375 56 
Q 42.328125 56 49.015625 48.375 
Q 55.71875 40.765625 55.71875 27.296875 
Q 55.71875 13.875 49.015625 6.21875 
Q 42.328125 -1.421875 30.609375 -1.421875 
Q 18.84375 -1.421875 12.171875 6.21875 
Q 5.515625 13.875 5.515625 27.296875 
Q 5.515625 40.765625 12.171875 48.375 
Q 18.84375 56 30.609375 56 
z
" id="DejaVuSans-6f"/>
     <path d="M 4.890625 31.390625 
L 31.203125 31.390625 
L 31.203125 23.390625 
L 4.890625 23.390625 
z
" id="DejaVuSans-2d"/>
    </defs>
    <g transform="translate(293.115938 45.84)scale(0.12 -0.12)">
     <use xlink:href="#DejaVuSans-4d"/>
     <use x="86.279297" xlink:href="#DejaVuSans-65"/>
     <use x="147.802734" xlink:href="#DejaVuSans-61"/>
     <use x="209.082031" xlink:href="#DejaVuSans-6e"/>
     <use x="272.460938" xlink:href="#DejaVuSans-20"/>
     <use x="304.248047" xlink:href="#DejaVuSans-54"/>
     <use x="365.066406" xlink:href="#DejaVuSans-65"/>
     <use x="426.589844" xlink:href="#DejaVuSans-6d"/>
     <use x="524.001953" xlink:href="#DejaVuSans-70"/>
     <use x="587.478516" xlink:href="#DejaVuSans-65"/>
     <use x="649.001953" xlink:href="#DejaVuSans-72"/>
     <use x="690.115234" xlink:href="#DejaVuSans-61"/>
     <use x="751.394531" xlink:href="#DejaVuSans-74"/>
     <use x="790.603516" xlink:href="#DejaVuSans-75"/>
     <use x="853.982422" xlink:href="#DejaVuSans-72"/>
     <use x="895.064453" xlink:href="#DejaVuSans-65"/>
     <use x="956.587891" xlink:href="#DejaVuSans-20"/>
     <use x="988.375" xlink:href="#DejaVuSans-69"/>
     <use x="1016.158203" xlink:href="#DejaVuSans-6e"/>
     <use x="1079.537109" xlink:href="#DejaVuSans-20"/>
     <use x="1111.324219" xlink:href="#DejaVuSans-46"/>
     <use x="1168.703125" xlink:href="#DejaVuSans-61"/>
     <use x="1229.982422" xlink:href="#DejaVuSans-68"/>
     <use x="1293.361328" xlink:href="#DejaVuSans-72"/>
     <use x="1334.443359" xlink:href="#DejaVuSans-65"/>
     <use x="1395.966797" xlink:href="#DejaVuSans-6e"/>
     <use x="1459.345703" xlink:href="#DejaVuSans-68"/>
     <use x="1522.724609" xlink:href="#DejaVuSans-65"/>
     <use x="1584.248047" xlink:href="#DejaVuSans-69"/>
     <use x="1612.03125" xlink:href="#DejaVuSans-74"/>
     <use x="1651.240234" xlink:href="#DejaVuSans-20"/>
     <use x="1683.027344" xlink:href="#DejaVuSans-66"/>
     <use x="1718.232422" xlink:href="#DejaVuSans-72"/>
     <use x="1759.314453" xlink:href="#DejaVuSans-6f"/>
     <use x="1820.496094" xlink:href="#DejaVuSans-6d"/>
     <use x="1917.908203" xlink:href="#DejaVuSans-20"/>
     <use x="1949.695312" xlink:href="#DejaVuSans-32"/>
     <use x="2013.318359" xlink:href="#DejaVuSans-30"/>
     <use x="2076.941406" xlink:href="#DejaVuSans-31"/>
     <use x="2140.564453" xlink:href="#DejaVuSans-30"/>
     <use x="2204.1875" xlink:href="#DejaVuSans-2d"/>
     <use x="2240.271484" xlink:href="#DejaVuSans-32"/>
     <use x="2303.894531" xlink:href="#DejaVuSans-30"/>
     <use x="2367.517578" xlink:href="#DejaVuSans-31"/>
     <use x="2431.140625" xlink:href="#DejaVuSans-38"/>
    </g>
   </g>
  </g>
 </g>
 <defs>
  <clipPath id="p332a3873a5">
   <rect height="332.64" width="669.6" x="108" y="51.84"/>
  </clipPath>
 </defs>
</svg>
