<?xml version="1.0" encoding="utf-8" standalone="no"?>
<!DOCTYPE svg PUBLIC "-//W3C//DTD SVG 1.1//EN"
  "http://www.w3.org/Graphics/SVG/1.1/DTD/svg11.dtd">
<!-- Created with matplotlib (http://matplotlib.org/) -->
<svg height="432pt" version="1.1" viewBox="0 0 864 432" width="864pt" xmlns="http://www.w3.org/2000/svg" xmlns:xlink="http://www.w3.org/1999/xlink">
 <defs>
  <style type="text/css">
*{stroke-linecap:butt;stroke-linejoin:round;}
  </style>
 </defs>
 <g id="figure_1">
  <g id="patch_1">
   <path d="M 0 432 
L 864 432 
L 864 0 
L 0 0 
z
" style="fill:#ffffff;"/>
  </g>
  <g id="axes_1">
   <g id="patch_2">
    <path d="M 108 384.48 
L 777.6 384.48 
L 777.6 51.84 
L 108 51.84 
z
" style="fill:#ffffff;"/>
   </g>
   <g id="matplotlib.axis_1">
    <g id="xtick_1">
     <g id="line2d_1">
      <defs>
       <path d="M 0 0 
L 0 3.5 
" id="mb2db4f86bc" style="stroke:#000000;stroke-width:0.8;"/>
      </defs>
      <g>
       <use style="stroke:#000000;stroke-width:0.8;" x="170.726825" xlink:href="#mb2db4f86bc" y="384.48"/>
      </g>
     </g>
     <g id="text_1">
      <!-- 2011 -->
      <defs>
       <path d="M 19.1875 8.296875 
L 53.609375 8.296875 
L 53.609375 0 
L 7.328125 0 
L 7.328125 8.296875 
Q 12.9375 14.109375 22.625 23.890625 
Q 32.328125 33.6875 34.8125 36.53125 
Q 39.546875 41.84375 41.421875 45.53125 
Q 43.3125 49.21875 43.3125 52.78125 
Q 43.3125 58.59375 39.234375 62.25 
Q 35.15625 65.921875 28.609375 65.921875 
Q 23.96875 65.921875 18.8125 64.3125 
Q 13.671875 62.703125 7.8125 59.421875 
L 7.8125 69.390625 
Q 13.765625 71.78125 18.9375 73 
Q 24.125 74.21875 28.421875 74.21875 
Q 39.75 74.21875 46.484375 68.546875 
Q 53.21875 62.890625 53.21875 53.421875 
Q 53.21875 48.921875 51.53125 44.890625 
Q 49.859375 40.875 45.40625 35.40625 
Q 44.1875 33.984375 37.640625 27.21875 
Q 31.109375 20.453125 19.1875 8.296875 
z
" id="DejaVuSans-32"/>
       <path d="M 31.78125 66.40625 
Q 24.171875 66.40625 20.328125 58.90625 
Q 16.5 51.421875 16.5 36.375 
Q 16.5 21.390625 20.328125 13.890625 
Q 24.171875 6.390625 31.78125 6.390625 
Q 39.453125 6.390625 43.28125 13.890625 
Q 47.125 21.390625 47.125 36.375 
Q 47.125 51.421875 43.28125 58.90625 
Q 39.453125 66.40625 31.78125 66.40625 
z
M 31.78125 74.21875 
Q 44.046875 74.21875 50.515625 64.515625 
Q 56.984375 54.828125 56.984375 36.375 
Q 56.984375 17.96875 50.515625 8.265625 
Q 44.046875 -1.421875 31.78125 -1.421875 
Q 19.53125 -1.421875 13.0625 8.265625 
Q 6.59375 17.96875 6.59375 36.375 
Q 6.59375 54.828125 13.0625 64.515625 
Q 19.53125 74.21875 31.78125 74.21875 
z
" id="DejaVuSans-30"/>
       <path d="M 12.40625 8.296875 
L 28.515625 8.296875 
L 28.515625 63.921875 
L 10.984375 60.40625 
L 10.984375 69.390625 
L 28.421875 72.90625 
L 38.28125 72.90625 
L 38.28125 8.296875 
L 54.390625 8.296875 
L 54.390625 0 
L 12.40625 0 
z
" id="DejaVuSans-31"/>
      </defs>
      <g transform="translate(158.001825 399.078438)scale(0.1 -0.1)">
       <use xlink:href="#DejaVuSans-32"/>
       <use x="63.623047" xlink:href="#DejaVuSans-30"/>
       <use x="127.246094" xlink:href="#DejaVuSans-31"/>
       <use x="190.869141" xlink:href="#DejaVuSans-31"/>
      </g>
     </g>
    </g>
    <g id="xtick_2">
     <g id="line2d_2">
      <g>
       <use style="stroke:#000000;stroke-width:0.8;" x="246.765652" xlink:href="#mb2db4f86bc" y="384.48"/>
      </g>
     </g>
     <g id="text_2">
      <!-- 2012 -->
      <g transform="translate(234.040652 399.078438)scale(0.1 -0.1)">
       <use xlink:href="#DejaVuSans-32"/>
       <use x="63.623047" xlink:href="#DejaVuSans-30"/>
       <use x="127.246094" xlink:href="#DejaVuSans-31"/>
       <use x="190.869141" xlink:href="#DejaVuSans-32"/>
      </g>
     </g>
    </g>
    <g id="xtick_3">
     <g id="line2d_3">
      <g>
       <use style="stroke:#000000;stroke-width:0.8;" x="323.012806" xlink:href="#mb2db4f86bc" y="384.48"/>
      </g>
     </g>
     <g id="text_3">
      <!-- 2013 -->
      <defs>
       <path d="M 40.578125 39.3125 
Q 47.65625 37.796875 51.625 33 
Q 55.609375 28.21875 55.609375 21.1875 
Q 55.609375 10.40625 48.1875 4.484375 
Q 40.765625 -1.421875 27.09375 -1.421875 
Q 22.515625 -1.421875 17.65625 -0.515625 
Q 12.796875 0.390625 7.625 2.203125 
L 7.625 11.71875 
Q 11.71875 9.328125 16.59375 8.109375 
Q 21.484375 6.890625 26.8125 6.890625 
Q 36.078125 6.890625 40.9375 10.546875 
Q 45.796875 14.203125 45.796875 21.1875 
Q 45.796875 27.640625 41.28125 31.265625 
Q 36.765625 34.90625 28.71875 34.90625 
L 20.21875 34.90625 
L 20.21875 43.015625 
L 29.109375 43.015625 
Q 36.375 43.015625 40.234375 45.921875 
Q 44.09375 48.828125 44.09375 54.296875 
Q 44.09375 59.90625 40.109375 62.90625 
Q 36.140625 65.921875 28.71875 65.921875 
Q 24.65625 65.921875 20.015625 65.03125 
Q 15.375 64.15625 9.8125 62.3125 
L 9.8125 71.09375 
Q 15.4375 72.65625 20.34375 73.4375 
Q 25.25 74.21875 29.59375 74.21875 
Q 40.828125 74.21875 47.359375 69.109375 
Q 53.90625 64.015625 53.90625 55.328125 
Q 53.90625 49.265625 50.4375 45.09375 
Q 46.96875 40.921875 40.578125 39.3125 
z
" id="DejaVuSans-33"/>
      </defs>
      <g transform="translate(310.287806 399.078438)scale(0.1 -0.1)">
       <use xlink:href="#DejaVuSans-32"/>
       <use x="63.623047" xlink:href="#DejaVuSans-30"/>
       <use x="127.246094" xlink:href="#DejaVuSans-31"/>
       <use x="190.869141" xlink:href="#DejaVuSans-33"/>
      </g>
     </g>
    </g>
    <g id="xtick_4">
     <g id="line2d_4">
      <g>
       <use style="stroke:#000000;stroke-width:0.8;" x="399.051633" xlink:href="#mb2db4f86bc" y="384.48"/>
      </g>
     </g>
     <g id="text_4">
      <!-- 2014 -->
      <defs>
       <path d="M 37.796875 64.3125 
L 12.890625 25.390625 
L 37.796875 25.390625 
z
M 35.203125 72.90625 
L 47.609375 72.90625 
L 47.609375 25.390625 
L 58.015625 25.390625 
L 58.015625 17.1875 
L 47.609375 17.1875 
L 47.609375 0 
L 37.796875 0 
L 37.796875 17.1875 
L 4.890625 17.1875 
L 4.890625 26.703125 
z
" id="DejaVuSans-34"/>
      </defs>
      <g transform="translate(386.326633 399.078438)scale(0.1 -0.1)">
       <use xlink:href="#DejaVuSans-32"/>
       <use x="63.623047" xlink:href="#DejaVuSans-30"/>
       <use x="127.246094" xlink:href="#DejaVuSans-31"/>
       <use x="190.869141" xlink:href="#DejaVuSans-34"/>
      </g>
     </g>
    </g>
    <g id="xtick_5">
     <g id="line2d_5">
      <g>
       <use style="stroke:#000000;stroke-width:0.8;" x="475.090461" xlink:href="#mb2db4f86bc" y="384.48"/>
      </g>
     </g>
     <g id="text_5">
      <!-- 2015 -->
      <defs>
       <path d="M 10.796875 72.90625 
L 49.515625 72.90625 
L 49.515625 64.59375 
L 19.828125 64.59375 
L 19.828125 46.734375 
Q 21.96875 47.46875 24.109375 47.828125 
Q 26.265625 48.1875 28.421875 48.1875 
Q 40.625 48.1875 47.75 41.5 
Q 54.890625 34.8125 54.890625 23.390625 
Q 54.890625 11.625 47.5625 5.09375 
Q 40.234375 -1.421875 26.90625 -1.421875 
Q 22.3125 -1.421875 17.546875 -0.640625 
Q 12.796875 0.140625 7.71875 1.703125 
L 7.71875 11.625 
Q 12.109375 9.234375 16.796875 8.0625 
Q 21.484375 6.890625 26.703125 6.890625 
Q 35.15625 6.890625 40.078125 11.328125 
Q 45.015625 15.765625 45.015625 23.390625 
Q 45.015625 31 40.078125 35.4375 
Q 35.15625 39.890625 26.703125 39.890625 
Q 22.75 39.890625 18.8125 39.015625 
Q 14.890625 38.140625 10.796875 36.28125 
z
" id="DejaVuSans-35"/>
      </defs>
      <g transform="translate(462.365461 399.078438)scale(0.1 -0.1)">
       <use xlink:href="#DejaVuSans-32"/>
       <use x="63.623047" xlink:href="#DejaVuSans-30"/>
       <use x="127.246094" xlink:href="#DejaVuSans-31"/>
       <use x="190.869141" xlink:href="#DejaVuSans-35"/>
      </g>
     </g>
    </g>
    <g id="xtick_6">
     <g id="line2d_6">
      <g>
       <use style="stroke:#000000;stroke-width:0.8;" x="551.129289" xlink:href="#mb2db4f86bc" y="384.48"/>
      </g>
     </g>
     <g id="text_6">
      <!-- 2016 -->
      <defs>
       <path d="M 33.015625 40.375 
Q 26.375 40.375 22.484375 35.828125 
Q 18.609375 31.296875 18.609375 23.390625 
Q 18.609375 15.53125 22.484375 10.953125 
Q 26.375 6.390625 33.015625 6.390625 
Q 39.65625 6.390625 43.53125 10.953125 
Q 47.40625 15.53125 47.40625 23.390625 
Q 47.40625 31.296875 43.53125 35.828125 
Q 39.65625 40.375 33.015625 40.375 
z
M 52.59375 71.296875 
L 52.59375 62.3125 
Q 48.875 64.0625 45.09375 64.984375 
Q 41.3125 65.921875 37.59375 65.921875 
Q 27.828125 65.921875 22.671875 59.328125 
Q 17.53125 52.734375 16.796875 39.40625 
Q 19.671875 43.65625 24.015625 45.921875 
Q 28.375 48.1875 33.59375 48.1875 
Q 44.578125 48.1875 50.953125 41.515625 
Q 57.328125 34.859375 57.328125 23.390625 
Q 57.328125 12.15625 50.6875 5.359375 
Q 44.046875 -1.421875 33.015625 -1.421875 
Q 20.359375 -1.421875 13.671875 8.265625 
Q 6.984375 17.96875 6.984375 36.375 
Q 6.984375 53.65625 15.1875 63.9375 
Q 23.390625 74.21875 37.203125 74.21875 
Q 40.921875 74.21875 44.703125 73.484375 
Q 48.484375 72.75 52.59375 71.296875 
z
" id="DejaVuSans-36"/>
      </defs>
      <g transform="translate(538.404289 399.078438)scale(0.1 -0.1)">
       <use xlink:href="#DejaVuSans-32"/>
       <use x="63.623047" xlink:href="#DejaVuSans-30"/>
       <use x="127.246094" xlink:href="#DejaVuSans-31"/>
       <use x="190.869141" xlink:href="#DejaVuSans-36"/>
      </g>
     </g>
    </g>
    <g id="xtick_7">
     <g id="line2d_7">
      <g>
       <use style="stroke:#000000;stroke-width:0.8;" x="627.376442" xlink:href="#mb2db4f86bc" y="384.48"/>
      </g>
     </g>
     <g id="text_7">
      <!-- 2017 -->
      <defs>
       <path d="M 8.203125 72.90625 
L 55.078125 72.90625 
L 55.078125 68.703125 
L 28.609375 0 
L 18.3125 0 
L 43.21875 64.59375 
L 8.203125 64.59375 
z
" id="DejaVuSans-37"/>
      </defs>
      <g transform="translate(614.651442 399.078438)scale(0.1 -0.1)">
       <use xlink:href="#DejaVuSans-32"/>
       <use x="63.623047" xlink:href="#DejaVuSans-30"/>
       <use x="127.246094" xlink:href="#DejaVuSans-31"/>
       <use x="190.869141" xlink:href="#DejaVuSans-37"/>
      </g>
     </g>
    </g>
    <g id="xtick_8">
     <g id="line2d_8">
      <g>
       <use style="stroke:#000000;stroke-width:0.8;" x="703.41527" xlink:href="#mb2db4f86bc" y="384.48"/>
      </g>
     </g>
     <g id="text_8">
      <!-- 2018 -->
      <defs>
       <path d="M 31.78125 34.625 
Q 24.75 34.625 20.71875 30.859375 
Q 16.703125 27.09375 16.703125 20.515625 
Q 16.703125 13.921875 20.71875 10.15625 
Q 24.75 6.390625 31.78125 6.390625 
Q 38.8125 6.390625 42.859375 10.171875 
Q 46.921875 13.96875 46.921875 20.515625 
Q 46.921875 27.09375 42.890625 30.859375 
Q 38.875 34.625 31.78125 34.625 
z
M 21.921875 38.8125 
Q 15.578125 40.375 12.03125 44.71875 
Q 8.5 49.078125 8.5 55.328125 
Q 8.5 64.0625 14.71875 69.140625 
Q 20.953125 74.21875 31.78125 74.21875 
Q 42.671875 74.21875 48.875 69.140625 
Q 55.078125 64.0625 55.078125 55.328125 
Q 55.078125 49.078125 51.53125 44.71875 
Q 48 40.375 41.703125 38.8125 
Q 48.828125 37.15625 52.796875 32.3125 
Q 56.78125 27.484375 56.78125 20.515625 
Q 56.78125 9.90625 50.3125 4.234375 
Q 43.84375 -1.421875 31.78125 -1.421875 
Q 19.734375 -1.421875 13.25 4.234375 
Q 6.78125 9.90625 6.78125 20.515625 
Q 6.78125 27.484375 10.78125 32.3125 
Q 14.796875 37.15625 21.921875 38.8125 
z
M 18.3125 54.390625 
Q 18.3125 48.734375 21.84375 45.5625 
Q 25.390625 42.390625 31.78125 42.390625 
Q 38.140625 42.390625 41.71875 45.5625 
Q 45.3125 48.734375 45.3125 54.390625 
Q 45.3125 60.0625 41.71875 63.234375 
Q 38.140625 66.40625 31.78125 66.40625 
Q 25.390625 66.40625 21.84375 63.234375 
Q 18.3125 60.0625 18.3125 54.390625 
z
" id="DejaVuSans-38"/>
      </defs>
      <g transform="translate(690.69027 399.078438)scale(0.1 -0.1)">
       <use xlink:href="#DejaVuSans-32"/>
       <use x="63.623047" xlink:href="#DejaVuSans-30"/>
       <use x="127.246094" xlink:href="#DejaVuSans-31"/>
       <use x="190.869141" xlink:href="#DejaVuSans-38"/>
      </g>
     </g>
    </g>
    <g id="text_9">
     <!-- Time -->
     <defs>
      <path d="M -0.296875 72.90625 
L 61.375 72.90625 
L 61.375 64.59375 
L 35.5 64.59375 
L 35.5 0 
L 25.59375 0 
L 25.59375 64.59375 
L -0.296875 64.59375 
z
" id="DejaVuSans-54"/>
      <path d="M 9.421875 54.6875 
L 18.40625 54.6875 
L 18.40625 0 
L 9.421875 0 
z
M 9.421875 75.984375 
L 18.40625 75.984375 
L 18.40625 64.59375 
L 9.421875 64.59375 
z
" id="DejaVuSans-69"/>
      <path d="M 52 44.1875 
Q 55.375 50.25 60.0625 53.125 
Q 64.75 56 71.09375 56 
Q 79.640625 56 84.28125 50.015625 
Q 88.921875 44.046875 88.921875 33.015625 
L 88.921875 0 
L 79.890625 0 
L 79.890625 32.71875 
Q 79.890625 40.578125 77.09375 44.375 
Q 74.3125 48.1875 68.609375 48.1875 
Q 61.625 48.1875 57.5625 43.546875 
Q 53.515625 38.921875 53.515625 30.90625 
L 53.515625 0 
L 44.484375 0 
L 44.484375 32.71875 
Q 44.484375 40.625 41.703125 44.40625 
Q 38.921875 48.1875 33.109375 48.1875 
Q 26.21875 48.1875 22.15625 43.53125 
Q 18.109375 38.875 18.109375 30.90625 
L 18.109375 0 
L 9.078125 0 
L 9.078125 54.6875 
L 18.109375 54.6875 
L 18.109375 46.1875 
Q 21.1875 51.21875 25.484375 53.609375 
Q 29.78125 56 35.6875 56 
Q 41.65625 56 45.828125 52.96875 
Q 50 49.953125 52 44.1875 
z
" id="DejaVuSans-6d"/>
      <path d="M 56.203125 29.59375 
L 56.203125 25.203125 
L 14.890625 25.203125 
Q 15.484375 15.921875 20.484375 11.0625 
Q 25.484375 6.203125 34.421875 6.203125 
Q 39.59375 6.203125 44.453125 7.46875 
Q 49.3125 8.734375 54.109375 11.28125 
L 54.109375 2.78125 
Q 49.265625 0.734375 44.1875 -0.34375 
Q 39.109375 -1.421875 33.890625 -1.421875 
Q 20.796875 -1.421875 13.15625 6.1875 
Q 5.515625 13.8125 5.515625 26.8125 
Q 5.515625 40.234375 12.765625 48.109375 
Q 20.015625 56 32.328125 56 
Q 43.359375 56 49.78125 48.890625 
Q 56.203125 41.796875 56.203125 29.59375 
z
M 47.21875 32.234375 
Q 47.125 39.59375 43.09375 43.984375 
Q 39.0625 48.390625 32.421875 48.390625 
Q 24.90625 48.390625 20.390625 44.140625 
Q 15.875 39.890625 15.1875 32.171875 
z
" id="DejaVuSans-65"/>
     </defs>
     <g transform="translate(430.4125 412.756563)scale(0.1 -0.1)">
      <use xlink:href="#DejaVuSans-54"/>
      <use x="61.037109" xlink:href="#DejaVuSans-69"/>
      <use x="88.820312" xlink:href="#DejaVuSans-6d"/>
      <use x="186.232422" xlink:href="#DejaVuSans-65"/>
     </g>
    </g>
   </g>
   <g id="matplotlib.axis_2">
    <g id="ytick_1">
     <g id="line2d_9">
      <defs>
       <path d="M 0 0 
L -3.5 0 
" id="mb13dc3045b" style="stroke:#000000;stroke-width:0.8;"/>
      </defs>
      <g>
       <use style="stroke:#000000;stroke-width:0.8;" x="108" xlink:href="#mb13dc3045b" y="363.013381"/>
      </g>
     </g>
     <g id="text_10">
      <!-- −20 -->
      <defs>
       <path d="M 10.59375 35.5 
L 73.1875 35.5 
L 73.1875 27.203125 
L 10.59375 27.203125 
z
" id="DejaVuSans-2212"/>
      </defs>
      <g transform="translate(79.895313 366.8126)scale(0.1 -0.1)">
       <use xlink:href="#DejaVuSans-2212"/>
       <use x="83.789062" xlink:href="#DejaVuSans-32"/>
       <use x="147.412109" xlink:href="#DejaVuSans-30"/>
      </g>
     </g>
    </g>
    <g id="ytick_2">
     <g id="line2d_10">
      <g>
       <use style="stroke:#000000;stroke-width:0.8;" x="108" xlink:href="#mb13dc3045b" y="324.792396"/>
      </g>
     </g>
     <g id="text_11">
      <!-- −10 -->
      <g transform="translate(79.895313 328.591615)scale(0.1 -0.1)">
       <use xlink:href="#DejaVuSans-2212"/>
       <use x="83.789062" xlink:href="#DejaVuSans-31"/>
       <use x="147.412109" xlink:href="#DejaVuSans-30"/>
      </g>
     </g>
    </g>
    <g id="ytick_3">
     <g id="line2d_11">
      <g>
       <use style="stroke:#000000;stroke-width:0.8;" x="108" xlink:href="#mb13dc3045b" y="286.571411"/>
      </g>
     </g>
     <g id="text_12">
      <!-- 0 -->
      <g transform="translate(94.6375 290.37063)scale(0.1 -0.1)">
       <use xlink:href="#DejaVuSans-30"/>
      </g>
     </g>
    </g>
    <g id="ytick_4">
     <g id="line2d_12">
      <g>
       <use style="stroke:#000000;stroke-width:0.8;" x="108" xlink:href="#mb13dc3045b" y="248.350426"/>
      </g>
     </g>
     <g id="text_13">
      <!-- 10 -->
      <g transform="translate(88.275 252.149644)scale(0.1 -0.1)">
       <use xlink:href="#DejaVuSans-31"/>
       <use x="63.623047" xlink:href="#DejaVuSans-30"/>
      </g>
     </g>
    </g>
    <g id="ytick_5">
     <g id="line2d_13">
      <g>
       <use style="stroke:#000000;stroke-width:0.8;" x="108" xlink:href="#mb13dc3045b" y="210.12944"/>
      </g>
     </g>
     <g id="text_14">
      <!-- 20 -->
      <g transform="translate(88.275 213.928659)scale(0.1 -0.1)">
       <use xlink:href="#DejaVuSans-32"/>
       <use x="63.623047" xlink:href="#DejaVuSans-30"/>
      </g>
     </g>
    </g>
    <g id="ytick_6">
     <g id="line2d_14">
      <g>
       <use style="stroke:#000000;stroke-width:0.8;" x="108" xlink:href="#mb13dc3045b" y="171.908455"/>
      </g>
     </g>
     <g id="text_15">
      <!-- 30 -->
      <g transform="translate(88.275 175.707674)scale(0.1 -0.1)">
       <use xlink:href="#DejaVuSans-33"/>
       <use x="63.623047" xlink:href="#DejaVuSans-30"/>
      </g>
     </g>
    </g>
    <g id="ytick_7">
     <g id="line2d_15">
      <g>
       <use style="stroke:#000000;stroke-width:0.8;" x="108" xlink:href="#mb13dc3045b" y="133.68747"/>
      </g>
     </g>
     <g id="text_16">
      <!-- 40 -->
      <g transform="translate(88.275 137.486689)scale(0.1 -0.1)">
       <use xlink:href="#DejaVuSans-34"/>
       <use x="63.623047" xlink:href="#DejaVuSans-30"/>
      </g>
     </g>
    </g>
    <g id="ytick_8">
     <g id="line2d_16">
      <g>
       <use style="stroke:#000000;stroke-width:0.8;" x="108" xlink:href="#mb13dc3045b" y="95.466485"/>
      </g>
     </g>
     <g id="text_17">
      <!-- 50 -->
      <g transform="translate(88.275 99.265704)scale(0.1 -0.1)">
       <use xlink:href="#DejaVuSans-35"/>
       <use x="63.623047" xlink:href="#DejaVuSans-30"/>
      </g>
     </g>
    </g>
    <g id="ytick_9">
     <g id="line2d_17">
      <g>
       <use style="stroke:#000000;stroke-width:0.8;" x="108" xlink:href="#mb13dc3045b" y="57.2455"/>
      </g>
     </g>
     <g id="text_18">
      <!-- 60 -->
      <g transform="translate(88.275 61.044718)scale(0.1 -0.1)">
       <use xlink:href="#DejaVuSans-36"/>
       <use x="63.623047" xlink:href="#DejaVuSans-30"/>
      </g>
     </g>
    </g>
    <g id="text_19">
     <!-- Residual -->
     <defs>
      <path d="M 44.390625 34.1875 
Q 47.5625 33.109375 50.5625 29.59375 
Q 53.5625 26.078125 56.59375 19.921875 
L 66.609375 0 
L 56 0 
L 46.6875 18.703125 
Q 43.0625 26.03125 39.671875 28.421875 
Q 36.28125 30.8125 30.421875 30.8125 
L 19.671875 30.8125 
L 19.671875 0 
L 9.8125 0 
L 9.8125 72.90625 
L 32.078125 72.90625 
Q 44.578125 72.90625 50.734375 67.671875 
Q 56.890625 62.453125 56.890625 51.90625 
Q 56.890625 45.015625 53.6875 40.46875 
Q 50.484375 35.9375 44.390625 34.1875 
z
M 19.671875 64.796875 
L 19.671875 38.921875 
L 32.078125 38.921875 
Q 39.203125 38.921875 42.84375 42.21875 
Q 46.484375 45.515625 46.484375 51.90625 
Q 46.484375 58.296875 42.84375 61.546875 
Q 39.203125 64.796875 32.078125 64.796875 
z
" id="DejaVuSans-52"/>
      <path d="M 44.28125 53.078125 
L 44.28125 44.578125 
Q 40.484375 46.53125 36.375 47.5 
Q 32.28125 48.484375 27.875 48.484375 
Q 21.1875 48.484375 17.84375 46.4375 
Q 14.5 44.390625 14.5 40.28125 
Q 14.5 37.15625 16.890625 35.375 
Q 19.28125 33.59375 26.515625 31.984375 
L 29.59375 31.296875 
Q 39.15625 29.25 43.1875 25.515625 
Q 47.21875 21.78125 47.21875 15.09375 
Q 47.21875 7.46875 41.1875 3.015625 
Q 35.15625 -1.421875 24.609375 -1.421875 
Q 20.21875 -1.421875 15.453125 -0.5625 
Q 10.6875 0.296875 5.421875 2 
L 5.421875 11.28125 
Q 10.40625 8.6875 15.234375 7.390625 
Q 20.0625 6.109375 24.8125 6.109375 
Q 31.15625 6.109375 34.5625 8.28125 
Q 37.984375 10.453125 37.984375 14.40625 
Q 37.984375 18.0625 35.515625 20.015625 
Q 33.0625 21.96875 24.703125 23.78125 
L 21.578125 24.515625 
Q 13.234375 26.265625 9.515625 29.90625 
Q 5.8125 33.546875 5.8125 39.890625 
Q 5.8125 47.609375 11.28125 51.796875 
Q 16.75 56 26.8125 56 
Q 31.78125 56 36.171875 55.265625 
Q 40.578125 54.546875 44.28125 53.078125 
z
" id="DejaVuSans-73"/>
      <path d="M 45.40625 46.390625 
L 45.40625 75.984375 
L 54.390625 75.984375 
L 54.390625 0 
L 45.40625 0 
L 45.40625 8.203125 
Q 42.578125 3.328125 38.25 0.953125 
Q 33.9375 -1.421875 27.875 -1.421875 
Q 17.96875 -1.421875 11.734375 6.484375 
Q 5.515625 14.40625 5.515625 27.296875 
Q 5.515625 40.1875 11.734375 48.09375 
Q 17.96875 56 27.875 56 
Q 33.9375 56 38.25 53.625 
Q 42.578125 51.265625 45.40625 46.390625 
z
M 14.796875 27.296875 
Q 14.796875 17.390625 18.875 11.75 
Q 22.953125 6.109375 30.078125 6.109375 
Q 37.203125 6.109375 41.296875 11.75 
Q 45.40625 17.390625 45.40625 27.296875 
Q 45.40625 37.203125 41.296875 42.84375 
Q 37.203125 48.484375 30.078125 48.484375 
Q 22.953125 48.484375 18.875 42.84375 
Q 14.796875 37.203125 14.796875 27.296875 
z
" id="DejaVuSans-64"/>
      <path d="M 8.5 21.578125 
L 8.5 54.6875 
L 17.484375 54.6875 
L 17.484375 21.921875 
Q 17.484375 14.15625 20.5 10.265625 
Q 23.53125 6.390625 29.59375 6.390625 
Q 36.859375 6.390625 41.078125 11.03125 
Q 45.3125 15.671875 45.3125 23.6875 
L 45.3125 54.6875 
L 54.296875 54.6875 
L 54.296875 0 
L 45.3125 0 
L 45.3125 8.40625 
Q 42.046875 3.421875 37.71875 1 
Q 33.40625 -1.421875 27.6875 -1.421875 
Q 18.265625 -1.421875 13.375 4.4375 
Q 8.5 10.296875 8.5 21.578125 
z
M 31.109375 56 
z
" id="DejaVuSans-75"/>
      <path d="M 34.28125 27.484375 
Q 23.390625 27.484375 19.1875 25 
Q 14.984375 22.515625 14.984375 16.5 
Q 14.984375 11.71875 18.140625 8.90625 
Q 21.296875 6.109375 26.703125 6.109375 
Q 34.1875 6.109375 38.703125 11.40625 
Q 43.21875 16.703125 43.21875 25.484375 
L 43.21875 27.484375 
z
M 52.203125 31.203125 
L 52.203125 0 
L 43.21875 0 
L 43.21875 8.296875 
Q 40.140625 3.328125 35.546875 0.953125 
Q 30.953125 -1.421875 24.3125 -1.421875 
Q 15.921875 -1.421875 10.953125 3.296875 
Q 6 8.015625 6 15.921875 
Q 6 25.140625 12.171875 29.828125 
Q 18.359375 34.515625 30.609375 34.515625 
L 43.21875 34.515625 
L 43.21875 35.40625 
Q 43.21875 41.609375 39.140625 45 
Q 35.0625 48.390625 27.6875 48.390625 
Q 23 48.390625 18.546875 47.265625 
Q 14.109375 46.140625 10.015625 43.890625 
L 10.015625 52.203125 
Q 14.9375 54.109375 19.578125 55.046875 
Q 24.21875 56 28.609375 56 
Q 40.484375 56 46.34375 49.84375 
Q 52.203125 43.703125 52.203125 31.203125 
z
" id="DejaVuSans-61"/>
      <path d="M 9.421875 75.984375 
L 18.40625 75.984375 
L 18.40625 0 
L 9.421875 0 
z
" id="DejaVuSans-6c"/>
     </defs>
     <g transform="translate(73.815625 239.4975)rotate(-90)scale(0.1 -0.1)">
      <use xlink:href="#DejaVuSans-52"/>
      <use x="69.419922" xlink:href="#DejaVuSans-65"/>
      <use x="130.943359" xlink:href="#DejaVuSans-73"/>
      <use x="183.042969" xlink:href="#DejaVuSans-69"/>
      <use x="210.826172" xlink:href="#DejaVuSans-64"/>
      <use x="274.302734" xlink:href="#DejaVuSans-75"/>
      <use x="337.681641" xlink:href="#DejaVuSans-61"/>
      <use x="398.960938" xlink:href="#DejaVuSans-6c"/>
     </g>
    </g>
   </g>
   <g id="line2d_18">
    <path clip-path="url(#pc369eb046d)" d="M 138.436364 66.96 
L 138.644689 281.598434 
L 139.06134 291.691236 
L 139.269666 286.571292 
L 139.477991 286.571352 
L 139.686317 292.021551 
L 139.894643 280.395866 
L 140.311294 286.021968 
L 140.519619 286.701376 
L 140.727945 291.257236 
L 140.93627 285.572373 
L 141.144596 297.441761 
L 141.352921 268.686991 
L 141.561247 286.571439 
L 141.977898 286.571393 
L 142.186224 273.522622 
L 142.394549 290.740796 
L 142.8112 293.603526 
L 143.019526 288.203811 
L 143.436177 254.470622 
L 143.644503 258.303773 
L 143.852828 318.233672 
L 144.061154 323.369591 
L 144.269479 290.223162 
L 144.68613 285.504479 
L 144.894456 285.493986 
L 145.311107 256.392768 
L 145.727758 322.597966 
L 146.144409 271.325089 
L 146.352735 270.840289 
L 146.56106 314.730188 
L 146.769386 283.025651 
L 146.977711 286.32428 
L 147.186037 274.149612 
L 147.602688 303.970546 
L 148.019339 282.10899 
L 148.227665 293.157036 
L 148.43599 267.564008 
L 148.644316 280.968341 
L 148.852641 276.6171 
L 149.060967 291.614561 
L 149.477618 295.083452 
L 149.685944 285.156631 
L 149.894269 281.754641 
L 150.102595 268.609732 
L 150.31092 274.507905 
L 150.519246 299.856383 
L 150.727571 268.135238 
L 150.935897 275.037969 
L 151.144223 321.299369 
L 151.560874 285.089314 
L 151.769199 293.378049 
L 151.977525 285.099182 
L 152.18585 284.280031 
L 152.394176 285.193888 
L 152.602501 283.622565 
L 152.810827 287.091642 
L 153.019153 286.945651 
L 153.227478 282.837177 
L 153.435804 272.637949 
L 153.644129 280.530762 
L 153.852455 282.67565 
L 154.06078 278.293339 
L 154.477431 312.712929 
L 155.102408 282.283144 
L 155.310734 288.466122 
L 155.519059 283.098302 
L 155.727385 271.973484 
L 155.93571 294.572968 
L 156.352361 275.561955 
L 156.560687 301.342004 
L 157.185664 268.993593 
L 157.393989 300.193317 
L 157.81064 281.997278 
L 158.018966 281.132434 
L 158.227291 278.378244 
L 158.435617 285.731873 
L 158.643943 265.183697 
L 158.852268 319.930448 
L 159.060594 284.68361 
L 159.268919 295.646861 
L 159.477245 298.207361 
L 159.68557 297.396276 
L 159.893896 286.571468 
L 161.352175 286.571414 
L 161.5605 271.7504 
L 161.768826 299.580122 
L 161.977151 293.963563 
L 162.393803 277.677481 
L 162.810454 310.393004 
L 163.018779 275.743488 
L 163.227105 285.946673 
L 163.43543 278.866834 
L 163.643756 294.5365 
L 163.852081 287.018994 
L 164.477058 277.936694 
L 164.685384 279.606328 
L 164.893709 287.52926 
L 165.102035 286.571371 
L 169.06022 286.571411 
L 169.268546 294.308043 
L 169.476871 281.660016 
L 169.685197 286.153361 
L 169.893522 287.597764 
L 170.101848 299.605894 
L 170.310174 296.604423 
L 170.518499 287.152856 
L 170.93515 281.489997 
L 171.143476 284.433865 
L 171.351801 293.250357 
L 171.560127 282.392452 
L 171.768452 302.028218 
L 172.185104 277.37655 
L 172.393429 293.703376 
L 172.601755 282.949344 
L 172.81008 279.197372 
L 173.018406 269.268078 
L 173.226731 277.776559 
L 173.643382 284.432374 
L 173.851708 298.881367 
L 174.060034 284.206454 
L 174.268359 284.74 
L 174.476685 280.615865 
L 174.68501 287.685627 
L 174.893336 287.452598 
L 175.101661 279.994802 
L 175.518312 293.116809 
L 175.726638 282.308623 
L 175.934964 282.876725 
L 176.351615 302.753119 
L 176.55994 275.078583 
L 176.768266 292.667308 
L 176.976591 295.671056 
L 177.184917 269.624137 
L 177.393242 286.037199 
L 177.601568 292.703411 
L 177.809894 283.354462 
L 178.018219 265.695134 
L 178.226545 266.167204 
L 178.43487 314.996609 
L 178.643196 293.881848 
L 179.059847 285.920767 
L 179.268172 296.048207 
L 179.476498 286.057403 
L 179.684824 288.389598 
L 179.893149 278.360286 
L 180.101475 280.566489 
L 180.3098 307.798513 
L 180.518126 298.14266 
L 180.726451 306.997842 
L 180.934777 280.716836 
L 181.143102 272.26622 
L 181.768079 289.398138 
L 181.976405 285.453692 
L 182.393056 302.544554 
L 182.601381 272.071376 
L 182.809707 274.845048 
L 183.018032 282.422943 
L 183.226358 276.150734 
L 183.434684 281.934761 
L 183.643009 307.04155 
L 183.851335 286.571372 
L 184.684637 286.571418 
L 184.892962 264.142067 
L 185.101288 297.851909 
L 185.309614 280.041935 
L 185.517939 272.915113 
L 185.726265 285.764752 
L 185.93459 289.480403 
L 186.142916 296.400011 
L 186.351241 295.515201 
L 186.559567 293.000961 
L 186.767892 295.17117 
L 186.976218 272.471487 
L 187.184544 287.339198 
L 187.392869 287.241624 
L 187.601195 285.431535 
L 187.80952 298.651037 
L 188.017846 272.519515 
L 188.434497 298.392716 
L 188.642822 274.182205 
L 188.851148 274.909485 
L 189.059474 259.325668 
L 189.267799 268.286563 
L 189.68445 314.655726 
L 190.101101 267.649231 
L 190.309427 303.423198 
L 190.517752 296.324494 
L 190.726078 301.138433 
L 190.934404 282.965858 
L 191.142729 281.965545 
L 191.351055 282.048625 
L 191.55938 281.575399 
L 191.767706 300.771008 
L 191.976031 280.742569 
L 192.184357 283.727521 
L 192.392682 272.501348 
L 192.809334 294.142453 
L 193.017659 281.886654 
L 193.43431 285.319842 
L 193.642636 298.587116 
L 193.850961 293.340775 
L 194.059287 272.279958 
L 194.267612 289.751216 
L 194.475938 285.313285 
L 194.684264 289.574941 
L 194.892589 281.964947 
L 195.100915 293.781915 
L 195.30924 283.41369 
L 195.517566 266.21875 
L 195.934217 306.196769 
L 196.350868 254.646575 
L 196.767519 323.0401 
L 196.975845 290.473522 
L 197.18417 289.101645 
L 197.392496 280.481987 
L 197.600821 301.032134 
L 197.809147 279.632844 
L 198.017472 275.030841 
L 198.225798 295.688715 
L 198.434124 292.401224 
L 198.642449 285.537786 
L 198.850775 286.913828 
L 199.0591 284.326551 
L 199.267426 274.68514 
L 199.475751 281.353181 
L 199.684077 293.65553 
L 199.892402 284.914281 
L 200.100728 289.765308 
L 200.309054 284.140127 
L 200.517379 291.479097 
L 200.725705 283.757919 
L 200.93403 280.187986 
L 201.142356 284.952901 
L 201.350681 294.883882 
L 201.559007 284.384307 
L 201.767332 289.172704 
L 201.975658 282.903131 
L 202.183984 286.843011 
L 202.392309 283.809975 
L 202.600635 289.063902 
L 202.80896 280.018931 
L 203.017286 280.532191 
L 203.225611 297.347926 
L 203.433937 278.476422 
L 203.642262 289.822068 
L 204.058914 284.839903 
L 204.267239 295.86749 
L 204.475565 282.757273 
L 204.68389 281.002848 
L 204.892216 265.871276 
L 205.100541 278.411794 
L 205.308867 310.953391 
L 205.933844 261.393375 
L 206.142169 262.23474 
L 206.55882 322.987529 
L 206.767146 289.102618 
L 206.975471 287.554459 
L 207.183797 291.099516 
L 207.392122 275.142385 
L 207.600448 301.570525 
L 208.017099 276.643841 
L 208.225425 267.879818 
L 208.43375 273.355144 
L 208.642076 304.632826 
L 208.850401 261.080067 
L 209.058727 307.247903 
L 209.267052 294.466714 
L 209.475378 294.170187 
L 209.683704 286.924252 
L 209.892029 283.628702 
L 210.100355 311.766548 
L 210.30868 286.571422 
L 211.141982 286.571427 
L 211.558634 269.313803 
L 211.766959 283.260105 
L 211.975285 281.90077 
L 212.18361 289.25823 
L 212.391936 275.012177 
L 212.600261 313.678605 
L 213.016912 265.868915 
L 213.225238 295.107457 
L 213.433564 293.02239 
L 213.641889 296.428016 
L 214.05854 277.384456 
L 214.266866 298.658288 
L 214.475191 369.36 
L 214.683517 305.005013 
L 214.891842 282.808965 
L 215.308494 287.91979 
L 215.516819 287.142537 
L 215.725145 281.765129 
L 215.93347 292.900492 
L 216.141796 289.529798 
L 216.350121 288.432534 
L 216.558447 288.007275 
L 216.766772 283.354607 
L 216.975098 288.42886 
L 217.183424 275.760549 
L 217.391749 305.387069 
L 217.600075 289.433676 
L 217.8084 287.234429 
L 218.016726 293.721752 
L 218.225051 306.251952 
L 218.433377 289.182808 
L 218.641702 295.595636 
L 218.850028 271.96215 
L 219.058354 293.200036 
L 219.475005 302.594342 
L 219.68333 335.273342 
L 219.891656 269.968875 
L 220.099981 269.078669 
L 220.308307 291.946732 
L 220.516632 285.22469 
L 220.724958 283.915238 
L 220.933284 293.651107 
L 221.141609 297.129151 
L 221.349935 317.719044 
L 221.766586 270.882932 
L 222.391562 303.437695 
L 222.599888 273.783103 
L 222.808214 290.199225 
L 223.016539 278.652622 
L 223.224865 297.596148 
L 223.43319 271.500579 
L 223.641516 271.190842 
L 224.058167 298.367224 
L 224.266492 274.034198 
L 224.474818 304.302537 
L 224.891469 274.453214 
L 225.099795 279.64493 
L 225.30812 277.553193 
L 225.516446 294.904158 
L 225.724771 286.038307 
L 225.933097 287.36011 
L 226.141422 311.730971 
L 226.558074 284.536285 
L 226.766399 297.426237 
L 226.974725 281.211975 
L 227.18305 286.380191 
L 227.391376 264.880149 
L 227.599701 282.513446 
L 227.808027 282.505029 
L 228.016352 290.544939 
L 228.224678 286.945663 
L 228.433004 293.492978 
L 228.641329 293.864592 
L 229.05798 278.769673 
L 229.266306 293.512955 
L 229.474631 294.902789 
L 229.682957 284.184244 
L 229.891282 290.347713 
L 230.307934 276.583628 
L 230.516259 280.716714 
L 230.724585 265.244725 
L 231.141236 288.236578 
L 231.349561 280.351294 
L 231.557887 290.743035 
L 231.766212 292.026616 
L 231.974538 260.71787 
L 232.391189 310.542146 
L 232.599515 281.451909 
L 232.80784 285.172455 
L 233.016166 284.042842 
L 233.224491 298.695619 
L 233.432817 272.105842 
L 233.849468 292.421372 
L 234.057794 290.833995 
L 234.266119 295.87539 
L 234.68277 325.657541 
L 234.891096 268.205543 
L 235.099421 296.324419 
L 235.516072 279.298472 
L 235.724398 271.878702 
L 235.932724 278.920503 
L 236.141049 290.305906 
L 236.349375 276.037941 
L 236.766026 284.579314 
L 236.974351 282.069697 
L 237.182677 284.811341 
L 237.391002 282.290641 
L 237.599328 305.833561 
L 237.807654 284.032414 
L 238.015979 279.947709 
L 238.224305 285.505561 
L 238.43263 287.812039 
L 238.849281 263.884605 
L 239.057607 291.952159 
L 239.265932 278.452391 
L 239.474258 289.342818 
L 239.682584 278.272735 
L 239.890909 286.415828 
L 240.30756 270.067523 
L 240.515886 281.628259 
L 240.724211 302.526833 
L 240.932537 300.287145 
L 241.140862 287.866196 
L 241.349188 300.555061 
L 241.557514 293.435883 
L 241.765839 293.249223 
L 241.974165 287.621391 
L 242.18249 294.411426 
L 242.390816 293.561713 
L 242.599141 293.380236 
L 242.807467 295.376607 
L 243.015792 290.171987 
L 243.224118 291.414297 
L 243.432444 288.168064 
L 243.640769 289.980334 
L 243.849095 293.098507 
L 244.05742 286.022349 
L 244.265746 293.994173 
L 244.474071 289.720477 
L 244.682397 281.585557 
L 244.890722 305.245476 
L 245.099048 289.493703 
L 245.307374 284.848441 
L 245.515699 293.433457 
L 246.140676 271.854951 
L 246.349001 266.985369 
L 246.557327 287.199804 
L 246.765652 275.075481 
L 246.973978 285.33516 
L 247.182304 284.597777 
L 247.390629 268.800623 
L 247.598955 291.979062 
L 248.015606 261.986563 
L 248.223931 283.173936 
L 248.432257 279.04499 
L 248.640582 281.634037 
L 248.848908 289.658281 
L 249.057234 291.426836 
L 249.265559 298.105281 
L 249.473885 292.902289 
L 249.68221 310.359097 
L 249.890536 294.57648 
L 250.098861 298.720788 
L 250.307187 290.688268 
L 250.515512 296.821388 
L 250.723838 271.07606 
L 250.932164 301.226929 
L 251.140489 300.492865 
L 251.55714 287.530622 
L 251.765466 267.778034 
L 251.973791 299.651903 
L 252.182117 291.883913 
L 252.390442 271.884342 
L 252.598768 291.200568 
L 252.807094 282.323257 
L 253.015419 283.130299 
L 253.223745 296.424781 
L 253.43207 282.22062 
L 253.848721 286.697413 
L 254.265372 319.655605 
L 254.473698 256.685604 
L 254.682024 285.98573 
L 254.890349 275.572723 
L 255.098675 292.949095 
L 255.307 282.120218 
L 255.515326 290.396376 
L 255.931977 294.618363 
L 256.140302 293.911403 
L 256.348628 258.696628 
L 256.556954 274.467171 
L 256.765279 263.204931 
L 256.973605 294.631752 
L 257.18193 278.306548 
L 257.390256 281.234284 
L 257.598581 272.678358 
L 257.806907 272.368806 
L 258.015232 280.278002 
L 258.223558 294.066809 
L 258.431884 278.931003 
L 258.640209 301.361869 
L 258.848535 288.497618 
L 259.05686 287.430397 
L 259.265186 303.594575 
L 259.473511 288.327751 
L 259.681837 256.479316 
L 260.098488 308.370344 
L 260.306814 283.78813 
L 260.515139 283.770419 
L 260.723465 275.632458 
L 260.93179 307.307553 
L 261.140116 285.580726 
L 261.556767 294.493336 
L 261.765092 293.053758 
L 261.973418 281.003108 
L 262.181744 278.491966 
L 262.390069 283.944578 
L 262.598395 304.4647 
L 262.80672 280.484351 
L 263.015046 297.905437 
L 263.431697 266.279143 
L 263.640022 300.729179 
L 263.848348 273.563642 
L 264.056674 316.686428 
L 264.264999 279.749207 
L 264.473325 271.068664 
L 264.68165 290.472691 
L 264.889976 285.404765 
L 265.098301 318.361006 
L 265.306627 295.395267 
L 265.514952 303.084911 
L 265.723278 281.574848 
L 265.931604 280.178279 
L 266.139929 305.766776 
L 266.348255 286.644278 
L 266.55658 289.841865 
L 266.764906 270.446599 
L 267.181557 288.866591 
L 267.389882 291.642921 
L 267.598208 283.538127 
L 267.806534 267.612993 
L 268.014859 294.493369 
L 268.223185 293.209477 
L 268.43151 293.543645 
L 268.639836 288.797686 
L 268.848161 280.150331 
L 269.056487 289.523956 
L 269.264812 286.424931 
L 269.473138 275.916637 
L 269.681464 255.877026 
L 269.889789 265.631809 
L 270.098115 321.105321 
L 270.30644 266.064882 
L 270.514766 279.863843 
L 270.723091 278.419965 
L 270.931417 304.095665 
L 271.139742 276.626683 
L 271.348068 280.986876 
L 271.556394 298.403435 
L 271.764719 303.227125 
L 271.973045 280.387402 
L 272.18137 307.633963 
L 272.389696 307.077046 
L 272.598021 290.843166 
L 272.806347 252.116613 
L 273.014672 268.324122 
L 273.222998 272.049154 
L 273.431324 298.417135 
L 273.639649 273.893296 
L 273.847975 279.981233 
L 274.0563 289.3413 
L 274.264626 289.149336 
L 274.472951 276.778397 
L 274.681277 291.384388 
L 274.889602 283.615237 
L 275.097928 287.843567 
L 275.306254 310.466316 
L 275.514579 275.958403 
L 275.722905 278.85409 
L 275.93123 283.920791 
L 276.139556 294.267945 
L 276.347881 280.629629 
L 276.556207 277.75264 
L 276.764532 292.42276 
L 276.972858 298.894167 
L 277.389509 283.253493 
L 277.597835 291.818367 
L 277.80616 285.845556 
L 278.014486 292.394163 
L 278.222811 262.343375 
L 278.431137 288.830053 
L 278.639462 298.886878 
L 278.847788 288.721488 
L 279.056113 295.646127 
L 279.264439 276.998774 
L 279.472765 293.037264 
L 279.68109 285.538042 
L 279.889416 284.626159 
L 280.097741 275.509068 
L 280.306067 249.773137 
L 280.514392 293.422809 
L 280.722718 280.147848 
L 280.931043 320.925668 
L 281.347695 264.320615 
L 281.55602 259.104977 
L 281.764346 314.664224 
L 281.972671 327.854133 
L 282.180997 293.993065 
L 282.389322 278.738381 
L 282.597648 292.8122 
L 282.805973 279.539372 
L 283.014299 282.115061 
L 283.222625 281.768609 
L 283.43095 291.47882 
L 283.639276 264.313023 
L 283.847601 288.327605 
L 284.055927 298.732115 
L 284.264252 298.369519 
L 284.472578 295.41991 
L 284.680903 282.031386 
L 284.889229 321.298828 
L 285.097555 269.286383 
L 285.30588 287.190802 
L 285.514206 288.801978 
L 285.722531 283.641235 
L 285.930857 285.726693 
L 286.139182 277.904664 
L 286.347508 283.20259 
L 286.555833 273.858795 
L 286.764159 275.876278 
L 286.972485 293.126223 
L 287.389136 286.654174 
L 287.597461 297.803891 
L 287.805787 295.100059 
L 288.014112 287.37696 
L 288.222438 285.652811 
L 288.430763 296.45332 
L 288.639089 260.037237 
L 288.847415 278.528581 
L 289.05574 310.474004 
L 289.264066 286.086052 
L 289.472391 276.227499 
L 289.680717 281.695512 
L 290.097368 294.915429 
L 290.305693 273.426713 
L 290.514019 314.014593 
L 290.722345 260.179664 
L 290.93067 300.179937 
L 291.138996 287.535703 
L 291.555647 295.330806 
L 291.763972 291.173871 
L 291.972298 278.283256 
L 292.388949 290.96247 
L 292.597275 280.661096 
L 292.8056 290.441049 
L 293.013926 291.658421 
L 293.222251 287.981202 
L 293.430577 306.67893 
L 293.638902 274.25662 
L 293.847228 289.324542 
L 294.055553 280.999616 
L 294.263879 279.449347 
L 294.472205 283.391482 
L 294.68053 276.641054 
L 294.888856 296.588144 
L 295.097181 295.473977 
L 295.305507 287.71291 
L 295.513832 309.352097 
L 295.722158 272.475552 
L 295.930483 289.263381 
L 296.138809 293.352775 
L 296.347135 272.018115 
L 296.55546 276.342743 
L 296.763786 285.771383 
L 296.972111 272.243944 
L 297.180437 307.719349 
L 297.388762 287.701709 
L 297.597088 289.304946 
L 297.805413 274.97105 
L 298.222065 294.549569 
L 298.638716 273.838759 
L 298.847041 288.866797 
L 299.055367 295.474478 
L 299.263692 284.222914 
L 299.472018 296.318684 
L 299.888669 288.070525 
L 300.096995 286.949879 
L 300.30532 283.08829 
L 300.513646 292.724334 
L 300.721971 295.549208 
L 300.930297 308.594703 
L 301.138622 296.07305 
L 301.346948 292.127283 
L 301.555273 276.031729 
L 301.763599 286.340635 
L 301.971925 286.211012 
L 302.18025 291.062918 
L 302.596901 291.52256 
L 303.013552 311.721388 
L 303.221878 271.840972 
L 303.430203 293.933077 
L 303.846855 256.409787 
L 304.05518 260.983674 
L 304.263506 301.530315 
L 304.471831 280.396421 
L 304.680157 273.297727 
L 305.096808 298.769738 
L 305.305133 278.189049 
L 305.513459 287.212109 
L 305.721785 304.374029 
L 305.93011 299.818169 
L 306.138436 301.764721 
L 306.346761 291.266462 
L 306.555087 272.30238 
L 306.763412 285.898822 
L 306.971738 273.024207 
L 307.180063 272.493252 
L 307.388389 266.605655 
L 307.596715 293.129734 
L 307.80504 299.702286 
L 308.013366 312.437259 
L 308.430017 277.256534 
L 308.638342 273.55447 
L 308.846668 285.734858 
L 309.054993 282.217456 
L 309.263319 275.091964 
L 309.471645 291.673285 
L 309.67997 291.884617 
L 310.096621 277.698984 
L 310.304947 288.85673 
L 310.721598 259.25379 
L 311.138249 271.985666 
L 311.346575 273.457363 
L 311.5549 304.740082 
L 311.763226 295.970543 
L 311.971551 306.311134 
L 312.179877 276.92672 
L 312.388202 297.699133 
L 312.804853 275.004673 
L 313.013179 279.663693 
L 313.221505 281.101499 
L 313.42983 285.914127 
L 313.638156 272.660229 
L 313.846481 281.361019 
L 314.054807 272.447721 
L 314.263132 277.307723 
L 314.471458 293.620244 
L 314.679783 300.100961 
L 314.888109 278.154062 
L 315.30476 290.248624 
L 315.513086 289.505924 
L 315.721411 273.021521 
L 315.929737 278.471434 
L 316.138062 287.198884 
L 316.346388 300.912193 
L 316.763039 280.118903 
L 316.971365 285.165435 
L 317.388016 266.999068 
L 317.596341 292.893557 
L 317.804667 290.155521 
L 318.012992 292.421351 
L 318.221318 274.581927 
L 318.429643 278.878423 
L 318.637969 294.021608 
L 318.846295 288.246813 
L 319.05462 300.564983 
L 319.262946 288.458807 
L 319.471271 297.185689 
L 319.679597 274.626718 
L 319.887922 278.896277 
L 320.096248 316.201549 
L 320.512899 275.578119 
L 320.721225 287.490495 
L 320.92955 273.346076 
L 321.346201 295.643418 
L 321.762852 288.522947 
L 321.971178 302.351508 
L 322.179503 298.171914 
L 322.387829 301.169498 
L 322.596155 285.766936 
L 322.80448 302.795986 
L 323.012806 289.744088 
L 323.429457 300.683546 
L 323.637782 279.384484 
L 323.846108 284.91052 
L 324.054433 304.635854 
L 324.471085 277.633704 
L 324.67941 294.953672 
L 324.887736 298.146784 
L 325.096061 297.083069 
L 325.304387 293.155978 
L 325.512712 299.419271 
L 325.721038 272.338328 
L 325.929363 274.950275 
L 326.137689 279.278062 
L 326.346015 280.508071 
L 326.55434 278.919636 
L 326.762666 304.992255 
L 326.970991 272.858611 
L 327.179317 280.76665 
L 327.387642 278.380259 
L 327.595968 281.674159 
L 327.804293 302.657005 
L 328.012619 268.067282 
L 328.220945 292.563709 
L 328.42927 295.901083 
L 328.637596 291.417079 
L 329.054247 273.543788 
L 329.262572 290.706489 
L 329.470898 288.079821 
L 329.679223 283.328685 
L 329.887549 288.610661 
L 330.095875 289.285022 
L 330.3042 276.07213 
L 330.512526 305.50561 
L 330.720851 294.507115 
L 330.929177 305.13023 
L 331.137502 277.089608 
L 331.345828 285.578839 
L 331.554153 276.163233 
L 331.970805 283.799155 
L 332.17913 270.91012 
L 332.387456 280.843051 
L 332.595781 284.113392 
L 332.804107 295.15286 
L 333.012432 279.771924 
L 333.220758 312.452409 
L 333.429083 290.080106 
L 333.637409 294.9696 
L 333.845735 295.795698 
L 334.05406 288.400889 
L 334.262386 267.668078 
L 334.470711 276.401812 
L 334.679037 277.318425 
L 334.887362 284.716064 
L 335.095688 281.317625 
L 335.304013 267.961473 
L 335.512339 282.884389 
L 335.720665 312.109382 
L 335.92899 302.463733 
L 336.137316 257.89915 
L 336.345641 287.552329 
L 336.553967 294.479819 
L 336.762292 294.676453 
L 337.178943 272.216799 
L 337.387269 290.221481 
L 337.595595 292.049249 
L 337.80392 277.371973 
L 338.012246 300.888082 
L 338.220571 284.317867 
L 338.428897 284.646142 
L 338.637222 260.968052 
L 338.845548 284.542622 
L 339.053873 281.784746 
L 339.262199 283.826751 
L 339.470525 314.275715 
L 339.67885 265.504745 
L 339.887176 286.085466 
L 340.095501 270.465466 
L 340.303827 299.528409 
L 340.512152 282.253849 
L 340.928803 286.915603 
L 341.137129 279.904288 
L 341.345455 297.969213 
L 341.55378 272.547153 
L 341.762106 276.784084 
L 341.970431 301.239021 
L 342.387082 268.103112 
L 342.595408 274.184998 
L 342.803733 289.384075 
L 343.012059 291.761119 
L 343.220385 289.672899 
L 343.42871 255.27468 
L 343.845361 316.861736 
L 344.053687 277.172252 
L 344.262012 280.292996 
L 344.470338 297.999771 
L 344.678663 300.213721 
L 344.886989 280.558771 
L 345.095315 275.325858 
L 345.30364 292.926865 
L 345.511966 294.890595 
L 345.720291 305.861087 
L 345.928617 287.434981 
L 346.136942 247.926261 
L 346.345268 319.72076 
L 346.970245 282.954787 
L 347.17857 295.04491 
L 347.386896 277.760076 
L 347.595221 277.002343 
L 347.803547 283.562791 
L 348.011872 255.992394 
L 348.636849 295.020327 
L 348.845175 289.634074 
L 349.261826 298.827536 
L 349.470151 294.08165 
L 349.678477 282.199251 
L 349.886802 305.733208 
L 350.303453 271.422092 
L 350.511779 292.467855 
L 350.720105 278.697877 
L 350.92843 293.703426 
L 351.136756 280.904074 
L 351.345081 275.917116 
L 351.553407 290.913852 
L 351.761732 280.230204 
L 351.970058 284.280754 
L 352.386709 300.328568 
L 352.595035 290.370498 
L 352.80336 285.971146 
L 353.011686 286.088556 
L 353.220011 278.679337 
L 353.428337 287.408099 
L 353.636662 276.05053 
L 353.844988 283.07835 
L 354.053313 281.430565 
L 354.261639 298.461933 
L 354.469965 271.268878 
L 354.67829 290.453359 
L 354.886616 288.873077 
L 355.094941 288.370002 
L 355.303267 291.864505 
L 355.511592 290.112654 
L 355.719918 273.648969 
L 356.136569 303.638311 
L 356.344895 309.353763 
L 356.55322 285.242427 
L 356.761546 291.909709 
L 356.969871 272.273138 
L 357.178197 287.154709 
L 357.386522 318.988126 
L 357.594848 302.006489 
L 357.803173 260.516067 
L 358.219825 296.318032 
L 358.42815 296.529774 
L 358.636476 255.389248 
L 358.844801 287.509736 
L 359.053127 301.763685 
L 359.469778 267.807721 
L 359.678103 279.923225 
L 359.886429 284.718157 
L 360.094755 269.456729 
L 360.30308 286.65093 
L 360.511406 292.643823 
L 360.719731 275.411692 
L 360.928057 288.543153 
L 361.344708 273.560033 
L 361.553033 309.396746 
L 361.761359 287.854489 
L 361.969685 288.711964 
L 362.17801 272.092811 
L 362.594661 298.578474 
L 362.802987 302.339898 
L 363.011312 270.245808 
L 363.219638 273.777884 
L 363.427963 304.686567 
L 363.844615 275.464751 
L 364.05294 294.059902 
L 364.261266 292.279361 
L 364.469591 295.242802 
L 364.677917 309.418454 
L 364.886242 302.090627 
L 365.094568 259.887448 
L 365.302893 284.937605 
L 365.511219 291.995219 
L 365.719545 293.680032 
L 365.92787 280.114492 
L 366.136196 288.127646 
L 366.344521 289.755637 
L 366.552847 279.135193 
L 366.761172 303.863328 
L 366.969498 282.568072 
L 367.177823 282.072369 
L 367.386149 289.658381 
L 367.594475 283.21222 
L 367.8028 287.042701 
L 368.011126 298.67264 
L 368.427777 274.110844 
L 368.636102 296.969536 
L 369.052753 276.542931 
L 369.261079 295.618809 
L 369.469405 256.07453 
L 369.67773 287.883367 
L 369.886056 289.108281 
L 370.094381 274.910728 
L 370.302707 289.288163 
L 370.511032 287.155853 
L 370.719358 277.497589 
L 370.927683 292.033824 
L 371.136009 261.041166 
L 371.344335 287.154888 
L 371.55266 282.966702 
L 371.760986 297.45132 
L 372.177637 264.663351 
L 372.385962 300.821911 
L 372.594288 296.536764 
L 372.802613 281.941574 
L 373.010939 284.372508 
L 373.219265 260.250322 
L 373.42759 299.205037 
L 373.635916 276.449324 
L 373.844241 275.762298 
L 374.052567 288.940689 
L 374.260892 271.250374 
L 374.469218 286.09151 
L 374.677543 268.623702 
L 374.885869 279.588539 
L 375.094195 305.040686 
L 375.30252 286.046354 
L 375.510846 284.390176 
L 375.719171 273.185686 
L 375.927497 296.139404 
L 376.135822 279.913702 
L 376.344148 293.581841 
L 376.552473 271.49516 
L 376.969125 293.411429 
L 377.17745 281.369119 
L 377.385776 292.014434 
L 377.594101 280.76198 
L 377.802427 291.000462 
L 378.010752 292.370446 
L 378.219078 263.918667 
L 378.427403 290.018901 
L 378.635729 275.792195 
L 378.844055 312.521237 
L 379.05238 270.878071 
L 379.260706 285.972376 
L 379.469031 282.826236 
L 379.885682 323.478788 
L 380.094008 310.077077 
L 380.302333 270.764826 
L 380.510659 258.889149 
L 380.718985 294.983474 
L 380.92731 276.601471 
L 381.343961 306.791972 
L 381.760612 288.926036 
L 382.177263 298.508325 
L 382.385589 284.344522 
L 382.593915 285.987154 
L 382.80224 289.583799 
L 383.010566 289.552218 
L 383.218891 299.089793 
L 383.427217 332.706348 
L 383.635542 269.962263 
L 383.843868 296.06331 
L 384.052193 280.611368 
L 384.260519 291.595756 
L 384.468845 285.657449 
L 384.67717 293.942012 
L 384.885496 280.746411 
L 385.302147 306.351687 
L 385.510472 286.04677 
L 385.718798 280.381958 
L 385.927123 291.874804 
L 386.135449 291.902764 
L 386.343775 276.681038 
L 386.760426 303.212869 
L 386.968751 300.661986 
L 387.385402 286.376603 
L 387.593728 263.635867 
L 387.802053 287.497502 
L 388.010379 268.61527 
L 388.218704 286.139054 
L 388.42703 271.574247 
L 388.635356 273.413918 
L 388.843681 305.511725 
L 389.052007 292.333426 
L 389.260332 292.416171 
L 389.468658 289.911598 
L 389.676983 291.853869 
L 389.885309 281.298983 
L 390.30196 291.577296 
L 390.510286 281.527649 
L 390.718611 263.871387 
L 390.926937 302.327768 
L 391.135262 296.755537 
L 391.343588 284.375183 
L 391.551913 279.020046 
L 391.760239 290.674714 
L 391.968564 290.629176 
L 392.17689 296.794108 
L 392.385216 309.056049 
L 392.593541 267.244615 
L 392.801867 294.736712 
L 393.010192 281.190157 
L 393.218518 326.676569 
L 393.426843 310.260369 
L 393.635169 278.31829 
L 393.843494 296.395245 
L 394.05182 302.288651 
L 394.260146 300.124202 
L 394.468471 291.872003 
L 394.676797 272.856839 
L 394.885122 281.637506 
L 395.093448 272.61419 
L 395.301773 279.379709 
L 395.510099 275.505173 
L 395.718424 287.022396 
L 395.92675 285.288403 
L 396.135076 268.851643 
L 396.343401 271.23876 
L 396.551727 304.352459 
L 396.968378 277.083741 
L 397.176703 286.293898 
L 397.385029 269.292058 
L 397.593354 276.035848 
L 397.80168 289.978499 
L 398.010006 279.722018 
L 398.218331 279.122125 
L 398.426657 272.959984 
L 398.634982 286.697776 
L 398.843308 281.626302 
L 399.051633 268.255973 
L 399.259959 281.434167 
L 399.468284 277.417707 
L 399.67661 290.678182 
L 399.884936 277.476355 
L 400.093261 283.440875 
L 400.509912 288.843522 
L 400.926563 270.754107 
L 401.134889 282.752011 
L 401.343214 271.912169 
L 401.55154 267.924526 
L 401.759866 280.262487 
L 401.968191 270.313534 
L 402.176517 292.263073 
L 402.384842 288.738268 
L 402.593168 292.116771 
L 402.801493 283.186821 
L 403.009819 289.843205 
L 403.218144 286.113709 
L 403.42647 298.131531 
L 403.634796 279.46084 
L 403.843121 297.661303 
L 404.259772 276.438129 
L 404.468098 285.909338 
L 404.676423 267.607101 
L 405.093074 300.849971 
L 405.3014 291.518177 
L 405.509726 300.539401 
L 405.718051 300.456996 
L 405.926377 289.020784 
L 406.134702 298.148283 
L 406.343028 291.529397 
L 406.759679 268.12486 
L 406.968004 258.192874 
L 407.384656 283.149213 
L 407.592981 290.919794 
L 407.801307 272.678115 
L 408.009632 267.294808 
L 408.217958 293.06138 
L 408.426283 298.683963 
L 408.634609 291.655704 
L 408.842934 280.176891 
L 409.05126 281.121679 
L 409.259586 267.70022 
L 409.467911 291.344167 
L 409.884562 285.873962 
L 410.092888 288.977337 
L 410.301213 288.732633 
L 410.509539 284.625562 
L 410.92619 290.827013 
L 411.134516 288.105839 
L 411.342841 288.712683 
L 411.551167 296.302815 
L 411.759492 272.381022 
L 411.967818 270.025478 
L 412.176143 273.832072 
L 412.384469 292.129141 
L 412.592794 277.653797 
L 412.80112 276.464494 
L 413.009446 278.2834 
L 413.217771 300.074071 
L 413.426097 279.679972 
L 413.634422 277.043138 
L 413.842748 300.090383 
L 414.051073 286.677262 
L 414.259399 284.502016 
L 414.467724 298.038227 
L 414.67605 283.593808 
L 414.884376 286.455562 
L 415.092701 285.486056 
L 415.301027 300.739835 
L 415.509352 283.849457 
L 415.717678 296.334959 
L 416.342654 279.446354 
L 416.55098 293.923242 
L 416.759306 285.574199 
L 416.967631 290.705279 
L 417.175957 302.777527 
L 417.384282 295.202723 
L 417.592608 310.369247 
L 418.009259 274.213099 
L 418.42591 300.784292 
L 418.842561 273.057867 
L 419.050887 267.913839 
L 419.259212 286.643779 
L 419.467538 333.015052 
L 419.675863 283.875815 
L 419.884189 268.089917 
L 420.092514 287.170491 
L 420.30084 282.492644 
L 420.509166 283.704319 
L 420.717491 272.659899 
L 421.134142 305.812757 
L 421.342468 292.31477 
L 421.550793 297.662525 
L 421.759119 273.45191 
L 421.967444 317.232099 
L 422.17577 307.160951 
L 422.384096 267.957306 
L 422.592421 276.091198 
L 422.800747 305.824035 
L 423.009072 277.896405 
L 423.217398 277.670645 
L 423.425723 296.042383 
L 423.842374 252.451884 
L 424.259026 329.600127 
L 424.675677 268.179815 
L 424.884002 297.325521 
L 425.092328 296.797395 
L 425.300653 290.19077 
L 425.508979 266.892025 
L 425.717304 285.491986 
L 425.92563 279.480638 
L 426.133956 279.932583 
L 426.342281 274.912744 
L 426.550607 254.905909 
L 426.758932 263.185631 
L 427.175583 308.46373 
L 427.383909 287.074131 
L 427.80056 298.731682 
L 428.008886 290.597588 
L 428.217211 273.789785 
L 428.425537 286.816052 
L 428.633862 286.597252 
L 428.842188 281.838949 
L 429.050513 267.148145 
L 429.258839 296.27156 
L 429.67549 286.788773 
L 429.883816 287.304742 
L 430.092141 314.069654 
L 430.300467 291.29738 
L 430.508792 303.959196 
L 430.717118 277.254957 
L 430.925443 284.971489 
L 431.133769 279.842668 
L 431.342094 288.848105 
L 431.55042 285.603524 
L 431.758746 296.219304 
L 431.967071 264.931173 
L 432.383722 301.095419 
L 432.592048 277.377536 
L 432.800373 301.2309 
L 433.008699 270.078017 
L 433.217024 298.429523 
L 433.42535 273.988875 
L 433.633676 299.848245 
L 434.050327 265.717719 
L 434.258652 317.940646 
L 434.466978 273.010784 
L 434.675303 308.291607 
L 435.091954 268.357054 
L 435.30028 280.97789 
L 435.508606 318.574216 
L 435.716931 288.576014 
L 435.925257 283.298457 
L 436.133582 287.944548 
L 436.341908 279.264566 
L 436.550233 287.687805 
L 436.758559 312.214584 
L 436.966884 275.0968 
L 437.383536 306.391288 
L 437.591861 245.589225 
L 437.800187 294.766736 
L 438.008512 281.941689 
L 438.216838 287.192661 
L 438.425163 276.307666 
L 438.633489 291.032159 
L 438.841814 257.502067 
L 439.05014 296.945289 
L 439.258466 287.165109 
L 439.466791 263.982277 
L 439.883442 287.03219 
L 440.300093 277.131451 
L 440.508419 276.508839 
L 440.716744 268.433555 
L 440.92507 268.036195 
L 441.133396 298.809293 
L 441.341721 274.233757 
L 441.550047 280.433375 
L 441.758372 264.678723 
L 441.966698 298.103459 
L 442.175023 281.400036 
L 442.383349 287.44909 
L 442.591674 287.84733 
L 442.8 287.866518 
L 443.008326 285.087004 
L 443.216651 286.526288 
L 443.424977 290.534821 
L 443.633302 277.261284 
L 443.841628 273.688115 
L 444.049953 282.150865 
L 444.258279 282.058092 
L 444.466604 308.0721 
L 444.67493 275.55839 
L 444.883256 303.354381 
L 445.091581 276.502189 
L 445.299907 271.786661 
L 445.508232 295.954761 
L 445.716558 295.380212 
L 445.924883 285.632717 
L 446.133209 294.851988 
L 446.341534 289.245118 
L 446.54986 288.336373 
L 446.758186 301.624174 
L 446.966511 267.662371 
L 447.174837 293.704156 
L 447.383162 279.815503 
L 447.591488 289.215204 
L 447.799813 272.432875 
L 448.008139 295.884691 
L 448.216464 300.485699 
L 448.42479 276.41931 
L 448.633116 283.147014 
L 448.841441 297.956079 
L 449.049767 294.65137 
L 449.466418 273.148469 
L 449.674743 289.587472 
L 449.883069 317.54621 
L 450.091394 268.285324 
L 450.29972 296.605079 
L 450.508046 287.607403 
L 450.716371 308.489221 
L 450.924697 297.756458 
L 451.133022 272.285441 
L 451.341348 286.20304 
L 451.549673 284.974894 
L 451.757999 300.189365 
L 451.966324 273.48767 
L 452.591301 287.643943 
L 453.007952 274.280803 
L 453.424603 288.909767 
L 453.841254 278.546537 
L 454.04958 278.866887 
L 454.257906 298.076671 
L 454.466231 269.258222 
L 454.674557 301.752072 
L 454.882882 251.58214 
L 455.091208 305.532238 
L 455.299533 279.173288 
L 455.507859 302.461281 
L 455.92451 265.322542 
L 456.132836 280.867456 
L 456.341161 274.90992 
L 456.549487 314.214928 
L 456.757812 308.990928 
L 457.174463 285.657482 
L 457.382789 268.768937 
L 457.591114 289.984578 
L 458.007766 264.825138 
L 458.216091 262.857465 
L 458.424417 312.363343 
L 458.632742 286.523438 
L 458.841068 289.127271 
L 459.049393 301.767348 
L 459.466044 251.452254 
L 459.67437 296.747529 
L 459.882696 265.916488 
L 460.091021 290.337836 
L 460.507672 271.576188 
L 460.715998 284.889271 
L 460.924323 284.224327 
L 461.132649 292.827196 
L 461.757626 276.240132 
L 462.174277 299.835366 
L 462.382602 298.302005 
L 462.590928 279.787049 
L 462.799253 284.842584 
L 463.007579 283.041846 
L 463.215904 284.43393 
L 463.42423 297.09955 
L 463.632556 292.976167 
L 463.840881 257.85641 
L 464.049207 300.620968 
L 464.257532 286.215585 
L 464.465858 287.169719 
L 464.674183 299.38792 
L 464.882509 279.653795 
L 465.090834 285.743904 
L 465.29916 271.375721 
L 465.507486 295.501315 
L 465.715811 294.498599 
L 465.924137 291.166468 
L 466.132462 300.562129 
L 466.340788 292.19897 
L 466.549113 277.260154 
L 466.757439 287.114566 
L 466.965764 287.980974 
L 467.17409 281.993836 
L 467.590741 289.183563 
L 467.799067 294.651506 
L 468.007392 294.880239 
L 468.215718 265.562583 
L 468.424043 275.124343 
L 468.632369 307.384526 
L 468.840694 274.492473 
L 469.04902 279.181874 
L 469.257346 259.977505 
L 469.465671 226.864485 
L 469.673997 276.093935 
L 469.882322 253.964487 
L 470.090648 253.44804 
L 470.298973 266.682073 
L 470.715624 276.317894 
L 470.92395 271.65864 
L 471.132276 273.894896 
L 471.340601 278.309334 
L 471.548927 277.008042 
L 471.757252 286.531747 
L 471.965578 368.828972 
L 472.173903 274.374718 
L 472.382229 297.976084 
L 472.590554 281.834242 
L 473.007206 308.717042 
L 473.423857 294.895298 
L 473.632182 299.17193 
L 474.048833 311.06465 
L 474.257159 291.114383 
L 474.465484 312.139373 
L 474.67381 299.416946 
L 474.882136 295.437395 
L 475.090461 323.582119 
L 475.298787 298.532762 
L 475.507112 302.652764 
L 475.715438 289.501264 
L 475.923763 292.901846 
L 476.132089 289.326011 
L 476.340414 291.517496 
L 476.54874 286.416697 
L 476.757066 289.255324 
L 476.965391 295.776999 
L 477.173717 295.668569 
L 477.382042 293.570068 
L 477.590368 299.293729 
L 477.798693 296.903442 
L 478.007019 303.504589 
L 478.215344 280.257333 
L 478.42367 293.794571 
L 478.631996 289.427508 
L 479.048647 298.228742 
L 479.256972 282.742762 
L 479.465298 295.576983 
L 479.673623 299.900153 
L 479.881949 273.792286 
L 480.090274 314.587036 
L 480.2986 276.684288 
L 480.506926 264.820324 
L 480.715251 319.609536 
L 480.923577 292.875499 
L 481.131902 284.371653 
L 481.340228 270.49107 
L 481.548553 283.264277 
L 481.756879 266.238737 
L 481.965204 279.638117 
L 482.17353 285.704899 
L 482.381856 277.694443 
L 482.590181 279.75648 
L 482.798507 291.026629 
L 483.006832 308.383708 
L 483.423483 298.488907 
L 483.631809 279.283017 
L 483.840134 286.296767 
L 484.04846 303.335979 
L 484.256786 281.927364 
L 484.465111 276.616472 
L 484.673437 301.935989 
L 484.881762 288.067477 
L 485.090088 281.919013 
L 485.298413 292.235088 
L 485.506739 282.479532 
L 485.715064 294.89361 
L 485.92339 283.287387 
L 486.340041 293.056414 
L 486.548367 280.4311 
L 486.756692 283.440582 
L 486.965018 296.363653 
L 487.173343 296.443574 
L 487.381669 298.959124 
L 487.589994 285.527405 
L 487.79832 293.170156 
L 488.006646 292.688815 
L 488.214971 297.927927 
L 488.423297 279.537759 
L 488.631622 286.134298 
L 488.839948 309.935719 
L 489.048273 300.41624 
L 489.256599 281.05013 
L 489.464924 283.674291 
L 489.67325 296.206609 
L 490.089901 262.822057 
L 490.298227 294.696183 
L 490.506552 274.385653 
L 490.714878 302.086182 
L 490.923203 284.430849 
L 491.131529 287.444495 
L 491.54818 273.235508 
L 491.756506 284.952368 
L 491.964831 287.51108 
L 492.173157 283.422282 
L 492.381482 292.445104 
L 492.589808 262.568281 
L 492.798133 321.668515 
L 493.006459 278.108406 
L 493.214784 277.238302 
L 493.42311 291.288785 
L 493.631436 265.768108 
L 493.839761 288.758422 
L 494.048087 284.415353 
L 494.256412 299.546603 
L 494.464738 287.473685 
L 494.673063 306.195737 
L 494.881389 297.37271 
L 495.089714 317.729141 
L 495.29804 279.59257 
L 495.506366 264.71772 
L 495.714691 298.428921 
L 495.923017 275.011308 
L 496.131342 284.047415 
L 496.339668 307.96504 
L 496.547993 284.814321 
L 496.756319 277.000408 
L 496.964644 274.748498 
L 497.17297 299.663723 
L 497.381296 286.505589 
L 497.589621 286.881263 
L 497.797947 304.061996 
L 498.006272 279.690418 
L 498.214598 278.501698 
L 498.422923 294.344939 
L 498.631249 291.283572 
L 498.839574 274.968759 
L 499.0479 280.185834 
L 499.256225 304.220366 
L 499.672877 291.958378 
L 499.881202 314.067579 
L 500.297853 265.793601 
L 500.506179 294.00208 
L 500.714504 303.615748 
L 500.92283 276.472079 
L 501.131155 288.907488 
L 501.339481 280.461027 
L 501.547807 306.644022 
L 501.756132 291.39749 
L 501.964458 291.100666 
L 502.172783 305.756881 
L 502.381109 305.701586 
L 502.589434 298.785153 
L 502.79776 309.406923 
L 503.006085 279.796883 
L 503.214411 269.47746 
L 503.631062 291.35415 
L 503.839388 281.14201 
L 504.047713 293.006924 
L 504.256039 276.905445 
L 504.464364 281.117035 
L 504.881015 297.353322 
L 505.089341 300.610219 
L 505.297667 277.66777 
L 505.505992 284.813206 
L 505.714318 297.470255 
L 505.922643 292.548453 
L 506.130969 259.702891 
L 506.339294 291.803633 
L 506.54762 265.830274 
L 506.964271 292.370527 
L 507.172597 282.867843 
L 507.380922 279.490677 
L 507.589248 286.314488 
L 507.797573 283.790142 
L 508.005899 284.780823 
L 508.214224 283.625938 
L 508.42255 280.045861 
L 508.630875 304.835976 
L 508.839201 253.111109 
L 509.047527 313.557195 
L 509.255852 287.956695 
L 509.672503 273.378156 
L 509.880829 302.313548 
L 510.089154 300.569197 
L 510.29748 260.311948 
L 510.505805 301.732802 
L 510.714131 267.699962 
L 510.922457 297.103359 
L 511.130782 276.884162 
L 511.339108 289.502717 
L 511.547433 263.397914 
L 511.755759 301.570868 
L 511.964084 281.066357 
L 512.380735 298.514316 
L 512.589061 273.928321 
L 512.797387 267.841369 
L 513.005712 295.63968 
L 513.214038 276.27314 
L 513.630689 289.044311 
L 513.839014 276.21405 
L 514.255665 292.86094 
L 514.463991 295.642623 
L 514.672317 263.536623 
L 514.880642 295.575664 
L 515.088968 271.728636 
L 515.505619 302.848327 
L 515.713944 275.455823 
L 515.92227 295.231319 
L 516.130595 286.524445 
L 516.338921 282.942566 
L 516.547247 266.135502 
L 516.963898 322.894762 
L 517.172223 288.427152 
L 517.380549 294.529264 
L 517.588874 291.260074 
L 517.7972 304.729487 
L 518.005525 270.925247 
L 518.213851 277.602247 
L 518.422177 266.756017 
L 518.630502 300.551951 
L 518.838828 279.242615 
L 519.047153 289.72794 
L 519.255479 276.613483 
L 519.463804 278.456443 
L 519.880455 294.748174 
L 520.088781 286.501029 
L 520.297107 302.315591 
L 520.505432 265.39077 
L 520.713758 303.761911 
L 520.922083 262.782717 
L 521.130409 304.651198 
L 521.54706 276.245316 
L 521.755385 288.306197 
L 521.963711 287.840768 
L 522.172037 266.120538 
L 522.380362 284.965156 
L 522.588688 292.107956 
L 522.797013 283.89464 
L 523.005339 298.751888 
L 523.213664 296.373055 
L 523.42199 300.134342 
L 523.630315 275.042778 
L 523.838641 294.024514 
L 524.046967 283.495693 
L 524.255292 292.179632 
L 524.463618 290.935189 
L 524.671943 268.727991 
L 524.880269 269.319095 
L 525.088594 296.982954 
L 525.29692 297.877794 
L 525.505245 287.034429 
L 525.713571 294.562916 
L 525.921897 273.442702 
L 526.130222 304.757443 
L 526.546873 280.766131 
L 527.17185 257.878392 
L 527.588501 311.69268 
L 527.796827 293.055847 
L 528.005152 295.689559 
L 528.213478 286.692456 
L 528.421803 297.672864 
L 528.630129 301.607973 
L 528.838454 288.026275 
L 529.04678 301.321383 
L 529.255105 291.148322 
L 529.463431 266.383327 
L 529.671757 269.968603 
L 530.088408 325.653748 
L 530.296733 277.691166 
L 530.505059 288.98885 
L 530.713384 289.63173 
L 530.92171 300.795378 
L 531.130035 282.904892 
L 531.338361 297.195876 
L 531.546687 280.535997 
L 531.755012 301.884938 
L 532.171663 289.830705 
L 532.379989 307.787375 
L 532.588314 283.130248 
L 532.79664 244.936859 
L 533.004965 285.84126 
L 533.421617 280.159711 
L 533.629942 284.174066 
L 533.838268 284.497248 
L 534.046593 297.92614 
L 534.254919 288.6733 
L 534.463244 257.06961 
L 534.67157 290.057097 
L 534.879895 298.359816 
L 535.088221 279.076156 
L 535.296547 295.877296 
L 535.504872 296.719774 
L 535.713198 279.478502 
L 535.921523 286.373278 
L 536.129849 278.389846 
L 536.338174 294.355891 
L 536.5465 297.276517 
L 536.754825 287.356924 
L 536.963151 293.204461 
L 537.171477 271.771482 
L 537.796453 301.387166 
L 538.004779 272.951355 
L 538.213104 266.064805 
L 538.42143 292.055987 
L 538.629755 296.125261 
L 538.838081 292.737283 
L 539.046407 292.988901 
L 539.254732 305.49949 
L 539.463058 283.291724 
L 539.671383 281.840258 
L 539.879709 311.707385 
L 540.088034 291.363357 
L 540.504685 300.146664 
L 540.713011 288.923036 
L 540.921337 284.075545 
L 541.129662 306.768451 
L 541.337988 290.941066 
L 541.546313 284.746759 
L 541.754639 271.735596 
L 541.962964 279.579859 
L 542.379615 277.298596 
L 542.587941 280.080149 
L 542.796267 310.848381 
L 543.004592 293.424707 
L 543.212918 286.140473 
L 543.421243 309.680461 
L 543.629569 293.293127 
L 543.837894 292.01862 
L 544.04622 283.705899 
L 544.254545 314.623157 
L 544.462871 288.224891 
L 544.671197 291.51671 
L 544.879522 276.694777 
L 545.087848 291.82463 
L 545.296173 289.478417 
L 545.504499 337.843445 
L 545.712824 279.977216 
L 545.92115 293.776816 
L 546.129475 298.565503 
L 546.337801 288.335385 
L 546.754452 314.873495 
L 546.962778 293.81167 
L 547.171103 305.458539 
L 547.379429 305.907463 
L 547.587754 301.027335 
L 547.79608 307.004221 
L 548.004405 204.711889 
L 548.212731 288.203439 
L 548.421057 285.134868 
L 548.629382 292.510222 
L 548.837708 265.704654 
L 549.046033 268.728128 
L 549.254359 290.463607 
L 549.462684 290.676676 
L 549.67101 287.923928 
L 549.879335 267.442032 
L 550.087661 285.422288 
L 550.295987 282.696402 
L 550.504312 270.51829 
L 550.712638 282.141326 
L 550.920963 276.729565 
L 551.129289 277.799201 
L 551.337614 266.79639 
L 551.54594 269.08305 
L 551.962591 286.434377 
L 552.170917 286.699931 
L 552.379242 291.165485 
L 553.004219 277.355798 
L 553.212544 268.947923 
L 553.42087 278.150883 
L 553.629195 272.699417 
L 553.837521 291.733863 
L 554.045847 266.856627 
L 554.254172 284.87917 
L 554.462498 267.652537 
L 554.670823 278.625314 
L 554.879149 283.037261 
L 555.087474 277.817622 
L 555.2958 279.243546 
L 555.504125 271.214538 
L 555.920777 302.641975 
L 556.129102 262.686018 
L 556.337428 296.717115 
L 556.545753 291.733807 
L 556.754079 274.877172 
L 556.962404 277.158038 
L 557.379055 305.010225 
L 557.587381 284.87233 
L 557.795707 301.905168 
L 558.004032 293.199744 
L 558.212358 268.306081 
L 558.420683 293.61867 
L 558.629009 281.023408 
L 558.837334 279.70084 
L 559.04566 258.423035 
L 559.253985 292.551692 
L 559.462311 264.112487 
L 559.670637 293.397945 
L 559.878962 297.840198 
L 560.087288 286.640464 
L 560.295613 287.393228 
L 560.503939 269.220767 
L 560.712264 264.101798 
L 561.128915 303.880858 
L 561.337241 289.553786 
L 561.545567 294.09148 
L 561.753892 276.301645 
L 561.962218 279.055748 
L 562.170543 275.78334 
L 562.378869 278.176948 
L 562.587194 276.852925 
L 562.79552 303.989459 
L 563.003845 269.634609 
L 563.212171 287.447205 
L 563.420497 266.496493 
L 563.628822 285.771978 
L 563.837148 281.70705 
L 564.045473 287.660542 
L 564.253799 283.544501 
L 564.462124 289.522715 
L 564.67045 300.971571 
L 564.878775 286.072099 
L 565.087101 290.639101 
L 565.295427 269.512362 
L 565.503752 293.895379 
L 565.712078 303.588533 
L 565.920403 294.513177 
L 566.128729 297.626007 
L 566.337054 294.654503 
L 566.54538 289.847541 
L 566.753705 262.643502 
L 567.170357 308.922841 
L 567.378682 270.659766 
L 567.587008 294.673738 
L 567.795333 292.796308 
L 568.003659 287.349393 
L 568.211984 284.9891 
L 568.42031 277.283985 
L 568.628635 308.520612 
L 568.836961 259.727492 
L 569.045287 310.809726 
L 569.461938 278.364082 
L 569.670263 292.982733 
L 569.878589 276.762613 
L 570.086914 297.85607 
L 570.29524 281.96642 
L 570.503565 280.539363 
L 570.711891 262.854765 
L 570.920217 271.157777 
L 571.128542 234.780221 
L 571.336868 316.134432 
L 571.545193 288.097305 
L 571.753519 290.836872 
L 571.961844 297.676755 
L 572.378495 278.619823 
L 572.586821 285.034382 
L 572.795147 302.830774 
L 573.003472 302.215986 
L 573.211798 243.353815 
L 573.628449 276.955128 
L 573.836774 280.769041 
L 574.0451 281.489575 
L 574.253425 285.825913 
L 574.461751 294.205154 
L 574.670077 286.272639 
L 574.878402 288.101305 
L 575.086728 304.23657 
L 575.295053 275.692553 
L 575.711704 306.624268 
L 575.92003 292.125671 
L 576.128355 263.275271 
L 576.336681 267.011292 
L 576.545007 309.439671 
L 576.753332 273.961599 
L 576.961658 291.018167 
L 577.169983 278.223179 
L 577.378309 302.926156 
L 577.586634 266.113992 
L 578.003285 292.61173 
L 578.211611 280.239892 
L 578.419937 288.908121 
L 578.628262 304.233053 
L 579.044913 272.302817 
L 579.253239 284.857319 
L 579.461564 287.531418 
L 579.66989 257.968377 
L 579.878215 300.220129 
L 580.086541 296.911767 
L 580.294867 302.862676 
L 580.503192 283.696526 
L 580.711518 285.069997 
L 580.919843 278.887303 
L 581.336494 295.00544 
L 581.54482 280.192767 
L 581.961471 264.145801 
L 582.169797 307.652801 
L 582.378122 285.63041 
L 582.586448 303.943645 
L 583.003099 281.365579 
L 583.211424 270.384723 
L 583.41975 307.101112 
L 583.628075 295.080005 
L 583.836401 294.12869 
L 584.044727 312.926263 
L 584.253052 288.071724 
L 584.461378 288.068555 
L 584.669703 279.400292 
L 584.878029 291.514331 
L 585.086354 283.425547 
L 585.29468 290.892291 
L 585.503005 279.633401 
L 585.711331 299.557742 
L 585.919657 264.58537 
L 586.127982 283.406702 
L 586.336308 286.835828 
L 586.544633 263.686965 
L 586.752959 302.058953 
L 586.961284 270.647201 
L 587.16961 322.808084 
L 587.377935 275.502567 
L 587.586261 303.118289 
L 587.794587 279.206275 
L 588.002912 295.505025 
L 588.211238 291.74284 
L 588.419563 297.207988 
L 588.627889 317.637358 
L 588.836214 270.48355 
L 589.04454 295.467866 
L 589.252865 296.804587 
L 589.461191 287.453015 
L 589.877842 300.763739 
L 590.086168 297.980231 
L 590.294493 279.830273 
L 590.502819 280.796068 
L 590.711144 290.316391 
L 590.91947 290.832436 
L 591.127795 295.207855 
L 591.336121 295.088981 
L 591.544447 278.358765 
L 591.752772 304.634909 
L 591.961098 281.306024 
L 592.377749 304.406305 
L 592.586074 310.775948 
L 592.7944 299.151963 
L 593.002725 268.000153 
L 593.211051 300.13535 
L 593.419377 291.903874 
L 593.627702 253.04374 
L 593.836028 296.565191 
L 594.044353 286.109141 
L 594.252679 296.39312 
L 594.461004 300.391211 
L 594.66933 275.624316 
L 594.877655 286.735541 
L 595.085981 281.896963 
L 595.294307 299.169491 
L 595.502632 283.971857 
L 595.710958 292.483447 
L 595.919283 286.593916 
L 596.127609 287.608249 
L 596.335934 279.343606 
L 596.54426 294.658007 
L 596.752585 276.231658 
L 596.960911 304.824708 
L 597.169237 271.760961 
L 597.377562 290.564422 
L 597.585888 299.053881 
L 597.794213 273.493291 
L 598.002539 283.112212 
L 598.210864 308.632871 
L 598.41919 283.590565 
L 598.627515 276.680755 
L 599.044167 288.586414 
L 599.460818 281.292971 
L 599.669143 294.383901 
L 600.085794 283.570545 
L 600.29412 287.844483 
L 600.502445 289.025472 
L 600.710771 292.251196 
L 600.919097 299.966014 
L 601.127422 277.052645 
L 601.335748 288.583493 
L 601.544073 276.606139 
L 601.752399 272.991981 
L 601.960724 277.879741 
L 602.377375 274.388388 
L 602.585701 287.132972 
L 602.794027 291.488165 
L 603.002352 298.739184 
L 603.210678 291.187566 
L 603.419003 312.273067 
L 603.627329 277.647518 
L 603.835654 277.01221 
L 604.04398 283.419769 
L 604.252305 294.227543 
L 604.460631 264.172503 
L 604.668957 280.958394 
L 604.877282 307.193669 
L 605.085608 280.221817 
L 605.293933 290.005785 
L 605.502259 268.058376 
L 605.710584 303.879869 
L 605.91891 307.539056 
L 606.127235 254.807985 
L 606.335561 297.851754 
L 606.543887 295.730471 
L 606.752212 255.307202 
L 606.960538 248.126458 
L 607.168863 264.492634 
L 607.377189 306.535049 
L 607.585514 303.995056 
L 607.79384 286.473081 
L 608.002165 288.825271 
L 608.210491 281.478634 
L 608.418817 282.066174 
L 608.627142 292.664649 
L 608.835468 296.552662 
L 609.043793 287.24218 
L 609.252119 272.924956 
L 609.460444 276.621567 
L 609.66877 266.903685 
L 609.877095 331.299452 
L 610.085421 281.129737 
L 610.293746 306.436692 
L 610.502072 304.313938 
L 610.710398 266.618427 
L 610.918723 278.580559 
L 611.127049 281.952454 
L 611.335374 287.847284 
L 611.5437 282.934647 
L 611.752025 289.975206 
L 612.168676 275.8768 
L 612.585328 292.276725 
L 612.793653 287.473806 
L 613.001979 271.893427 
L 613.41863 287.79089 
L 613.626955 285.44594 
L 613.835281 277.445492 
L 614.251932 301.443844 
L 614.668583 269.463494 
L 614.876909 279.877981 
L 615.085234 272.339976 
L 615.29356 274.043798 
L 615.501885 290.682026 
L 615.710211 274.743582 
L 615.918536 272.875399 
L 616.126862 257.656429 
L 616.335188 273.184695 
L 616.543513 264.941472 
L 616.751839 294.527902 
L 617.16849 269.772452 
L 617.376815 298.451864 
L 617.585141 273.999398 
L 617.793466 310.163976 
L 618.210118 284.142414 
L 618.626769 306.530051 
L 618.835094 281.902966 
L 619.04342 273.30203 
L 619.251745 289.532111 
L 619.460071 276.220057 
L 619.668396 282.046155 
L 619.876722 282.417022 
L 620.085048 281.762423 
L 620.293373 277.811579 
L 620.710024 293.791667 
L 620.91835 292.613445 
L 621.126675 275.911466 
L 621.335001 293.801176 
L 621.543326 282.922079 
L 621.751652 308.868788 
L 621.959978 306.609876 
L 622.168303 300.621557 
L 622.376629 284.977571 
L 622.584954 260.792928 
L 622.79328 274.008743 
L 623.001605 311.925646 
L 623.209931 276.288315 
L 623.418256 277.335083 
L 623.626582 267.971547 
L 623.834908 276.997135 
L 624.043233 314.871887 
L 624.66821 281.076672 
L 624.876535 304.098172 
L 625.084861 280.112638 
L 625.293186 281.015236 
L 625.501512 286.17031 
L 625.709838 294.252337 
L 625.918163 289.378348 
L 626.126489 266.958254 
L 626.334814 285.880959 
L 626.54314 280.217987 
L 626.751465 267.860938 
L 626.959791 285.480879 
L 627.168116 261.167102 
L 627.376442 289.214096 
L 627.584768 299.637778 
L 628.001419 284.642476 
L 628.209744 302.134981 
L 628.41807 292.526738 
L 628.626395 261.813531 
L 628.834721 270.640608 
L 629.043046 298.529278 
L 629.251372 284.322259 
L 629.459698 306.779947 
L 629.668023 309.488025 
L 629.876349 273.794077 
L 630.084674 299.80239 
L 630.293 306.272292 
L 630.501325 304.001061 
L 630.709651 296.017909 
L 631.126302 274.413588 
L 631.334628 312.842078 
L 631.542953 281.039418 
L 631.751279 290.959342 
L 631.959604 293.246937 
L 632.16793 297.074534 
L 632.376255 285.20877 
L 632.584581 296.465251 
L 632.792906 280.978991 
L 633.001232 295.349537 
L 633.209558 269.281649 
L 633.417883 279.984318 
L 633.626209 282.000637 
L 634.04286 271.037948 
L 634.251185 287.293557 
L 634.459511 287.241615 
L 634.667836 297.822938 
L 634.876162 292.197892 
L 635.084488 301.27402 
L 635.292813 265.635555 
L 635.501139 295.225594 
L 635.709464 294.906071 
L 636.126115 284.962875 
L 636.542766 303.626537 
L 636.751092 283.515336 
L 636.959418 277.691465 
L 637.376069 285.431845 
L 637.79272 277.236894 
L 638.001045 303.688368 
L 638.209371 310.915908 
L 638.417696 298.443845 
L 638.626022 307.23535 
L 638.834348 273.6275 
L 639.042673 298.721864 
L 639.250999 288.081243 
L 639.459324 303.978898 
L 639.66765 281.774046 
L 639.875975 282.598325 
L 640.084301 290.903692 
L 640.292626 292.120516 
L 640.500952 308.220897 
L 640.709278 274.272524 
L 641.125929 267.957868 
L 641.334254 289.769094 
L 641.750905 275.546206 
L 641.959231 270.600223 
L 642.167556 275.928011 
L 642.375882 264.5401 
L 642.584208 303.508748 
L 642.792533 287.98946 
L 643.000859 316.522183 
L 643.209184 264.11346 
L 643.41751 285.224632 
L 643.625835 283.815128 
L 643.834161 265.823533 
L 644.042486 295.094403 
L 644.250812 294.907855 
L 644.459138 285.010119 
L 644.667463 286.878802 
L 644.875789 285.905504 
L 645.084114 278.544045 
L 645.29244 262.00187 
L 645.500765 286.591697 
L 645.709091 286.760183 
L 645.917416 268.653621 
L 646.125742 271.688242 
L 646.334068 288.280254 
L 646.542393 288.186698 
L 646.750719 301.07218 
L 646.959044 289.506175 
L 647.16737 338.572397 
L 647.375695 252.09586 
L 647.584021 315.242975 
L 647.792346 278.059317 
L 648.000672 274.280747 
L 648.208998 282.431411 
L 648.417323 275.37825 
L 648.625649 298.989469 
L 649.0423 279.695822 
L 649.250625 321.929758 
L 649.458951 292.617921 
L 649.667276 290.670492 
L 649.875602 282.83542 
L 650.083928 282.858741 
L 650.292253 280.368697 
L 650.500579 284.886191 
L 650.708904 285.06784 
L 650.91723 287.386625 
L 651.125555 271.499534 
L 651.333881 283.73478 
L 651.542206 270.997934 
L 651.750532 269.744062 
L 651.958858 276.020699 
L 652.167183 307.501741 
L 652.583834 254.163776 
L 652.79216 280.951395 
L 653.000485 282.23734 
L 653.208811 286.219506 
L 653.417136 263.841203 
L 653.625462 285.338028 
L 653.833788 282.132533 
L 654.042113 269.467333 
L 654.250439 306.470318 
L 654.458764 282.150615 
L 654.66709 293.387139 
L 654.875415 297.148926 
L 655.083741 298.412514 
L 655.292066 291.747465 
L 655.500392 294.764827 
L 655.708718 308.040292 
L 655.917043 269.044599 
L 656.125369 259.687485 
L 656.54202 296.245255 
L 656.750345 294.442383 
L 656.958671 290.927261 
L 657.166996 289.707805 
L 657.375322 278.981472 
L 657.583648 292.757785 
L 657.791973 297.724209 
L 658.000299 311.535288 
L 658.208624 274.769144 
L 658.41695 292.983522 
L 658.625275 282.209186 
L 658.833601 279.987317 
L 659.041926 284.160445 
L 659.250252 320.048455 
L 659.458578 267.173336 
L 659.666903 276.985305 
L 659.875229 295.032336 
L 660.29188 272.038802 
L 660.500205 290.229685 
L 660.708531 282.953226 
L 660.916856 313.742177 
L 661.125182 275.329339 
L 661.333508 274.566033 
L 661.541833 277.817232 
L 661.750159 276.989489 
L 661.958484 284.673486 
L 662.16681 275.432588 
L 662.375135 259.706882 
L 662.583461 332.911329 
L 662.791786 265.983556 
L 663.000112 282.815375 
L 663.208438 267.874253 
L 663.416763 308.076292 
L 663.625089 287.151753 
L 663.833414 292.530478 
L 664.04174 275.952318 
L 664.250065 298.967423 
L 664.458391 282.427516 
L 664.666716 274.78765 
L 664.875042 306.513731 
L 665.083368 277.238725 
L 665.291693 290.65402 
L 665.500019 285.193424 
L 665.708344 289.694534 
L 665.91667 278.954943 
L 666.124995 278.112366 
L 666.333321 266.034311 
L 666.749972 309.719107 
L 666.958298 288.694028 
L 667.166623 286.668873 
L 667.374949 282.851655 
L 667.583274 308.156204 
L 667.7916 289.86339 
L 667.999925 296.545629 
L 668.416576 284.878967 
L 668.624902 296.497575 
L 668.833228 274.467504 
L 669.041553 289.194403 
L 669.249879 256.639871 
L 669.458204 270.830978 
L 669.66653 331.932792 
L 669.874855 262.925467 
L 670.083181 285.89132 
L 670.291506 292.956492 
L 670.499832 283.786193 
L 670.708158 296.439423 
L 671.124809 282.741271 
L 671.333134 291.203691 
L 671.54146 281.996837 
L 671.749785 287.678106 
L 671.958111 286.424883 
L 672.166436 286.697169 
L 672.583088 286.644745 
L 672.791413 286.639338 
L 672.999739 273.328887 
L 673.208064 298.679642 
L 673.41639 282.27945 
L 673.624715 284.078463 
L 673.833041 296.749295 
L 674.041366 286.909458 
L 674.249692 288.983875 
L 674.458018 288.440653 
L 674.666343 287.517136 
L 674.874669 278.823158 
L 675.082994 288.350731 
L 675.499645 274.657287 
L 675.707971 282.711617 
L 675.916296 282.17369 
L 676.124622 299.419394 
L 676.332948 279.321771 
L 676.541273 285.132227 
L 676.749599 287.781592 
L 676.957924 279.362962 
L 677.16625 293.705665 
L 677.374575 294.485065 
L 677.582901 296.541748 
L 677.999552 234.107415 
L 678.416203 306.55369 
L 678.624529 288.078943 
L 678.832854 282.035705 
L 679.04118 299.652344 
L 679.249505 286.718172 
L 679.457831 259.833194 
L 679.666156 281.337578 
L 679.874482 259.343512 
L 680.291133 286.074362 
L 680.499459 313.059216 
L 680.91611 273.888334 
L 681.124435 291.37484 
L 681.332761 285.907793 
L 681.541086 318.408924 
L 681.957738 269.678022 
L 682.166063 297.216282 
L 682.374389 285.264788 
L 682.582714 286.811884 
L 682.999365 312.809877 
L 683.207691 287.723196 
L 683.416016 247.277692 
L 683.624342 291.524051 
L 683.832668 287.546487 
L 684.040993 277.934195 
L 684.249319 296.509229 
L 684.457644 277.641261 
L 684.66597 298.26929 
L 685.290946 282.682755 
L 685.499272 315.864981 
L 685.707598 291.260239 
L 685.915923 222.867474 
L 686.124249 315.035879 
L 686.332574 283.673387 
L 686.5409 289.776416 
L 686.749225 307.229364 
L 686.957551 265.913022 
L 687.165876 280.507572 
L 687.374202 274.217685 
L 687.582528 309.784536 
L 687.790853 310.37249 
L 687.999179 281.775391 
L 688.207504 314.179009 
L 688.41583 279.994128 
L 688.624155 272.830946 
L 688.832481 254.010844 
L 689.040806 267.851387 
L 689.249132 295.351687 
L 689.457458 274.592753 
L 689.874109 321.83211 
L 690.29076 286.550536 
L 690.499085 286.696568 
L 690.707411 282.877456 
L 690.915736 293.906476 
L 691.124062 288.85733 
L 691.332388 311.280041 
L 691.540713 292.024159 
L 691.957364 297.037807 
L 692.16569 291.904958 
L 692.374015 281.528448 
L 692.582341 310.486113 
L 692.790666 282.523854 
L 692.998992 290.282319 
L 693.207318 276.355283 
L 693.415643 293.430333 
L 693.623969 281.565729 
L 693.832294 281.837828 
L 694.04062 282.32484 
L 694.248945 303.45671 
L 694.665596 268.47151 
L 694.873922 275.778029 
L 695.082248 270.731641 
L 695.290573 274.314962 
L 695.498899 270.489845 
L 695.707224 275.008055 
L 695.91555 285.518088 
L 696.123875 307.813937 
L 696.332201 287.194223 
L 696.540526 278.043447 
L 696.748852 276.331799 
L 696.957178 303.83429 
L 697.165503 291.150812 
L 697.373829 285.831497 
L 697.582154 275.374715 
L 697.79048 280.913177 
L 697.998805 265.234027 
L 698.207131 278.098205 
L 698.415456 307.622167 
L 698.623782 303.326585 
L 699.040433 262.077593 
L 699.248759 299.556462 
L 699.457084 286.552317 
L 699.66541 299.862873 
L 699.873735 290.753019 
L 700.082061 247.435132 
L 700.290386 276.325396 
L 700.498712 289.078668 
L 700.707038 289.682053 
L 700.915363 297.726899 
L 701.123689 299.334761 
L 701.54034 278.989066 
L 701.748665 263.212842 
L 702.165316 292.547259 
L 702.581968 285.592711 
L 702.790293 293.915946 
L 702.998619 288.430356 
L 703.206944 299.303103 
L 703.623595 270.870669 
L 703.831921 287.654619 
L 704.040246 272.815662 
L 704.248572 268.330988 
L 704.456898 285.512381 
L 704.665223 321.603 
L 705.081874 270.324572 
L 705.2902 305.140169 
L 705.498525 268.155414 
L 706.123502 292.835962 
L 706.331828 263.896815 
L 706.748479 286.81756 
L 706.956804 298.095892 
L 707.16513 303.212767 
L 707.373455 281.1901 
L 707.581781 293.646867 
L 707.790106 272.111543 
L 707.998432 287.193031 
L 708.415083 288.930183 
L 708.623409 295.323578 
L 709.04006 275.439394 
L 709.248385 287.218528 
L 709.456711 287.794993 
L 709.873362 271.478045 
L 710.081688 292.238723 
L 710.498339 273.728485 
L 710.706664 286.1671 
L 710.91499 287.130036 
L 711.123315 289.475457 
L 711.331641 294.236268 
L 711.748292 274.068388 
L 711.956618 274.329762 
L 712.164943 322.205024 
L 712.373269 278.970026 
L 712.581594 311.226455 
L 712.78992 292.455115 
L 712.998245 298.159637 
L 713.206571 278.275283 
L 713.414896 302.82728 
L 713.623222 304.390035 
L 713.831548 309.551652 
L 714.039873 283.051765 
L 714.248199 280.659602 
L 714.456524 291.071609 
L 714.66485 284.401706 
L 714.873175 286.01388 
L 715.081501 292.29105 
L 715.289826 283.53652 
L 715.498152 289.438682 
L 715.706478 284.984092 
L 715.914803 311.556601 
L 716.123129 288.210834 
L 716.331454 293.306807 
L 716.53978 257.512964 
L 716.748105 276.46333 
L 716.956431 275.843266 
L 717.164756 310.071845 
L 717.373082 305.421109 
L 717.581408 295.995687 
L 717.789733 276.474946 
L 718.41471 317.979492 
L 718.623035 272.33306 
L 718.831361 301.262911 
L 719.039686 270.200991 
L 719.248012 293.099141 
L 719.456338 284.306645 
L 719.664663 294.185222 
L 719.872989 277.76911 
L 720.081314 287.089558 
L 720.28964 289.782543 
L 720.706291 296.743736 
L 721.122942 264.644013 
L 721.331268 289.999641 
L 721.539593 266.899894 
L 721.747919 267.84094 
L 721.956244 331.000995 
L 722.16457 284.437905 
L 722.581221 288.998697 
L 722.789546 281.921886 
L 722.997872 297.277339 
L 723.206197 266.641704 
L 723.414523 290.546415 
L 723.622849 264.565515 
L 723.831174 275.921095 
L 724.0395 297.822637 
L 724.247825 305.385475 
L 724.456151 291.517576 
L 724.664476 261.173279 
L 724.872802 277.659238 
L 725.081127 312.868064 
L 725.289453 292.179738 
L 725.497779 289.960392 
L 725.706104 294.999249 
L 726.122755 283.094428 
L 726.331081 287.143358 
L 726.539406 272.864572 
L 726.956057 295.023372 
L 727.372709 290.496331 
L 727.581034 283.027776 
L 727.78936 308.479137 
L 727.997685 293.838747 
L 728.206011 299.902809 
L 728.414336 294.697218 
L 728.622662 293.26221 
L 728.830987 300.740709 
L 729.039313 288.526315 
L 729.247639 300.169897 
L 729.455964 286.606578 
L 729.66429 283.401637 
L 729.872615 302.855294 
L 730.289266 267.962459 
L 730.497592 268.778386 
L 730.705917 274.173418 
L 730.914243 292.707982 
L 731.330894 278.535385 
L 731.53922 274.945829 
L 731.747545 293.157104 
L 731.955871 299.233656 
L 732.164196 301.271487 
L 732.580847 278.674907 
L 732.789173 283.814136 
L 732.997499 277.610829 
L 733.41415 285.787373 
L 733.622475 281.797149 
L 733.830801 273.878602 
L 734.039126 259.699494 
L 734.455777 301.6956 
L 734.872429 273.363051 
L 735.080754 273.392503 
L 735.497405 290.632433 
L 735.705731 287.309734 
L 735.914056 291.361659 
L 736.122382 278.356436 
L 736.330707 296.487024 
L 736.539033 279.419383 
L 736.747359 285.43262 
L 736.955684 267.33271 
L 737.16401 284.225617 
L 737.372335 281.498837 
L 737.580661 321.034692 
L 737.788986 287.65172 
L 737.997312 300.99972 
L 738.205637 291.574862 
L 738.413963 327.315488 
L 738.622289 269.538854 
L 738.830614 293.488566 
L 739.03894 295.205467 
L 739.247265 277.537164 
L 739.455591 246.202485 
L 739.663916 314.607287 
L 739.872242 278.152197 
L 740.080567 299.935574 
L 740.288893 273.148737 
L 740.497219 281.719788 
L 740.705544 280.671499 
L 740.91387 275.768442 
L 741.122195 292.518455 
L 741.330521 279.645907 
L 741.538846 279.494153 
L 741.747172 287.576588 
L 742.163823 271.303319 
L 742.372149 317.735433 
L 742.580474 278.246824 
L 742.7888 270.392967 
L 742.997125 287.104121 
L 743.413776 281.43581 
L 743.622102 275.136478 
L 743.830427 277.373258 
L 744.247079 283.994447 
L 744.455404 275.208981 
L 744.66373 282.423946 
L 744.872055 274.177603 
L 745.080381 273.719676 
L 745.288706 308.16294 
L 745.705357 281.52892 
L 745.913683 293.094155 
L 746.122009 295.415988 
L 746.330334 290.767611 
L 746.53866 295.934347 
L 746.746985 281.830843 
L 747.163636 294.195289 
L 747.163636 294.195289 
" style="fill:none;stroke:#3d9970;stroke-linecap:square;stroke-width:0.5;"/>
   </g>
   <g id="patch_3">
    <path d="M 108 384.48 
L 108 51.84 
" style="fill:none;stroke:#000000;stroke-linecap:square;stroke-linejoin:miter;stroke-width:0.8;"/>
   </g>
   <g id="patch_4">
    <path d="M 777.6 384.48 
L 777.6 51.84 
" style="fill:none;stroke:#000000;stroke-linecap:square;stroke-linejoin:miter;stroke-width:0.8;"/>
   </g>
   <g id="patch_5">
    <path d="M 108 384.48 
L 777.6 384.48 
" style="fill:none;stroke:#000000;stroke-linecap:square;stroke-linejoin:miter;stroke-width:0.8;"/>
   </g>
   <g id="patch_6">
    <path d="M 108 51.84 
L 777.6 51.84 
" style="fill:none;stroke:#000000;stroke-linecap:square;stroke-linejoin:miter;stroke-width:0.8;"/>
   </g>
   <g id="text_20">
    <!-- Residuals -->
    <g transform="translate(414.069375 45.84)scale(0.12 -0.12)">
     <use xlink:href="#DejaVuSans-52"/>
     <use x="69.419922" xlink:href="#DejaVuSans-65"/>
     <use x="130.943359" xlink:href="#DejaVuSans-73"/>
     <use x="183.042969" xlink:href="#DejaVuSans-69"/>
     <use x="210.826172" xlink:href="#DejaVuSans-64"/>
     <use x="274.302734" xlink:href="#DejaVuSans-75"/>
     <use x="337.681641" xlink:href="#DejaVuSans-61"/>
     <use x="398.960938" xlink:href="#DejaVuSans-6c"/>
     <use x="426.744141" xlink:href="#DejaVuSans-73"/>
    </g>
   </g>
  </g>
 </g>
 <defs>
  <clipPath id="pc369eb046d">
   <rect height="332.64" width="669.6" x="108" y="51.84"/>
  </clipPath>
 </defs>
</svg>
