<?xml version="1.0" encoding="utf-8" standalone="no"?>
<!DOCTYPE svg PUBLIC "-//W3C//DTD SVG 1.1//EN"
  "http://www.w3.org/Graphics/SVG/1.1/DTD/svg11.dtd">
<!-- Created with matplotlib (http://matplotlib.org/) -->
<svg height="432pt" version="1.1" viewBox="0 0 864 432" width="864pt" xmlns="http://www.w3.org/2000/svg" xmlns:xlink="http://www.w3.org/1999/xlink">
 <defs>
  <style type="text/css">
*{stroke-linecap:butt;stroke-linejoin:round;}
  </style>
 </defs>
 <g id="figure_1">
  <g id="patch_1">
   <path d="M 0 432 
L 864 432 
L 864 0 
L 0 0 
z
" style="fill:#ffffff;"/>
  </g>
  <g id="axes_1">
   <g id="patch_2">
    <path d="M 108 203.04 
L 777.6 203.04 
L 777.6 51.84 
L 108 51.84 
z
" style="fill:#ffffff;"/>
   </g>
   <g id="PolyCollection_1">
    <path clip-path="url(#p970f4372e6)" d="M 158.727273 173.037327 
L 158.727273 181.638149 
L 179.018182 184.210245 
L 199.309091 185.607612 
L 219.6 186.593531 
L 239.890909 187.39106 
L 260.181818 188.076897 
L 280.472727 188.686177 
L 300.763636 189.25117 
L 321.054545 189.770633 
L 341.345455 190.251985 
L 361.636364 190.711021 
L 381.927273 191.140944 
L 402.218182 191.547491 
L 422.509091 191.931355 
L 442.8 192.298193 
L 463.090909 192.649909 
L 483.381818 192.984034 
L 503.672727 193.302531 
L 523.963636 193.601066 
L 544.254545 193.882351 
L 564.545455 194.141879 
L 584.836364 194.38881 
L 605.127273 194.625057 
L 625.418182 194.857103 
L 645.709091 195.091714 
L 666 195.319851 
L 686.290909 195.541346 
L 706.581818 195.756091 
L 726.872727 195.962308 
L 747.163636 196.167273 
L 747.163636 158.508204 
L 747.163636 158.508204 
L 726.872727 158.713168 
L 706.581818 158.919386 
L 686.290909 159.13413 
L 666 159.355625 
L 645.709091 159.583763 
L 625.418182 159.818373 
L 605.127273 160.05042 
L 584.836364 160.286666 
L 564.545455 160.533597 
L 544.254545 160.793125 
L 523.963636 161.074411 
L 503.672727 161.372945 
L 483.381818 161.691443 
L 463.090909 162.025567 
L 442.8 162.377284 
L 422.509091 162.744122 
L 402.218182 163.127986 
L 381.927273 163.534532 
L 361.636364 163.964456 
L 341.345455 164.423492 
L 321.054545 164.904844 
L 300.763636 165.424307 
L 280.472727 165.9893 
L 260.181818 166.598579 
L 239.890909 167.284417 
L 219.6 168.081945 
L 199.309091 169.067864 
L 179.018182 170.465232 
L 158.727273 173.037327 
z
" style="fill:#1f77b4;fill-opacity:0.25;"/>
   </g>
   <g id="matplotlib.axis_1">
    <g id="xtick_1">
     <g id="line2d_1">
      <defs>
       <path d="M 0 0 
L 0 3.5 
" id="m786e2b7a29" style="stroke:#000000;stroke-width:0.8;"/>
      </defs>
      <g>
       <use style="stroke:#000000;stroke-width:0.8;" x="138.436364" xlink:href="#m786e2b7a29" y="203.04"/>
      </g>
     </g>
     <g id="text_1">
      <!-- 0 -->
      <defs>
       <path d="M 31.78125 66.40625 
Q 24.171875 66.40625 20.328125 58.90625 
Q 16.5 51.421875 16.5 36.375 
Q 16.5 21.390625 20.328125 13.890625 
Q 24.171875 6.390625 31.78125 6.390625 
Q 39.453125 6.390625 43.28125 13.890625 
Q 47.125 21.390625 47.125 36.375 
Q 47.125 51.421875 43.28125 58.90625 
Q 39.453125 66.40625 31.78125 66.40625 
z
M 31.78125 74.21875 
Q 44.046875 74.21875 50.515625 64.515625 
Q 56.984375 54.828125 56.984375 36.375 
Q 56.984375 17.96875 50.515625 8.265625 
Q 44.046875 -1.421875 31.78125 -1.421875 
Q 19.53125 -1.421875 13.0625 8.265625 
Q 6.59375 17.96875 6.59375 36.375 
Q 6.59375 54.828125 13.0625 64.515625 
Q 19.53125 74.21875 31.78125 74.21875 
z
" id="DejaVuSans-30"/>
      </defs>
      <g transform="translate(135.255114 217.638437)scale(0.1 -0.1)">
       <use xlink:href="#DejaVuSans-30"/>
      </g>
     </g>
    </g>
    <g id="xtick_2">
     <g id="line2d_2">
      <g>
       <use style="stroke:#000000;stroke-width:0.8;" x="239.890909" xlink:href="#m786e2b7a29" y="203.04"/>
      </g>
     </g>
     <g id="text_2">
      <!-- 5 -->
      <defs>
       <path d="M 10.796875 72.90625 
L 49.515625 72.90625 
L 49.515625 64.59375 
L 19.828125 64.59375 
L 19.828125 46.734375 
Q 21.96875 47.46875 24.109375 47.828125 
Q 26.265625 48.1875 28.421875 48.1875 
Q 40.625 48.1875 47.75 41.5 
Q 54.890625 34.8125 54.890625 23.390625 
Q 54.890625 11.625 47.5625 5.09375 
Q 40.234375 -1.421875 26.90625 -1.421875 
Q 22.3125 -1.421875 17.546875 -0.640625 
Q 12.796875 0.140625 7.71875 1.703125 
L 7.71875 11.625 
Q 12.109375 9.234375 16.796875 8.0625 
Q 21.484375 6.890625 26.703125 6.890625 
Q 35.15625 6.890625 40.078125 11.328125 
Q 45.015625 15.765625 45.015625 23.390625 
Q 45.015625 31 40.078125 35.4375 
Q 35.15625 39.890625 26.703125 39.890625 
Q 22.75 39.890625 18.8125 39.015625 
Q 14.890625 38.140625 10.796875 36.28125 
z
" id="DejaVuSans-35"/>
      </defs>
      <g transform="translate(236.709659 217.638437)scale(0.1 -0.1)">
       <use xlink:href="#DejaVuSans-35"/>
      </g>
     </g>
    </g>
    <g id="xtick_3">
     <g id="line2d_3">
      <g>
       <use style="stroke:#000000;stroke-width:0.8;" x="341.345455" xlink:href="#m786e2b7a29" y="203.04"/>
      </g>
     </g>
     <g id="text_3">
      <!-- 10 -->
      <defs>
       <path d="M 12.40625 8.296875 
L 28.515625 8.296875 
L 28.515625 63.921875 
L 10.984375 60.40625 
L 10.984375 69.390625 
L 28.421875 72.90625 
L 38.28125 72.90625 
L 38.28125 8.296875 
L 54.390625 8.296875 
L 54.390625 0 
L 12.40625 0 
z
" id="DejaVuSans-31"/>
      </defs>
      <g transform="translate(334.982955 217.638437)scale(0.1 -0.1)">
       <use xlink:href="#DejaVuSans-31"/>
       <use x="63.623047" xlink:href="#DejaVuSans-30"/>
      </g>
     </g>
    </g>
    <g id="xtick_4">
     <g id="line2d_4">
      <g>
       <use style="stroke:#000000;stroke-width:0.8;" x="442.8" xlink:href="#m786e2b7a29" y="203.04"/>
      </g>
     </g>
     <g id="text_4">
      <!-- 15 -->
      <g transform="translate(436.4375 217.638437)scale(0.1 -0.1)">
       <use xlink:href="#DejaVuSans-31"/>
       <use x="63.623047" xlink:href="#DejaVuSans-35"/>
      </g>
     </g>
    </g>
    <g id="xtick_5">
     <g id="line2d_5">
      <g>
       <use style="stroke:#000000;stroke-width:0.8;" x="544.254545" xlink:href="#m786e2b7a29" y="203.04"/>
      </g>
     </g>
     <g id="text_5">
      <!-- 20 -->
      <defs>
       <path d="M 19.1875 8.296875 
L 53.609375 8.296875 
L 53.609375 0 
L 7.328125 0 
L 7.328125 8.296875 
Q 12.9375 14.109375 22.625 23.890625 
Q 32.328125 33.6875 34.8125 36.53125 
Q 39.546875 41.84375 41.421875 45.53125 
Q 43.3125 49.21875 43.3125 52.78125 
Q 43.3125 58.59375 39.234375 62.25 
Q 35.15625 65.921875 28.609375 65.921875 
Q 23.96875 65.921875 18.8125 64.3125 
Q 13.671875 62.703125 7.8125 59.421875 
L 7.8125 69.390625 
Q 13.765625 71.78125 18.9375 73 
Q 24.125 74.21875 28.421875 74.21875 
Q 39.75 74.21875 46.484375 68.546875 
Q 53.21875 62.890625 53.21875 53.421875 
Q 53.21875 48.921875 51.53125 44.890625 
Q 49.859375 40.875 45.40625 35.40625 
Q 44.1875 33.984375 37.640625 27.21875 
Q 31.109375 20.453125 19.1875 8.296875 
z
" id="DejaVuSans-32"/>
      </defs>
      <g transform="translate(537.892045 217.638437)scale(0.1 -0.1)">
       <use xlink:href="#DejaVuSans-32"/>
       <use x="63.623047" xlink:href="#DejaVuSans-30"/>
      </g>
     </g>
    </g>
    <g id="xtick_6">
     <g id="line2d_6">
      <g>
       <use style="stroke:#000000;stroke-width:0.8;" x="645.709091" xlink:href="#m786e2b7a29" y="203.04"/>
      </g>
     </g>
     <g id="text_6">
      <!-- 25 -->
      <g transform="translate(639.346591 217.638437)scale(0.1 -0.1)">
       <use xlink:href="#DejaVuSans-32"/>
       <use x="63.623047" xlink:href="#DejaVuSans-35"/>
      </g>
     </g>
    </g>
    <g id="xtick_7">
     <g id="line2d_7">
      <g>
       <use style="stroke:#000000;stroke-width:0.8;" x="747.163636" xlink:href="#m786e2b7a29" y="203.04"/>
      </g>
     </g>
     <g id="text_7">
      <!-- 30 -->
      <defs>
       <path d="M 40.578125 39.3125 
Q 47.65625 37.796875 51.625 33 
Q 55.609375 28.21875 55.609375 21.1875 
Q 55.609375 10.40625 48.1875 4.484375 
Q 40.765625 -1.421875 27.09375 -1.421875 
Q 22.515625 -1.421875 17.65625 -0.515625 
Q 12.796875 0.390625 7.625 2.203125 
L 7.625 11.71875 
Q 11.71875 9.328125 16.59375 8.109375 
Q 21.484375 6.890625 26.8125 6.890625 
Q 36.078125 6.890625 40.9375 10.546875 
Q 45.796875 14.203125 45.796875 21.1875 
Q 45.796875 27.640625 41.28125 31.265625 
Q 36.765625 34.90625 28.71875 34.90625 
L 20.21875 34.90625 
L 20.21875 43.015625 
L 29.109375 43.015625 
Q 36.375 43.015625 40.234375 45.921875 
Q 44.09375 48.828125 44.09375 54.296875 
Q 44.09375 59.90625 40.109375 62.90625 
Q 36.140625 65.921875 28.71875 65.921875 
Q 24.65625 65.921875 20.015625 65.03125 
Q 15.375 64.15625 9.8125 62.3125 
L 9.8125 71.09375 
Q 15.4375 72.65625 20.34375 73.4375 
Q 25.25 74.21875 29.59375 74.21875 
Q 40.828125 74.21875 47.359375 69.109375 
Q 53.90625 64.015625 53.90625 55.328125 
Q 53.90625 49.265625 50.4375 45.09375 
Q 46.96875 40.921875 40.578125 39.3125 
z
" id="DejaVuSans-33"/>
      </defs>
      <g transform="translate(740.801136 217.638437)scale(0.1 -0.1)">
       <use xlink:href="#DejaVuSans-33"/>
       <use x="63.623047" xlink:href="#DejaVuSans-30"/>
      </g>
     </g>
    </g>
   </g>
   <g id="matplotlib.axis_2">
    <g id="ytick_1">
     <g id="line2d_8">
      <defs>
       <path d="M 0 0 
L -3.5 0 
" id="m418674717c" style="stroke:#000000;stroke-width:0.8;"/>
      </defs>
      <g>
       <use style="stroke:#000000;stroke-width:0.8;" x="108" xlink:href="#m418674717c" y="201.062741"/>
      </g>
     </g>
     <g id="text_8">
      <!-- −0.2 -->
      <defs>
       <path d="M 10.59375 35.5 
L 73.1875 35.5 
L 73.1875 27.203125 
L 10.59375 27.203125 
z
" id="DejaVuSans-2212"/>
       <path d="M 10.6875 12.40625 
L 21 12.40625 
L 21 0 
L 10.6875 0 
z
" id="DejaVuSans-2e"/>
      </defs>
      <g transform="translate(76.717187 204.861959)scale(0.1 -0.1)">
       <use xlink:href="#DejaVuSans-2212"/>
       <use x="83.789062" xlink:href="#DejaVuSans-30"/>
       <use x="147.412109" xlink:href="#DejaVuSans-2e"/>
       <use x="179.199219" xlink:href="#DejaVuSans-32"/>
      </g>
     </g>
    </g>
    <g id="ytick_2">
     <g id="line2d_9">
      <g>
       <use style="stroke:#000000;stroke-width:0.8;" x="108" xlink:href="#m418674717c" y="177.337738"/>
      </g>
     </g>
     <g id="text_9">
      <!-- 0.0 -->
      <g transform="translate(85.096875 181.136957)scale(0.1 -0.1)">
       <use xlink:href="#DejaVuSans-30"/>
       <use x="63.623047" xlink:href="#DejaVuSans-2e"/>
       <use x="95.410156" xlink:href="#DejaVuSans-30"/>
      </g>
     </g>
    </g>
    <g id="ytick_3">
     <g id="line2d_10">
      <g>
       <use style="stroke:#000000;stroke-width:0.8;" x="108" xlink:href="#m418674717c" y="153.612736"/>
      </g>
     </g>
     <g id="text_10">
      <!-- 0.2 -->
      <g transform="translate(85.096875 157.411955)scale(0.1 -0.1)">
       <use xlink:href="#DejaVuSans-30"/>
       <use x="63.623047" xlink:href="#DejaVuSans-2e"/>
       <use x="95.410156" xlink:href="#DejaVuSans-32"/>
      </g>
     </g>
    </g>
    <g id="ytick_4">
     <g id="line2d_11">
      <g>
       <use style="stroke:#000000;stroke-width:0.8;" x="108" xlink:href="#m418674717c" y="129.887734"/>
      </g>
     </g>
     <g id="text_11">
      <!-- 0.4 -->
      <defs>
       <path d="M 37.796875 64.3125 
L 12.890625 25.390625 
L 37.796875 25.390625 
z
M 35.203125 72.90625 
L 47.609375 72.90625 
L 47.609375 25.390625 
L 58.015625 25.390625 
L 58.015625 17.1875 
L 47.609375 17.1875 
L 47.609375 0 
L 37.796875 0 
L 37.796875 17.1875 
L 4.890625 17.1875 
L 4.890625 26.703125 
z
" id="DejaVuSans-34"/>
      </defs>
      <g transform="translate(85.096875 133.686953)scale(0.1 -0.1)">
       <use xlink:href="#DejaVuSans-30"/>
       <use x="63.623047" xlink:href="#DejaVuSans-2e"/>
       <use x="95.410156" xlink:href="#DejaVuSans-34"/>
      </g>
     </g>
    </g>
    <g id="ytick_5">
     <g id="line2d_12">
      <g>
       <use style="stroke:#000000;stroke-width:0.8;" x="108" xlink:href="#m418674717c" y="106.162732"/>
      </g>
     </g>
     <g id="text_12">
      <!-- 0.6 -->
      <defs>
       <path d="M 33.015625 40.375 
Q 26.375 40.375 22.484375 35.828125 
Q 18.609375 31.296875 18.609375 23.390625 
Q 18.609375 15.53125 22.484375 10.953125 
Q 26.375 6.390625 33.015625 6.390625 
Q 39.65625 6.390625 43.53125 10.953125 
Q 47.40625 15.53125 47.40625 23.390625 
Q 47.40625 31.296875 43.53125 35.828125 
Q 39.65625 40.375 33.015625 40.375 
z
M 52.59375 71.296875 
L 52.59375 62.3125 
Q 48.875 64.0625 45.09375 64.984375 
Q 41.3125 65.921875 37.59375 65.921875 
Q 27.828125 65.921875 22.671875 59.328125 
Q 17.53125 52.734375 16.796875 39.40625 
Q 19.671875 43.65625 24.015625 45.921875 
Q 28.375 48.1875 33.59375 48.1875 
Q 44.578125 48.1875 50.953125 41.515625 
Q 57.328125 34.859375 57.328125 23.390625 
Q 57.328125 12.15625 50.6875 5.359375 
Q 44.046875 -1.421875 33.015625 -1.421875 
Q 20.359375 -1.421875 13.671875 8.265625 
Q 6.984375 17.96875 6.984375 36.375 
Q 6.984375 53.65625 15.1875 63.9375 
Q 23.390625 74.21875 37.203125 74.21875 
Q 40.921875 74.21875 44.703125 73.484375 
Q 48.484375 72.75 52.59375 71.296875 
z
" id="DejaVuSans-36"/>
      </defs>
      <g transform="translate(85.096875 109.96195)scale(0.1 -0.1)">
       <use xlink:href="#DejaVuSans-30"/>
       <use x="63.623047" xlink:href="#DejaVuSans-2e"/>
       <use x="95.410156" xlink:href="#DejaVuSans-36"/>
      </g>
     </g>
    </g>
    <g id="ytick_6">
     <g id="line2d_13">
      <g>
       <use style="stroke:#000000;stroke-width:0.8;" x="108" xlink:href="#m418674717c" y="82.437729"/>
      </g>
     </g>
     <g id="text_13">
      <!-- 0.8 -->
      <defs>
       <path d="M 31.78125 34.625 
Q 24.75 34.625 20.71875 30.859375 
Q 16.703125 27.09375 16.703125 20.515625 
Q 16.703125 13.921875 20.71875 10.15625 
Q 24.75 6.390625 31.78125 6.390625 
Q 38.8125 6.390625 42.859375 10.171875 
Q 46.921875 13.96875 46.921875 20.515625 
Q 46.921875 27.09375 42.890625 30.859375 
Q 38.875 34.625 31.78125 34.625 
z
M 21.921875 38.8125 
Q 15.578125 40.375 12.03125 44.71875 
Q 8.5 49.078125 8.5 55.328125 
Q 8.5 64.0625 14.71875 69.140625 
Q 20.953125 74.21875 31.78125 74.21875 
Q 42.671875 74.21875 48.875 69.140625 
Q 55.078125 64.0625 55.078125 55.328125 
Q 55.078125 49.078125 51.53125 44.71875 
Q 48 40.375 41.703125 38.8125 
Q 48.828125 37.15625 52.796875 32.3125 
Q 56.78125 27.484375 56.78125 20.515625 
Q 56.78125 9.90625 50.3125 4.234375 
Q 43.84375 -1.421875 31.78125 -1.421875 
Q 19.734375 -1.421875 13.25 4.234375 
Q 6.78125 9.90625 6.78125 20.515625 
Q 6.78125 27.484375 10.78125 32.3125 
Q 14.796875 37.15625 21.921875 38.8125 
z
M 18.3125 54.390625 
Q 18.3125 48.734375 21.84375 45.5625 
Q 25.390625 42.390625 31.78125 42.390625 
Q 38.140625 42.390625 41.71875 45.5625 
Q 45.3125 48.734375 45.3125 54.390625 
Q 45.3125 60.0625 41.71875 63.234375 
Q 38.140625 66.40625 31.78125 66.40625 
Q 25.390625 66.40625 21.84375 63.234375 
Q 18.3125 60.0625 18.3125 54.390625 
z
" id="DejaVuSans-38"/>
      </defs>
      <g transform="translate(85.096875 86.236948)scale(0.1 -0.1)">
       <use xlink:href="#DejaVuSans-30"/>
       <use x="63.623047" xlink:href="#DejaVuSans-2e"/>
       <use x="95.410156" xlink:href="#DejaVuSans-38"/>
      </g>
     </g>
    </g>
    <g id="ytick_7">
     <g id="line2d_14">
      <g>
       <use style="stroke:#000000;stroke-width:0.8;" x="108" xlink:href="#m418674717c" y="58.712727"/>
      </g>
     </g>
     <g id="text_14">
      <!-- 1.0 -->
      <g transform="translate(85.096875 62.511946)scale(0.1 -0.1)">
       <use xlink:href="#DejaVuSans-31"/>
       <use x="63.623047" xlink:href="#DejaVuSans-2e"/>
       <use x="95.410156" xlink:href="#DejaVuSans-30"/>
      </g>
     </g>
    </g>
   </g>
   <g id="LineCollection_1">
    <path clip-path="url(#p970f4372e6)" d="M 138.436364 177.337738 
L 138.436364 58.712727 
" style="fill:none;stroke:#000000;stroke-width:1.5;"/>
    <path clip-path="url(#p970f4372e6)" d="M 158.727273 177.337738 
L 158.727273 72.774702 
" style="fill:none;stroke:#000000;stroke-width:1.5;"/>
    <path clip-path="url(#p970f4372e6)" d="M 179.018182 177.337738 
L 179.018182 87.614752 
" style="fill:none;stroke:#000000;stroke-width:1.5;"/>
    <path clip-path="url(#p970f4372e6)" d="M 199.309091 177.337738 
L 199.309091 96.258589 
" style="fill:none;stroke:#000000;stroke-width:1.5;"/>
    <path clip-path="url(#p970f4372e6)" d="M 219.6 177.337738 
L 219.6 100.794727 
" style="fill:none;stroke:#000000;stroke-width:1.5;"/>
    <path clip-path="url(#p970f4372e6)" d="M 239.890909 177.337738 
L 239.890909 103.680556 
" style="fill:none;stroke:#000000;stroke-width:1.5;"/>
    <path clip-path="url(#p970f4372e6)" d="M 260.181818 177.337738 
L 260.181818 105.783738 
" style="fill:none;stroke:#000000;stroke-width:1.5;"/>
    <path clip-path="url(#p970f4372e6)" d="M 280.472727 177.337738 
L 280.472727 106.62539 
" style="fill:none;stroke:#000000;stroke-width:1.5;"/>
    <path clip-path="url(#p970f4372e6)" d="M 300.763636 177.337738 
L 300.763636 107.971974 
" style="fill:none;stroke:#000000;stroke-width:1.5;"/>
    <path clip-path="url(#p970f4372e6)" d="M 321.054545 177.337738 
L 321.054545 109.206359 
" style="fill:none;stroke:#000000;stroke-width:1.5;"/>
    <path clip-path="url(#p970f4372e6)" d="M 341.345455 177.337738 
L 341.345455 109.581436 
" style="fill:none;stroke:#000000;stroke-width:1.5;"/>
    <path clip-path="url(#p970f4372e6)" d="M 361.636364 177.337738 
L 361.636364 110.665726 
" style="fill:none;stroke:#000000;stroke-width:1.5;"/>
    <path clip-path="url(#p970f4372e6)" d="M 381.927273 177.337738 
L 381.927273 111.513508 
" style="fill:none;stroke:#000000;stroke-width:1.5;"/>
    <path clip-path="url(#p970f4372e6)" d="M 402.218182 177.337738 
L 402.218182 112.480012 
" style="fill:none;stroke:#000000;stroke-width:1.5;"/>
    <path clip-path="url(#p970f4372e6)" d="M 422.509091 177.337738 
L 422.509091 113.113751 
" style="fill:none;stroke:#000000;stroke-width:1.5;"/>
    <path clip-path="url(#p970f4372e6)" d="M 442.8 177.337738 
L 442.8 113.691527 
" style="fill:none;stroke:#000000;stroke-width:1.5;"/>
    <path clip-path="url(#p970f4372e6)" d="M 463.090909 177.337738 
L 463.090909 114.604824 
" style="fill:none;stroke:#000000;stroke-width:1.5;"/>
    <path clip-path="url(#p970f4372e6)" d="M 483.381818 177.337738 
L 483.381818 115.447244 
" style="fill:none;stroke:#000000;stroke-width:1.5;"/>
    <path clip-path="url(#p970f4372e6)" d="M 503.672727 177.337738 
L 503.672727 116.83628 
" style="fill:none;stroke:#000000;stroke-width:1.5;"/>
    <path clip-path="url(#p970f4372e6)" d="M 523.963636 177.337738 
L 523.963636 118.084172 
" style="fill:none;stroke:#000000;stroke-width:1.5;"/>
    <path clip-path="url(#p970f4372e6)" d="M 544.254545 177.337738 
L 544.254545 119.954705 
" style="fill:none;stroke:#000000;stroke-width:1.5;"/>
    <path clip-path="url(#p970f4372e6)" d="M 564.545455 177.337738 
L 564.545455 120.941286 
" style="fill:none;stroke:#000000;stroke-width:1.5;"/>
    <path clip-path="url(#p970f4372e6)" d="M 584.836364 177.337738 
L 584.836364 121.782613 
" style="fill:none;stroke:#000000;stroke-width:1.5;"/>
    <path clip-path="url(#p970f4372e6)" d="M 605.127273 177.337738 
L 605.127273 121.904547 
" style="fill:none;stroke:#000000;stroke-width:1.5;"/>
    <path clip-path="url(#p970f4372e6)" d="M 625.418182 177.337738 
L 625.418182 121.226656 
" style="fill:none;stroke:#000000;stroke-width:1.5;"/>
    <path clip-path="url(#p970f4372e6)" d="M 645.709091 177.337738 
L 645.709091 121.644432 
" style="fill:none;stroke:#000000;stroke-width:1.5;"/>
    <path clip-path="url(#p970f4372e6)" d="M 666 177.337738 
L 666 122.117051 
" style="fill:none;stroke:#000000;stroke-width:1.5;"/>
    <path clip-path="url(#p970f4372e6)" d="M 686.290909 177.337738 
L 686.290909 122.638232 
" style="fill:none;stroke:#000000;stroke-width:1.5;"/>
    <path clip-path="url(#p970f4372e6)" d="M 706.581818 177.337738 
L 706.581818 123.428101 
" style="fill:none;stroke:#000000;stroke-width:1.5;"/>
    <path clip-path="url(#p970f4372e6)" d="M 726.872727 177.337738 
L 726.872727 123.294635 
" style="fill:none;stroke:#000000;stroke-width:1.5;"/>
    <path clip-path="url(#p970f4372e6)" d="M 747.163636 177.337738 
L 747.163636 123.548695 
" style="fill:none;stroke:#000000;stroke-width:1.5;"/>
   </g>
   <g id="line2d_15">
    <path clip-path="url(#p970f4372e6)" d="M 108 177.337738 
L 777.6 177.337738 
" style="fill:none;stroke:#3d9970;stroke-linecap:square;stroke-width:1.5;"/>
   </g>
   <g id="line2d_16">
    <defs>
     <path d="M 0 2.5 
C 0.663008 2.5 1.29895 2.236584 1.767767 1.767767 
C 2.236584 1.29895 2.5 0.663008 2.5 0 
C 2.5 -0.663008 2.236584 -1.29895 1.767767 -1.767767 
C 1.29895 -2.236584 0.663008 -2.5 0 -2.5 
C -0.663008 -2.5 -1.29895 -2.236584 -1.767767 -1.767767 
C -2.236584 -1.29895 -2.5 -0.663008 -2.5 0 
C -2.5 0.663008 -2.236584 1.29895 -1.767767 1.767767 
C -1.29895 2.236584 -0.663008 2.5 0 2.5 
z
" id="m04d2a40759" style="stroke:#3d9970;"/>
    </defs>
    <g clip-path="url(#p970f4372e6)">
     <use style="fill:#3d9970;stroke:#3d9970;" x="138.436364" xlink:href="#m04d2a40759" y="58.712727"/>
     <use style="fill:#3d9970;stroke:#3d9970;" x="158.727273" xlink:href="#m04d2a40759" y="72.774702"/>
     <use style="fill:#3d9970;stroke:#3d9970;" x="179.018182" xlink:href="#m04d2a40759" y="87.614752"/>
     <use style="fill:#3d9970;stroke:#3d9970;" x="199.309091" xlink:href="#m04d2a40759" y="96.258589"/>
     <use style="fill:#3d9970;stroke:#3d9970;" x="219.6" xlink:href="#m04d2a40759" y="100.794727"/>
     <use style="fill:#3d9970;stroke:#3d9970;" x="239.890909" xlink:href="#m04d2a40759" y="103.680556"/>
     <use style="fill:#3d9970;stroke:#3d9970;" x="260.181818" xlink:href="#m04d2a40759" y="105.783738"/>
     <use style="fill:#3d9970;stroke:#3d9970;" x="280.472727" xlink:href="#m04d2a40759" y="106.62539"/>
     <use style="fill:#3d9970;stroke:#3d9970;" x="300.763636" xlink:href="#m04d2a40759" y="107.971974"/>
     <use style="fill:#3d9970;stroke:#3d9970;" x="321.054545" xlink:href="#m04d2a40759" y="109.206359"/>
     <use style="fill:#3d9970;stroke:#3d9970;" x="341.345455" xlink:href="#m04d2a40759" y="109.581436"/>
     <use style="fill:#3d9970;stroke:#3d9970;" x="361.636364" xlink:href="#m04d2a40759" y="110.665726"/>
     <use style="fill:#3d9970;stroke:#3d9970;" x="381.927273" xlink:href="#m04d2a40759" y="111.513508"/>
     <use style="fill:#3d9970;stroke:#3d9970;" x="402.218182" xlink:href="#m04d2a40759" y="112.480012"/>
     <use style="fill:#3d9970;stroke:#3d9970;" x="422.509091" xlink:href="#m04d2a40759" y="113.113751"/>
     <use style="fill:#3d9970;stroke:#3d9970;" x="442.8" xlink:href="#m04d2a40759" y="113.691527"/>
     <use style="fill:#3d9970;stroke:#3d9970;" x="463.090909" xlink:href="#m04d2a40759" y="114.604824"/>
     <use style="fill:#3d9970;stroke:#3d9970;" x="483.381818" xlink:href="#m04d2a40759" y="115.447244"/>
     <use style="fill:#3d9970;stroke:#3d9970;" x="503.672727" xlink:href="#m04d2a40759" y="116.83628"/>
     <use style="fill:#3d9970;stroke:#3d9970;" x="523.963636" xlink:href="#m04d2a40759" y="118.084172"/>
     <use style="fill:#3d9970;stroke:#3d9970;" x="544.254545" xlink:href="#m04d2a40759" y="119.954705"/>
     <use style="fill:#3d9970;stroke:#3d9970;" x="564.545455" xlink:href="#m04d2a40759" y="120.941286"/>
     <use style="fill:#3d9970;stroke:#3d9970;" x="584.836364" xlink:href="#m04d2a40759" y="121.782613"/>
     <use style="fill:#3d9970;stroke:#3d9970;" x="605.127273" xlink:href="#m04d2a40759" y="121.904547"/>
     <use style="fill:#3d9970;stroke:#3d9970;" x="625.418182" xlink:href="#m04d2a40759" y="121.226656"/>
     <use style="fill:#3d9970;stroke:#3d9970;" x="645.709091" xlink:href="#m04d2a40759" y="121.644432"/>
     <use style="fill:#3d9970;stroke:#3d9970;" x="666" xlink:href="#m04d2a40759" y="122.117051"/>
     <use style="fill:#3d9970;stroke:#3d9970;" x="686.290909" xlink:href="#m04d2a40759" y="122.638232"/>
     <use style="fill:#3d9970;stroke:#3d9970;" x="706.581818" xlink:href="#m04d2a40759" y="123.428101"/>
     <use style="fill:#3d9970;stroke:#3d9970;" x="726.872727" xlink:href="#m04d2a40759" y="123.294635"/>
     <use style="fill:#3d9970;stroke:#3d9970;" x="747.163636" xlink:href="#m04d2a40759" y="123.548695"/>
    </g>
   </g>
   <g id="patch_3">
    <path d="M 108 203.04 
L 108 51.84 
" style="fill:none;stroke:#000000;stroke-linecap:square;stroke-linejoin:miter;stroke-width:0.8;"/>
   </g>
   <g id="patch_4">
    <path d="M 777.6 203.04 
L 777.6 51.84 
" style="fill:none;stroke:#000000;stroke-linecap:square;stroke-linejoin:miter;stroke-width:0.8;"/>
   </g>
   <g id="patch_5">
    <path d="M 108 203.04 
L 777.6 203.04 
" style="fill:none;stroke:#000000;stroke-linecap:square;stroke-linejoin:miter;stroke-width:0.8;"/>
   </g>
   <g id="patch_6">
    <path d="M 108 51.84 
L 777.6 51.84 
" style="fill:none;stroke:#000000;stroke-linecap:square;stroke-linejoin:miter;stroke-width:0.8;"/>
   </g>
   <g id="text_15">
    <!-- Autocorrelation -->
    <defs>
     <path d="M 34.1875 63.1875 
L 20.796875 26.90625 
L 47.609375 26.90625 
z
M 28.609375 72.90625 
L 39.796875 72.90625 
L 67.578125 0 
L 57.328125 0 
L 50.6875 18.703125 
L 17.828125 18.703125 
L 11.1875 0 
L 0.78125 0 
z
" id="DejaVuSans-41"/>
     <path d="M 8.5 21.578125 
L 8.5 54.6875 
L 17.484375 54.6875 
L 17.484375 21.921875 
Q 17.484375 14.15625 20.5 10.265625 
Q 23.53125 6.390625 29.59375 6.390625 
Q 36.859375 6.390625 41.078125 11.03125 
Q 45.3125 15.671875 45.3125 23.6875 
L 45.3125 54.6875 
L 54.296875 54.6875 
L 54.296875 0 
L 45.3125 0 
L 45.3125 8.40625 
Q 42.046875 3.421875 37.71875 1 
Q 33.40625 -1.421875 27.6875 -1.421875 
Q 18.265625 -1.421875 13.375 4.4375 
Q 8.5 10.296875 8.5 21.578125 
z
M 31.109375 56 
z
" id="DejaVuSans-75"/>
     <path d="M 18.3125 70.21875 
L 18.3125 54.6875 
L 36.8125 54.6875 
L 36.8125 47.703125 
L 18.3125 47.703125 
L 18.3125 18.015625 
Q 18.3125 11.328125 20.140625 9.421875 
Q 21.96875 7.515625 27.59375 7.515625 
L 36.8125 7.515625 
L 36.8125 0 
L 27.59375 0 
Q 17.1875 0 13.234375 3.875 
Q 9.28125 7.765625 9.28125 18.015625 
L 9.28125 47.703125 
L 2.6875 47.703125 
L 2.6875 54.6875 
L 9.28125 54.6875 
L 9.28125 70.21875 
z
" id="DejaVuSans-74"/>
     <path d="M 30.609375 48.390625 
Q 23.390625 48.390625 19.1875 42.75 
Q 14.984375 37.109375 14.984375 27.296875 
Q 14.984375 17.484375 19.15625 11.84375 
Q 23.34375 6.203125 30.609375 6.203125 
Q 37.796875 6.203125 41.984375 11.859375 
Q 46.1875 17.53125 46.1875 27.296875 
Q 46.1875 37.015625 41.984375 42.703125 
Q 37.796875 48.390625 30.609375 48.390625 
z
M 30.609375 56 
Q 42.328125 56 49.015625 48.375 
Q 55.71875 40.765625 55.71875 27.296875 
Q 55.71875 13.875 49.015625 6.21875 
Q 42.328125 -1.421875 30.609375 -1.421875 
Q 18.84375 -1.421875 12.171875 6.21875 
Q 5.515625 13.875 5.515625 27.296875 
Q 5.515625 40.765625 12.171875 48.375 
Q 18.84375 56 30.609375 56 
z
" id="DejaVuSans-6f"/>
     <path d="M 48.78125 52.59375 
L 48.78125 44.1875 
Q 44.96875 46.296875 41.140625 47.34375 
Q 37.3125 48.390625 33.40625 48.390625 
Q 24.65625 48.390625 19.8125 42.84375 
Q 14.984375 37.3125 14.984375 27.296875 
Q 14.984375 17.28125 19.8125 11.734375 
Q 24.65625 6.203125 33.40625 6.203125 
Q 37.3125 6.203125 41.140625 7.25 
Q 44.96875 8.296875 48.78125 10.40625 
L 48.78125 2.09375 
Q 45.015625 0.34375 40.984375 -0.53125 
Q 36.96875 -1.421875 32.421875 -1.421875 
Q 20.0625 -1.421875 12.78125 6.34375 
Q 5.515625 14.109375 5.515625 27.296875 
Q 5.515625 40.671875 12.859375 48.328125 
Q 20.21875 56 33.015625 56 
Q 37.15625 56 41.109375 55.140625 
Q 45.0625 54.296875 48.78125 52.59375 
z
" id="DejaVuSans-63"/>
     <path d="M 41.109375 46.296875 
Q 39.59375 47.171875 37.8125 47.578125 
Q 36.03125 48 33.890625 48 
Q 26.265625 48 22.1875 43.046875 
Q 18.109375 38.09375 18.109375 28.8125 
L 18.109375 0 
L 9.078125 0 
L 9.078125 54.6875 
L 18.109375 54.6875 
L 18.109375 46.1875 
Q 20.953125 51.171875 25.484375 53.578125 
Q 30.03125 56 36.53125 56 
Q 37.453125 56 38.578125 55.875 
Q 39.703125 55.765625 41.0625 55.515625 
z
" id="DejaVuSans-72"/>
     <path d="M 56.203125 29.59375 
L 56.203125 25.203125 
L 14.890625 25.203125 
Q 15.484375 15.921875 20.484375 11.0625 
Q 25.484375 6.203125 34.421875 6.203125 
Q 39.59375 6.203125 44.453125 7.46875 
Q 49.3125 8.734375 54.109375 11.28125 
L 54.109375 2.78125 
Q 49.265625 0.734375 44.1875 -0.34375 
Q 39.109375 -1.421875 33.890625 -1.421875 
Q 20.796875 -1.421875 13.15625 6.1875 
Q 5.515625 13.8125 5.515625 26.8125 
Q 5.515625 40.234375 12.765625 48.109375 
Q 20.015625 56 32.328125 56 
Q 43.359375 56 49.78125 48.890625 
Q 56.203125 41.796875 56.203125 29.59375 
z
M 47.21875 32.234375 
Q 47.125 39.59375 43.09375 43.984375 
Q 39.0625 48.390625 32.421875 48.390625 
Q 24.90625 48.390625 20.390625 44.140625 
Q 15.875 39.890625 15.1875 32.171875 
z
" id="DejaVuSans-65"/>
     <path d="M 9.421875 75.984375 
L 18.40625 75.984375 
L 18.40625 0 
L 9.421875 0 
z
" id="DejaVuSans-6c"/>
     <path d="M 34.28125 27.484375 
Q 23.390625 27.484375 19.1875 25 
Q 14.984375 22.515625 14.984375 16.5 
Q 14.984375 11.71875 18.140625 8.90625 
Q 21.296875 6.109375 26.703125 6.109375 
Q 34.1875 6.109375 38.703125 11.40625 
Q 43.21875 16.703125 43.21875 25.484375 
L 43.21875 27.484375 
z
M 52.203125 31.203125 
L 52.203125 0 
L 43.21875 0 
L 43.21875 8.296875 
Q 40.140625 3.328125 35.546875 0.953125 
Q 30.953125 -1.421875 24.3125 -1.421875 
Q 15.921875 -1.421875 10.953125 3.296875 
Q 6 8.015625 6 15.921875 
Q 6 25.140625 12.171875 29.828125 
Q 18.359375 34.515625 30.609375 34.515625 
L 43.21875 34.515625 
L 43.21875 35.40625 
Q 43.21875 41.609375 39.140625 45 
Q 35.0625 48.390625 27.6875 48.390625 
Q 23 48.390625 18.546875 47.265625 
Q 14.109375 46.140625 10.015625 43.890625 
L 10.015625 52.203125 
Q 14.9375 54.109375 19.578125 55.046875 
Q 24.21875 56 28.609375 56 
Q 40.484375 56 46.34375 49.84375 
Q 52.203125 43.703125 52.203125 31.203125 
z
" id="DejaVuSans-61"/>
     <path d="M 9.421875 54.6875 
L 18.40625 54.6875 
L 18.40625 0 
L 9.421875 0 
z
M 9.421875 75.984375 
L 18.40625 75.984375 
L 18.40625 64.59375 
L 9.421875 64.59375 
z
" id="DejaVuSans-69"/>
     <path d="M 54.890625 33.015625 
L 54.890625 0 
L 45.90625 0 
L 45.90625 32.71875 
Q 45.90625 40.484375 42.875 44.328125 
Q 39.84375 48.1875 33.796875 48.1875 
Q 26.515625 48.1875 22.3125 43.546875 
Q 18.109375 38.921875 18.109375 30.90625 
L 18.109375 0 
L 9.078125 0 
L 9.078125 54.6875 
L 18.109375 54.6875 
L 18.109375 46.1875 
Q 21.34375 51.125 25.703125 53.5625 
Q 30.078125 56 35.796875 56 
Q 45.21875 56 50.046875 50.171875 
Q 54.890625 44.34375 54.890625 33.015625 
z
" id="DejaVuSans-6e"/>
    </defs>
    <g transform="translate(396.440625 45.84)scale(0.12 -0.12)">
     <use xlink:href="#DejaVuSans-41"/>
     <use x="68.408203" xlink:href="#DejaVuSans-75"/>
     <use x="131.787109" xlink:href="#DejaVuSans-74"/>
     <use x="170.996094" xlink:href="#DejaVuSans-6f"/>
     <use x="232.177734" xlink:href="#DejaVuSans-63"/>
     <use x="287.158203" xlink:href="#DejaVuSans-6f"/>
     <use x="348.339844" xlink:href="#DejaVuSans-72"/>
     <use x="389.4375" xlink:href="#DejaVuSans-72"/>
     <use x="430.519531" xlink:href="#DejaVuSans-65"/>
     <use x="492.042969" xlink:href="#DejaVuSans-6c"/>
     <use x="519.826172" xlink:href="#DejaVuSans-61"/>
     <use x="581.105469" xlink:href="#DejaVuSans-74"/>
     <use x="620.314453" xlink:href="#DejaVuSans-69"/>
     <use x="648.097656" xlink:href="#DejaVuSans-6f"/>
     <use x="709.279297" xlink:href="#DejaVuSans-6e"/>
    </g>
   </g>
  </g>
  <g id="axes_2">
   <g id="patch_7">
    <path d="M 108 384.48 
L 777.6 384.48 
L 777.6 233.28 
L 108 233.28 
z
" style="fill:#ffffff;"/>
   </g>
   <g id="PolyCollection_2">
    <path clip-path="url(#pae1cc62db3)" d="M 158.727273 361.386154 
L 158.727273 370.506737 
L 179.018182 370.506737 
L 199.309091 370.506737 
L 219.6 370.506737 
L 239.890909 370.506737 
L 260.181818 370.506737 
L 280.472727 370.506737 
L 300.763636 370.506737 
L 321.054545 370.506737 
L 341.345455 370.506737 
L 361.636364 370.506737 
L 381.927273 370.506737 
L 402.218182 370.506737 
L 422.509091 370.506737 
L 442.8 370.506737 
L 463.090909 370.506737 
L 483.381818 370.506737 
L 503.672727 370.506737 
L 523.963636 370.506737 
L 544.254545 370.506737 
L 564.545455 370.506737 
L 584.836364 370.506737 
L 605.127273 370.506737 
L 625.418182 370.506737 
L 645.709091 370.506737 
L 666 370.506737 
L 686.290909 370.506737 
L 706.581818 370.506737 
L 726.872727 370.506737 
L 747.163636 370.506737 
L 747.163636 361.386154 
L 747.163636 361.386154 
L 726.872727 361.386154 
L 706.581818 361.386154 
L 686.290909 361.386154 
L 666 361.386154 
L 645.709091 361.386154 
L 625.418182 361.386154 
L 605.127273 361.386154 
L 584.836364 361.386154 
L 564.545455 361.386154 
L 544.254545 361.386154 
L 523.963636 361.386154 
L 503.672727 361.386154 
L 483.381818 361.386154 
L 463.090909 361.386154 
L 442.8 361.386154 
L 422.509091 361.386154 
L 402.218182 361.386154 
L 381.927273 361.386154 
L 361.636364 361.386154 
L 341.345455 361.386154 
L 321.054545 361.386154 
L 300.763636 361.386154 
L 280.472727 361.386154 
L 260.181818 361.386154 
L 239.890909 361.386154 
L 219.6 361.386154 
L 199.309091 361.386154 
L 179.018182 361.386154 
L 158.727273 361.386154 
z
" style="fill:#1f77b4;fill-opacity:0.25;"/>
   </g>
   <g id="matplotlib.axis_3">
    <g id="xtick_8">
     <g id="line2d_17">
      <g>
       <use style="stroke:#000000;stroke-width:0.8;" x="138.436364" xlink:href="#m786e2b7a29" y="384.48"/>
      </g>
     </g>
     <g id="text_16">
      <!-- 0 -->
      <g transform="translate(135.255114 399.078438)scale(0.1 -0.1)">
       <use xlink:href="#DejaVuSans-30"/>
      </g>
     </g>
    </g>
    <g id="xtick_9">
     <g id="line2d_18">
      <g>
       <use style="stroke:#000000;stroke-width:0.8;" x="239.890909" xlink:href="#m786e2b7a29" y="384.48"/>
      </g>
     </g>
     <g id="text_17">
      <!-- 5 -->
      <g transform="translate(236.709659 399.078438)scale(0.1 -0.1)">
       <use xlink:href="#DejaVuSans-35"/>
      </g>
     </g>
    </g>
    <g id="xtick_10">
     <g id="line2d_19">
      <g>
       <use style="stroke:#000000;stroke-width:0.8;" x="341.345455" xlink:href="#m786e2b7a29" y="384.48"/>
      </g>
     </g>
     <g id="text_18">
      <!-- 10 -->
      <g transform="translate(334.982955 399.078438)scale(0.1 -0.1)">
       <use xlink:href="#DejaVuSans-31"/>
       <use x="63.623047" xlink:href="#DejaVuSans-30"/>
      </g>
     </g>
    </g>
    <g id="xtick_11">
     <g id="line2d_20">
      <g>
       <use style="stroke:#000000;stroke-width:0.8;" x="442.8" xlink:href="#m786e2b7a29" y="384.48"/>
      </g>
     </g>
     <g id="text_19">
      <!-- 15 -->
      <g transform="translate(436.4375 399.078438)scale(0.1 -0.1)">
       <use xlink:href="#DejaVuSans-31"/>
       <use x="63.623047" xlink:href="#DejaVuSans-35"/>
      </g>
     </g>
    </g>
    <g id="xtick_12">
     <g id="line2d_21">
      <g>
       <use style="stroke:#000000;stroke-width:0.8;" x="544.254545" xlink:href="#m786e2b7a29" y="384.48"/>
      </g>
     </g>
     <g id="text_20">
      <!-- 20 -->
      <g transform="translate(537.892045 399.078438)scale(0.1 -0.1)">
       <use xlink:href="#DejaVuSans-32"/>
       <use x="63.623047" xlink:href="#DejaVuSans-30"/>
      </g>
     </g>
    </g>
    <g id="xtick_13">
     <g id="line2d_22">
      <g>
       <use style="stroke:#000000;stroke-width:0.8;" x="645.709091" xlink:href="#m786e2b7a29" y="384.48"/>
      </g>
     </g>
     <g id="text_21">
      <!-- 25 -->
      <g transform="translate(639.346591 399.078438)scale(0.1 -0.1)">
       <use xlink:href="#DejaVuSans-32"/>
       <use x="63.623047" xlink:href="#DejaVuSans-35"/>
      </g>
     </g>
    </g>
    <g id="xtick_14">
     <g id="line2d_23">
      <g>
       <use style="stroke:#000000;stroke-width:0.8;" x="747.163636" xlink:href="#m786e2b7a29" y="384.48"/>
      </g>
     </g>
     <g id="text_22">
      <!-- 30 -->
      <g transform="translate(740.801136 399.078438)scale(0.1 -0.1)">
       <use xlink:href="#DejaVuSans-33"/>
       <use x="63.623047" xlink:href="#DejaVuSans-30"/>
      </g>
     </g>
    </g>
   </g>
   <g id="matplotlib.axis_4">
    <g id="ytick_8">
     <g id="line2d_24">
      <g>
       <use style="stroke:#000000;stroke-width:0.8;" x="108" xlink:href="#m418674717c" y="365.946445"/>
      </g>
     </g>
     <g id="text_23">
      <!-- 0.0 -->
      <g transform="translate(85.096875 369.745664)scale(0.1 -0.1)">
       <use xlink:href="#DejaVuSans-30"/>
       <use x="63.623047" xlink:href="#DejaVuSans-2e"/>
       <use x="95.410156" xlink:href="#DejaVuSans-30"/>
      </g>
     </g>
    </g>
    <g id="ytick_9">
     <g id="line2d_25">
      <g>
       <use style="stroke:#000000;stroke-width:0.8;" x="108" xlink:href="#m418674717c" y="340.787702"/>
      </g>
     </g>
     <g id="text_24">
      <!-- 0.2 -->
      <g transform="translate(85.096875 344.586921)scale(0.1 -0.1)">
       <use xlink:href="#DejaVuSans-30"/>
       <use x="63.623047" xlink:href="#DejaVuSans-2e"/>
       <use x="95.410156" xlink:href="#DejaVuSans-32"/>
      </g>
     </g>
    </g>
    <g id="ytick_10">
     <g id="line2d_26">
      <g>
       <use style="stroke:#000000;stroke-width:0.8;" x="108" xlink:href="#m418674717c" y="315.628958"/>
      </g>
     </g>
     <g id="text_25">
      <!-- 0.4 -->
      <g transform="translate(85.096875 319.428177)scale(0.1 -0.1)">
       <use xlink:href="#DejaVuSans-30"/>
       <use x="63.623047" xlink:href="#DejaVuSans-2e"/>
       <use x="95.410156" xlink:href="#DejaVuSans-34"/>
      </g>
     </g>
    </g>
    <g id="ytick_11">
     <g id="line2d_27">
      <g>
       <use style="stroke:#000000;stroke-width:0.8;" x="108" xlink:href="#m418674717c" y="290.470215"/>
      </g>
     </g>
     <g id="text_26">
      <!-- 0.6 -->
      <g transform="translate(85.096875 294.269433)scale(0.1 -0.1)">
       <use xlink:href="#DejaVuSans-30"/>
       <use x="63.623047" xlink:href="#DejaVuSans-2e"/>
       <use x="95.410156" xlink:href="#DejaVuSans-36"/>
      </g>
     </g>
    </g>
    <g id="ytick_12">
     <g id="line2d_28">
      <g>
       <use style="stroke:#000000;stroke-width:0.8;" x="108" xlink:href="#m418674717c" y="265.311471"/>
      </g>
     </g>
     <g id="text_27">
      <!-- 0.8 -->
      <g transform="translate(85.096875 269.11069)scale(0.1 -0.1)">
       <use xlink:href="#DejaVuSans-30"/>
       <use x="63.623047" xlink:href="#DejaVuSans-2e"/>
       <use x="95.410156" xlink:href="#DejaVuSans-38"/>
      </g>
     </g>
    </g>
    <g id="ytick_13">
     <g id="line2d_29">
      <g>
       <use style="stroke:#000000;stroke-width:0.8;" x="108" xlink:href="#m418674717c" y="240.152727"/>
      </g>
     </g>
     <g id="text_28">
      <!-- 1.0 -->
      <g transform="translate(85.096875 243.951946)scale(0.1 -0.1)">
       <use xlink:href="#DejaVuSans-31"/>
       <use x="63.623047" xlink:href="#DejaVuSans-2e"/>
       <use x="95.410156" xlink:href="#DejaVuSans-30"/>
      </g>
     </g>
    </g>
   </g>
   <g id="LineCollection_2">
    <path clip-path="url(#pae1cc62db3)" d="M 138.436364 365.946445 
L 138.436364 240.152727 
" style="fill:none;stroke:#000000;stroke-width:1.5;"/>
    <path clip-path="url(#pae1cc62db3)" d="M 158.727273 365.946445 
L 158.727273 255.026543 
" style="fill:none;stroke:#000000;stroke-width:1.5;"/>
    <path clip-path="url(#pae1cc62db3)" d="M 179.018182 365.946445 
L 179.018182 377.607273 
" style="fill:none;stroke:#000000;stroke-width:1.5;"/>
    <path clip-path="url(#pae1cc62db3)" d="M 199.309091 365.946445 
L 199.309091 345.027533 
" style="fill:none;stroke:#000000;stroke-width:1.5;"/>
    <path clip-path="url(#pae1cc62db3)" d="M 219.6 365.946445 
L 219.6 353.531 
" style="fill:none;stroke:#000000;stroke-width:1.5;"/>
    <path clip-path="url(#pae1cc62db3)" d="M 239.890909 365.946445 
L 239.890909 356.301181 
" style="fill:none;stroke:#000000;stroke-width:1.5;"/>
    <path clip-path="url(#pae1cc62db3)" d="M 260.181818 365.946445 
L 260.181818 356.928014 
" style="fill:none;stroke:#000000;stroke-width:1.5;"/>
    <path clip-path="url(#pae1cc62db3)" d="M 280.472727 365.946445 
L 280.472727 354.154823 
" style="fill:none;stroke:#000000;stroke-width:1.5;"/>
    <path clip-path="url(#pae1cc62db3)" d="M 300.763636 365.946445 
L 300.763636 362.64328 
" style="fill:none;stroke:#000000;stroke-width:1.5;"/>
    <path clip-path="url(#pae1cc62db3)" d="M 321.054545 365.946445 
L 321.054545 358.224767 
" style="fill:none;stroke:#000000;stroke-width:1.5;"/>
    <path clip-path="url(#pae1cc62db3)" d="M 341.345455 365.946445 
L 341.345455 357.16991 
" style="fill:none;stroke:#000000;stroke-width:1.5;"/>
    <path clip-path="url(#pae1cc62db3)" d="M 361.636364 365.946445 
L 361.636364 364.714599 
" style="fill:none;stroke:#000000;stroke-width:1.5;"/>
    <path clip-path="url(#pae1cc62db3)" d="M 381.927273 365.946445 
L 381.927273 358.922709 
" style="fill:none;stroke:#000000;stroke-width:1.5;"/>
    <path clip-path="url(#pae1cc62db3)" d="M 402.218182 365.946445 
L 402.218182 363.25208 
" style="fill:none;stroke:#000000;stroke-width:1.5;"/>
    <path clip-path="url(#pae1cc62db3)" d="M 422.509091 365.946445 
L 422.509091 360.779092 
" style="fill:none;stroke:#000000;stroke-width:1.5;"/>
    <path clip-path="url(#pae1cc62db3)" d="M 442.8 365.946445 
L 442.8 362.47184 
" style="fill:none;stroke:#000000;stroke-width:1.5;"/>
    <path clip-path="url(#pae1cc62db3)" d="M 463.090909 365.946445 
L 463.090909 363.907433 
" style="fill:none;stroke:#000000;stroke-width:1.5;"/>
    <path clip-path="url(#pae1cc62db3)" d="M 483.381818 365.946445 
L 483.381818 363.061696 
" style="fill:none;stroke:#000000;stroke-width:1.5;"/>
    <path clip-path="url(#pae1cc62db3)" d="M 503.672727 365.946445 
L 503.672727 366.512329 
" style="fill:none;stroke:#000000;stroke-width:1.5;"/>
    <path clip-path="url(#pae1cc62db3)" d="M 523.963636 365.946445 
L 523.963636 363.79457 
" style="fill:none;stroke:#000000;stroke-width:1.5;"/>
    <path clip-path="url(#pae1cc62db3)" d="M 544.254545 365.946445 
L 544.254545 369.246418 
" style="fill:none;stroke:#000000;stroke-width:1.5;"/>
    <path clip-path="url(#pae1cc62db3)" d="M 564.545455 365.946445 
L 564.545455 361.257853 
" style="fill:none;stroke:#000000;stroke-width:1.5;"/>
    <path clip-path="url(#pae1cc62db3)" d="M 584.836364 365.946445 
L 584.836364 366.866546 
" style="fill:none;stroke:#000000;stroke-width:1.5;"/>
    <path clip-path="url(#pae1cc62db3)" d="M 605.127273 365.946445 
L 605.127273 360.79214 
" style="fill:none;stroke:#000000;stroke-width:1.5;"/>
    <path clip-path="url(#pae1cc62db3)" d="M 625.418182 365.946445 
L 625.418182 360.888381 
" style="fill:none;stroke:#000000;stroke-width:1.5;"/>
    <path clip-path="url(#pae1cc62db3)" d="M 645.709091 365.946445 
L 645.709091 367.974423 
" style="fill:none;stroke:#000000;stroke-width:1.5;"/>
    <path clip-path="url(#pae1cc62db3)" d="M 666 365.946445 
L 666 362.170907 
" style="fill:none;stroke:#000000;stroke-width:1.5;"/>
    <path clip-path="url(#pae1cc62db3)" d="M 686.290909 365.946445 
L 686.290909 364.908383 
" style="fill:none;stroke:#000000;stroke-width:1.5;"/>
    <path clip-path="url(#pae1cc62db3)" d="M 706.581818 365.946445 
L 706.581818 365.816118 
" style="fill:none;stroke:#000000;stroke-width:1.5;"/>
    <path clip-path="url(#pae1cc62db3)" d="M 726.872727 365.946445 
L 726.872727 360.043039 
" style="fill:none;stroke:#000000;stroke-width:1.5;"/>
    <path clip-path="url(#pae1cc62db3)" d="M 747.163636 365.946445 
L 747.163636 366.300723 
" style="fill:none;stroke:#000000;stroke-width:1.5;"/>
   </g>
   <g id="line2d_30">
    <path clip-path="url(#pae1cc62db3)" d="M 108 365.946445 
L 777.6 365.946445 
" style="fill:none;stroke:#3d9970;stroke-linecap:square;stroke-width:1.5;"/>
   </g>
   <g id="line2d_31">
    <g clip-path="url(#pae1cc62db3)">
     <use style="fill:#3d9970;stroke:#3d9970;" x="138.436364" xlink:href="#m04d2a40759" y="240.152727"/>
     <use style="fill:#3d9970;stroke:#3d9970;" x="158.727273" xlink:href="#m04d2a40759" y="255.026543"/>
     <use style="fill:#3d9970;stroke:#3d9970;" x="179.018182" xlink:href="#m04d2a40759" y="377.607273"/>
     <use style="fill:#3d9970;stroke:#3d9970;" x="199.309091" xlink:href="#m04d2a40759" y="345.027533"/>
     <use style="fill:#3d9970;stroke:#3d9970;" x="219.6" xlink:href="#m04d2a40759" y="353.531"/>
     <use style="fill:#3d9970;stroke:#3d9970;" x="239.890909" xlink:href="#m04d2a40759" y="356.301181"/>
     <use style="fill:#3d9970;stroke:#3d9970;" x="260.181818" xlink:href="#m04d2a40759" y="356.928014"/>
     <use style="fill:#3d9970;stroke:#3d9970;" x="280.472727" xlink:href="#m04d2a40759" y="354.154823"/>
     <use style="fill:#3d9970;stroke:#3d9970;" x="300.763636" xlink:href="#m04d2a40759" y="362.64328"/>
     <use style="fill:#3d9970;stroke:#3d9970;" x="321.054545" xlink:href="#m04d2a40759" y="358.224767"/>
     <use style="fill:#3d9970;stroke:#3d9970;" x="341.345455" xlink:href="#m04d2a40759" y="357.16991"/>
     <use style="fill:#3d9970;stroke:#3d9970;" x="361.636364" xlink:href="#m04d2a40759" y="364.714599"/>
     <use style="fill:#3d9970;stroke:#3d9970;" x="381.927273" xlink:href="#m04d2a40759" y="358.922709"/>
     <use style="fill:#3d9970;stroke:#3d9970;" x="402.218182" xlink:href="#m04d2a40759" y="363.25208"/>
     <use style="fill:#3d9970;stroke:#3d9970;" x="422.509091" xlink:href="#m04d2a40759" y="360.779092"/>
     <use style="fill:#3d9970;stroke:#3d9970;" x="442.8" xlink:href="#m04d2a40759" y="362.47184"/>
     <use style="fill:#3d9970;stroke:#3d9970;" x="463.090909" xlink:href="#m04d2a40759" y="363.907433"/>
     <use style="fill:#3d9970;stroke:#3d9970;" x="483.381818" xlink:href="#m04d2a40759" y="363.061696"/>
     <use style="fill:#3d9970;stroke:#3d9970;" x="503.672727" xlink:href="#m04d2a40759" y="366.512329"/>
     <use style="fill:#3d9970;stroke:#3d9970;" x="523.963636" xlink:href="#m04d2a40759" y="363.79457"/>
     <use style="fill:#3d9970;stroke:#3d9970;" x="544.254545" xlink:href="#m04d2a40759" y="369.246418"/>
     <use style="fill:#3d9970;stroke:#3d9970;" x="564.545455" xlink:href="#m04d2a40759" y="361.257853"/>
     <use style="fill:#3d9970;stroke:#3d9970;" x="584.836364" xlink:href="#m04d2a40759" y="366.866546"/>
     <use style="fill:#3d9970;stroke:#3d9970;" x="605.127273" xlink:href="#m04d2a40759" y="360.79214"/>
     <use style="fill:#3d9970;stroke:#3d9970;" x="625.418182" xlink:href="#m04d2a40759" y="360.888381"/>
     <use style="fill:#3d9970;stroke:#3d9970;" x="645.709091" xlink:href="#m04d2a40759" y="367.974423"/>
     <use style="fill:#3d9970;stroke:#3d9970;" x="666" xlink:href="#m04d2a40759" y="362.170907"/>
     <use style="fill:#3d9970;stroke:#3d9970;" x="686.290909" xlink:href="#m04d2a40759" y="364.908383"/>
     <use style="fill:#3d9970;stroke:#3d9970;" x="706.581818" xlink:href="#m04d2a40759" y="365.816118"/>
     <use style="fill:#3d9970;stroke:#3d9970;" x="726.872727" xlink:href="#m04d2a40759" y="360.043039"/>
     <use style="fill:#3d9970;stroke:#3d9970;" x="747.163636" xlink:href="#m04d2a40759" y="366.300723"/>
    </g>
   </g>
   <g id="patch_8">
    <path d="M 108 384.48 
L 108 233.28 
" style="fill:none;stroke:#000000;stroke-linecap:square;stroke-linejoin:miter;stroke-width:0.8;"/>
   </g>
   <g id="patch_9">
    <path d="M 777.6 384.48 
L 777.6 233.28 
" style="fill:none;stroke:#000000;stroke-linecap:square;stroke-linejoin:miter;stroke-width:0.8;"/>
   </g>
   <g id="patch_10">
    <path d="M 108 384.48 
L 777.6 384.48 
" style="fill:none;stroke:#000000;stroke-linecap:square;stroke-linejoin:miter;stroke-width:0.8;"/>
   </g>
   <g id="patch_11">
    <path d="M 108 233.28 
L 777.6 233.28 
" style="fill:none;stroke:#000000;stroke-linecap:square;stroke-linejoin:miter;stroke-width:0.8;"/>
   </g>
   <g id="text_29">
    <!-- Partial Autocorrelation -->
    <defs>
     <path d="M 19.671875 64.796875 
L 19.671875 37.40625 
L 32.078125 37.40625 
Q 38.96875 37.40625 42.71875 40.96875 
Q 46.484375 44.53125 46.484375 51.125 
Q 46.484375 57.671875 42.71875 61.234375 
Q 38.96875 64.796875 32.078125 64.796875 
z
M 9.8125 72.90625 
L 32.078125 72.90625 
Q 44.34375 72.90625 50.609375 67.359375 
Q 56.890625 61.8125 56.890625 51.125 
Q 56.890625 40.328125 50.609375 34.8125 
Q 44.34375 29.296875 32.078125 29.296875 
L 19.671875 29.296875 
L 19.671875 0 
L 9.8125 0 
z
" id="DejaVuSans-50"/>
     <path id="DejaVuSans-20"/>
    </defs>
    <g transform="translate(375.413437 227.28)scale(0.12 -0.12)">
     <use xlink:href="#DejaVuSans-50"/>
     <use x="60.240234" xlink:href="#DejaVuSans-61"/>
     <use x="121.519531" xlink:href="#DejaVuSans-72"/>
     <use x="162.632812" xlink:href="#DejaVuSans-74"/>
     <use x="201.841797" xlink:href="#DejaVuSans-69"/>
     <use x="229.625" xlink:href="#DejaVuSans-61"/>
     <use x="290.904297" xlink:href="#DejaVuSans-6c"/>
     <use x="318.6875" xlink:href="#DejaVuSans-20"/>
     <use x="350.474609" xlink:href="#DejaVuSans-41"/>
     <use x="418.882812" xlink:href="#DejaVuSans-75"/>
     <use x="482.261719" xlink:href="#DejaVuSans-74"/>
     <use x="521.470703" xlink:href="#DejaVuSans-6f"/>
     <use x="582.652344" xlink:href="#DejaVuSans-63"/>
     <use x="637.632812" xlink:href="#DejaVuSans-6f"/>
     <use x="698.814453" xlink:href="#DejaVuSans-72"/>
     <use x="739.912109" xlink:href="#DejaVuSans-72"/>
     <use x="780.994141" xlink:href="#DejaVuSans-65"/>
     <use x="842.517578" xlink:href="#DejaVuSans-6c"/>
     <use x="870.300781" xlink:href="#DejaVuSans-61"/>
     <use x="931.580078" xlink:href="#DejaVuSans-74"/>
     <use x="970.789062" xlink:href="#DejaVuSans-69"/>
     <use x="998.572266" xlink:href="#DejaVuSans-6f"/>
     <use x="1059.753906" xlink:href="#DejaVuSans-6e"/>
    </g>
   </g>
  </g>
 </g>
 <defs>
  <clipPath id="p970f4372e6">
   <rect height="151.2" width="669.6" x="108" y="51.84"/>
  </clipPath>
  <clipPath id="pae1cc62db3">
   <rect height="151.2" width="669.6" x="108" y="233.28"/>
  </clipPath>
 </defs>
</svg>
